<?xml version="1.0" encoding="utf-8"?>
<!-- Generator: Adobe Illustrator 16.0.0, SVG Export Plug-In . SVG Version: 6.00 Build 0)  -->
<!DOCTYPE svg PUBLIC "-//W3C//DTD SVG 1.1//EN" "http://www.w3.org/Graphics/SVG/1.1/DTD/svg11.dtd">
<svg version="1.1" id="Layer_1" xmlns="http://www.w3.org/2000/svg" xmlns:xlink="http://www.w3.org/1999/xlink" x="0px" y="0px"
	 width="241px" height="235px" viewBox="0 0 241 235" enable-background="new 0 0 241 235" xml:space="preserve">
<g>
	<g>
		<path fill="none" d="M175.896,100.497L175.896,100.497V40.744L120.431,8.757L64.967,40.742v59.682v0.073l-51.685,29.804v64.041
			l55.463,31.986l51.686-29.805l51.684,29.805l55.466-31.984v-64.043L175.896,100.497z M120.431,128.047l-44.125-25.442
			l44.125-25.443l44.125,25.441L120.431,128.047z M72.599,109.219l44.125,25.443v50.885l-44.125-25.443V109.219L72.599,109.219z
			 M124.284,134.662l44.123-25.443v50.884l-44.123,25.443V134.662z M72.599,45.105l47.904-27.623l47.903,27.623v50.957
			l-47.903-27.623L72.599,96.062V45.105z M20.915,189.98v-55.318l44.123-25.442v55.247l47.979,27.695l-44.197,25.516L20.915,189.98z
			 M220.021,189.98l-47.906,27.623l-44.196-25.514l47.979-27.697v-55.247l44.125,25.444L220.021,189.98L220.021,189.98z"/>
		<g>
			<g>
				<g>
					<path fill="#3F3B3C" d="M136.808,200.188C136.92,200.268,136.99,200.281,136.808,200.188L136.808,200.188z"/>
					<path fill="#3F3B3C" d="M172.814,125.469c0-0.041-0.001-0.061-0.001-0.104c-0.07-0.076-0.131-0.146-0.177-0.213
						L172.814,125.469z"/>
					<path fill="#3F3B3C" d="M174.396,105.23c0.067,0.047,0.112,0.078,0.176,0.123C174.525,105.277,174.522,105.228,174.396,105.23z
						"/>
					<path fill="#3F3B3C" d="M173.374,163.045c-0.039,0.018-0.045,0.039-0.041,0.062
						C173.342,163.086,173.352,163.064,173.374,163.045z"/>
					<path fill="#3F3B3C" d="M164.071,215.496c0,0-0.038-0.02-0.066-0.033c0.045,0.043,0.087,0.082,0.138,0.129L164.071,215.496z"/>
					<path fill="#3F3B3C" d="M163.715,215.428c-0.301-0.232,0.139-0.033,0.289,0.035c-0.312-0.289-0.669-0.504-1.057-0.676
						C162.896,214.881,163.594,215.264,163.715,215.428z"/>
					<path fill="#3F3B3C" d="M215.247,194.92l-0.126,0.123C215.177,194.998,215.214,194.959,215.247,194.92z"/>
					<path fill="#3F3B3C" d="M178.773,163.666c0.008,0.16,0.019,0.332,0.025,0.482C178.802,163.902,178.789,163.764,178.773,163.666
						z"/>
					<path fill="#3F3B3C" d="M207.438,199.299l0.001,0.197C207.479,199.391,207.469,199.336,207.438,199.299z"/>
					<path fill="#3F3B3C" d="M172.637,125.152l-0.067-0.125C172.585,125.07,172.608,125.109,172.637,125.152z"/>
					<path fill="#3F3B3C" d="M191.456,115.195c-0.021,0.048-0.012,0.103,0.008,0.154c0.017,0.011,0.028,0.019,0.038,0.022
						L191.456,115.195z"/>
					<path fill="#3F3B3C" d="M219.827,179.615c0.021-0.006,0.043-0.02,0.065-0.041l-0.122-0.318
						C219.782,179.424,219.802,179.541,219.827,179.615z"/>
					<path fill="#3F3B3C" d="M209.818,126.641c0.026-0.008,0.08,0.002,0.095-0.016c-0.292-0.234-1.132-0.732-2.215-1.35
						l-0.172,0.145L209.818,126.641z"/>
					<path fill="#3F3B3C" d="M216.902,145.428l0.425-2.305c0.193,7.396-0.229,10.85,0.111,17.182l-0.092-0.35
						c-0.099,0.922,0.853,1.439-0.309,11.625h-0.043c0.008,0.354,0.092,0.352-0.021,1.057l0.26-1.76
						c0.106,1.055,0.31,1.977,0.337,3.383c-0.047,0.297-0.134,0.4-0.2,0.43l0.069,3.447l-0.272,1.059
						c0.147,1.055,0.726,0.572,0.403,3.393c0.4-1.061,0.24,1.4,0.444,1.051c-0.05,0.145-0.124,0.467-0.192,0.727
						c0.047,1.678,0.159,4.836,0.364,5.617c0,0,0.844-6.562,1.271-8.326c-0.108,2.359,0.049,0.623,0.184,0.156l-0.1-0.156
						c0.098-1.414,0.351-1.414,0.421-2.121c-0.021,0-0.045,0.02-0.07,0.041l0.034,0.09c-0.045,0.066-0.076,0.027-0.102-0.049
						c-0.055,0.018-0.097-0.047-0.082-0.434l0.026,0.074c-0.036-0.592,0.003-1.611,0.021-2.055l0.211-0.01
						c-0.402-1.049,0.612-7.047,0.627-8.455c0.267-1.412-0.065-3.168,0.066-4.934c0.068-2.812,0.309-1.408,0.49-2.818
						c0.133-1.766-0.246,0.355-0.261-0.352l0.294-2.113c0.024,1.229,0.153,0.562,0.234,0.338c0.035-1.828,0.423-4.709,0.002-5.271
						c0.201-2.465,0.37-2.471,0.392-3.529c-0.077,0.355-0.146,1.059-0.231,1.064c0.187-0.988-0.046-0.473-0.088-0.068
						c-0.183-1.506,0.77-7.816,0.307-8.133h0.084c-0.346-0.35-0.68,0.211-0.869-0.84l0.154-0.701l-0.148-1.057
						c0.112-0.709,0.203-0.361,0.246-0.361c-0.139-1.572-0.014-3.176,0.053-6.145c-0.337-0.203-0.668-0.404-0.992-0.602
						c0.246,0.279,0.467,0.543,0.779,0.723c-0.234,0.746-0.469,1.396-0.702,1.951c0.05-0.479,0.109-1.049,0.171-1.645
						c-0.397-0.287-0.812-0.584-1.208-0.867c-0.396-0.275-0.776-0.537-1.111-0.768c-0.61-0.408-1.097-0.682-1.271-0.646
						l-0.758-0.803c-2.754-2.283-2.264-1.002-3.393-1.863l-1.362-1.184l1.522,0.887c-1.438-1.031-1.993-1.482-3.101-2.377
						c-0.002,0.002-0.017-0.004-0.019,0c0.076,0.061,0.122,0.105,0.123,0.131l-0.217-0.117c-0.271,0.043-1.126-0.314-2.195-0.943
						c-1.505-0.926-2.825-1.395-5.085-3.115l-0.783-0.047l-1.728-1.238l0.141-0.242c1.785,1.051,5.217,2.904,7.53,4.223l0.104-0.086
						c-1.368-0.789-2.986-1.58-3.876-2.125c-0.413-0.303-1.396-1.203-0.482-0.895l-0.98-0.25c-4.582-2.605-4.618-2.611-9.226-5.633
						l0.345,0.359c-0.986-0.474-1.97-0.946-2.118-1.296c-2.838-1.689-5.714-3.552-7.396-4.931l-0.57,0.052
						c-0.298-0.182-0.61-0.512-0.914-0.767c-0.083-0.067-0.138-0.114-0.241-0.184c-0.143-0.09-0.28-0.17-0.41-0.233
						c-0.261-0.13-0.489-0.198-0.661-0.163l-2.323-1.172c-1.483-0.885-2.254-1.111-4.021-2.35l0,0
						c-0.006-0.005-0.01-0.008-0.01-0.008c-0.111-0.078-0.229-0.16-0.346-0.244c0.008,0.016,0.023,0.035,0.039,0.055
						c-0.707-0.442-1.118-0.686-1.339-0.801c0.036,1.133,0.283-0.176,0.132,3.006c-0.233,1.14,0.419,1.98,0.344,3.844
						c0,0-0.117,0.44-0.235,0.883c-0.118,0.484-0.236,0.969-0.236,0.969c-0.034,0.478-0.057,0.913-0.068,1.318
						c-0.006,0.165-0.01,0.32-0.014,0.472c0,0.104-0.001,0.204-0.001,0.302c0.007,0.393,0.04,0.741,0.083,1.122
						c0.085,0.762,0.204,1.646,0.204,3.226c-0.168,1.516-0.572,2.25-0.931,1.244c0.435,1.383,0.283,0.629,0.491,2.463
						c-0.18,0.281-0.217,0.086-0.377-0.318c-0.209,1.627,0.161,1.004,0.15,2.232c0.336,0.355,0.87,0.768,0.894,1.166l0.104-0.477
						c0.18,1.299,0.263,2.719,0.095,4.23l-0.169-0.057l0.086,1.607l-0.217,0.102l0.067,2.297l0.058-0.314
						c0.029,0.539,0.104,2.311-0.01,3.322l-0.12-0.037c-0.374,2.855,0.116,5.211,0.156,8.557l-0.245-0.438
						c-0.243,1.139,0.377,0.311,0.256,1.67l-0.302,0.066c0.396,1.195-0.084,1.547-0.233,2.369l0.396-0.385l-0.083,1.551
						c-0.132,1.709-0.498,1.049-0.705,0.799l0.311,1.164l-0.348,0.229c0.405,0.85-0.065,0.85,0.151,2.34
						c-0.132,0.123-0.207-0.254-0.264,0.252l0.491,2.457l-0.218-1.482l0.509,0.182c0.386,1.543-0.056,2.09,0.086,3.191l-0.15-0.758
						c0.123,1.799-0.093,1.895-0.206,2.908c0.096-0.314,0.235-0.795,0.303-0.066c0.014,0.268-0.03,0.34-0.086,0.408
						c-0.027,0.035-0.059,0.068-0.085,0.125c-0.015,0.027-0.025,0.062-0.037,0.104c-0.008,0.012-0.018,0.023-0.027,0.039
						c0.263,0.012,0.43,0.312,0.417,0.631c-0.08,0.041-0.179,0.076-0.281,0.094c-0.033-0.035-0.063-0.072-0.07-0.104
						c-0.025,0.078-0.018,0.176-0.206,0.189c0.008-0.004-0.157-0.344-0.165-0.34c0,0,0.018,0.094,0.01,0.201l-0.003,0.041
						l-0.062,0.072c-0.04,0.049-0.076,0.092-0.108,0.129c-0.064,0.076-0.107,0.129-0.107,0.129
						c-0.629,0.242-1.335,0.967-1.386,0.701l0.29-0.256l-4.42,2.447l-0.212-0.225c-0.226,0.607-2.461,1.236-2.061,1.604
						c-0.966,0.232-3.148,2.049-2.955,1.262c-2.896,1.621-4.169,3.004-7.805,4.773c-1.492,0.289-4.822,2.396-7.091,3.646
						c-4.279,2.709-7.021,4.508-11.42,7.23c-0.706,0.223-1.439,0.561-2.189,0.967c-0.374,0.203-0.753,0.424-1.134,0.654
						c-0.49,0.301-0.989,0.607-1.494,0.918c-2.844,1.738-5.44,3.396-8.132,4.834c0.346,0.225,0.686,0.445,1.024,0.666l1.859,0.758
						c1.323,1.016,3.592,2.297,5.914,3.609c0.357,0.199,0.722,0.402,1.089,0.609c0.338,0.197,0.679,0.396,1.021,0.598
						c0.679,0.408,1.346,0.85,1.969,1.332c0.723,0.277,1.09,0.445,1.248,0.525c-0.116-0.082-0.276-0.234-0.248-0.42
						c0.711,0.551,2.35,1.32,2.064,1.559l-0.215-0.082c-0.287,0.234,2.425,1.211,3.136,1.971l-0.285-0.598l1.431,0.9l-0.427-0.164
						c6.767,2.949,9.046,5.633,15.391,8.422c-0.995-0.104,1.282,0.492,1.139,0.924c1.225,1.354,2.848,1.506,4.155,2.088
						c0.013-0.02,0.039-0.033,0.127-0.021l2.131,1.291c-1.569-0.256,1.785,0.492,0.363,0.225c0.813,0.543,1.678,1.092,2.578,1.646
						c0.506,0.305,1.021,0.615,1.543,0.932c0.797,0.467,1.604,0.939,2.423,1.418c1.497-0.865,3.033-1.754,4.592-2.654
						c1.159-0.684,2.337-1.373,3.516-2.066c2.357-1.385,4.729-2.762,7.041-4.016l-0.358,0.039c1.665-0.93,3.633-2.266,5-2.787
						c1.369-0.523,2.558-1.898,3.031-2.199c1.249-1.008,2.746-1.299,2.145-0.98c1.435-0.906,2.558-2.146,4.705-3.131
						c0.936,0.012,5.325-3.611,5.654-3.182v-0.053c2.799-1.176,4.939-3.154,7.921-4.479c0,0-0.034,0.064-0.11,0.15l4.904-4.711
						l-2.524-0.615l-5.688,1.596l-13.277,8.021l-11.01,5.691c-5.179,3.033-10.357,6.068-15.538,9.057l-0.069-0.025l-0.039-0.014
						l-0.562-0.316l-2.247-1.266l-4.494-2.533l-2.066-0.725c-4.772-3.572-11.754-6.662-17.025-10.289l-0.288,0.234
						c-1.566-0.881-1.354-1.006-1.708-1.281c-2.372-1.346-4.755-2.695-7.14-4.049l-1.792-1.01c-0.41-0.232-0.318-0.176-0.392-0.213
						l-0.145-0.068l-0.637-0.314l0.566-0.381l0.158-0.105l0.081-0.053l0.447-0.264l1.807-1.066c2.409-1.408,4.8-2.805,7.155-4.184
						c4.727-2.736,9.354-5.355,13.819-7.764c1.371-0.523,5.126-2.85,6.232-3.207c2.011-1.406,4.138-2.756,6.293-4.055
						c1.086-0.639,2.17-1.277,3.247-1.912c1.347-0.77,2.684-1.533,4.001-2.287l-0.267,0.199c0.553-0.332,1.104-0.662,1.668-0.986
						l-0.047-2.312c0.028-0.172,0.069-0.189,0.098-0.047c-0.028-0.512-0.059-1.043-0.089-1.6c-0.021-0.367-0.034-0.754-0.04-1.152
						c-0.013-0.799,0-1.654,0.026-2.527c0.075-1.74,0.154-3.57,0.225-5.16l0.038,0.188c0.025-7.592-0.067-14.963-0.154-22.283
						c-0.036-3.66-0.071-7.309-0.107-10.965c-0.007-1.75-0.015-3.503-0.021-5.26c-0.001-0.329,0.005-0.661,0.02-0.959
						c0.26,0.163,0.513,0.33,0.729,0.487c-0.16-0.077,0.861,0.53,1.521,0.933c0.714,0.434,1.43,0.869,2.147,1.308
						c7.137,4.771,16.16,9.068,24.438,14.388c0.366,0.316,1.839,1.223,3.84,2.398c1.005,0.582,2.137,1.238,3.325,1.928
						c0.597,0.342,1.207,0.689,1.822,1.043c0.22,0.125,0.173,0.094,0.173,0.094l0.004-0.002l0.011-0.004
						c0.006,0,0.012,0.002,0.02,0.01c0.009,0.611,0.017,1.213,0.023,1.797c0.021,1.189,0.039,2.307,0.057,3.291
						C216.82,143.582,216.864,145.012,216.902,145.428z"/>
					<path fill="#3F3B3C" d="M217.37,174.689l-0.003-0.076C217.222,174.615,217.277,174.73,217.37,174.689z"/>
					<polygon fill="#3F3B3C" points="220.208,133.125 220.363,133.219 219.905,132.715 					"/>
					<path fill="#3F3B3C" d="M221.505,159.928c0.046-1.182,0.01-1.234-0.049-1.07C221.447,159.285,221.458,159.658,221.505,159.928z
						"/>
					<path fill="#3F3B3C" d="M217.649,184.344c-0.012,0.621,0.076,0.385,0.174,0.021c-0.016-0.635-0.025-1.074-0.025-1.074
						C217.75,183.627,217.697,184,217.649,184.344z"/>
					<path fill="#3F3B3C" d="M219.643,181.811l0.119,0.195C219.732,181.639,219.689,181.654,219.643,181.811z"/>
				</g>
			</g>
		</g>
		<g>
			<g>
				<g>
					<path fill="#3F3B3C" d="M53.639,112.829C53.514,112.886,53.467,112.94,53.639,112.829L53.639,112.829z"/>
					<path fill="#3F3B3C" d="M100.471,181.361c0.037,0.021,0.056,0.029,0.09,0.051c0.101-0.023,0.192-0.039,0.272-0.045
						L100.471,181.361z"/>
					<path fill="#3F3B3C" d="M117.073,192.871c-0.074,0.035-0.123,0.059-0.193,0.092
						C116.968,192.961,117.011,192.984,117.073,192.871z"/>
					<path fill="#3F3B3C" d="M67.467,163.016c0.004-0.043-0.013-0.059-0.034-0.064C67.448,162.967,67.46,162.986,67.467,163.016z"/>
					<path fill="#3F3B3C" d="M26.743,128.768c0,0,0.035-0.023,0.062-0.043c-0.06,0.02-0.114,0.035-0.181,0.057L26.743,128.768z"/>
					<path fill="#3F3B3C" d="M26.98,128.492c0.353-0.145-0.041,0.137-0.176,0.232c0.407-0.125,0.771-0.328,1.114-0.576
						C27.862,128.059,27.182,128.469,26.98,128.492z"/>
					<path fill="#3F3B3C" d="M19.02,183.379l-0.044-0.172C18.987,183.277,19.003,183.33,19.02,183.379z"/>
					<path fill="#3F3B3C" d="M64.573,167.52c-0.143-0.072-0.295-0.15-0.43-0.219C64.356,167.428,64.481,167.486,64.573,167.52z"/>
					<path fill="#3F3B3C" d="M19.126,174.426l-0.17-0.098C19.026,174.416,19.081,174.436,19.126,174.426z"/>
					<path fill="#3F3B3C" d="M100.833,181.367l0.141,0.002C100.931,181.363,100.885,181.363,100.833,181.367z"/>
					<path fill="#3F3B3C" d="M99.944,202.633c-0.031-0.043-0.082-0.061-0.138-0.07c-0.019,0.01-0.03,0.016-0.039,0.021
						L99.944,202.633z"/>
					<path fill="#3F3B3C" d="M29.982,195c-0.005,0.02-0.004,0.047,0.003,0.078l0.336,0.053
						C30.171,195.057,30.061,195.016,29.982,195z"/>
					<path fill="#3F3B3C" d="M80.848,212.799c-0.006,0.027-0.042,0.068-0.034,0.09c0.35-0.137,1.2-0.611,2.276-1.242l-0.039-0.221
						L80.848,212.799z"/>
					<path fill="#3F3B3C" d="M61.04,209.578l1.783,1.521c-6.502-3.535-9.277-5.631-14.93-8.504l0.35,0.098
						c-0.748-0.547-1.674,0.016-9.908-6.086l0.021-0.037c-0.309-0.17-0.35-0.096-0.903-0.547l1.394,1.105
						c-0.966-0.436-1.865-0.723-3.097-1.4c-0.235-0.189-0.28-0.316-0.271-0.391l-3.021-1.664l-0.777-0.766
						c-0.986-0.4-0.859,0.34-3.141-1.35c0.721,0.879-1.332-0.492-1.131-0.143c-0.1-0.113-0.342-0.34-0.533-0.529
						c-1.475-0.799-4.264-2.281-5.043-2.494c0,0,5.257,4.014,6.57,5.268c-1.99-1.275-0.563-0.27-0.229,0.082l0.186-0.008
						c1.176,0.791,1.049,1.01,1.625,1.426c0.01-0.02,0.004-0.051,0-0.082l-0.095-0.018c-0.036-0.07,0.015-0.078,0.092-0.061
						c0.013-0.057,0.091-0.061,0.416,0.145l-0.077-0.014c0.53,0.264,1.394,0.809,1.77,1.047l-0.098,0.188
						c1.107,0.176,5.791,4.059,7.004,4.773c1.09,0.938,2.774,1.527,4.235,2.527c2.401,1.467,1.064,0.971,2.195,1.836
						c1.461,0.998-0.187-0.393,0.435-0.051l1.683,1.312c-1.076-0.594-0.562-0.148-0.409,0.033c1.564,0.945,3.863,2.723,4.561,2.641
						c2.033,1.408,1.955,1.559,2.858,2.104c-0.269-0.244-0.841-0.654-0.804-0.732c0.762,0.656,0.432,0.197,0.103-0.041
						c1.396,0.596,6.382,4.576,6.888,4.334l-0.043,0.074c0.476-0.123,0.156-0.693,1.162-0.334l0.53,0.486l0.989,0.398
						c0.558,0.451,0.21,0.357,0.189,0.395c1.414,0.658,2.734,1.562,5.25,3.094c0.364-0.199,0.723-0.396,1.074-0.59
						c-0.387,0.078-0.744,0.141-1.074,0.332c-0.509-0.561-0.938-1.074-1.291-1.543c0.377,0.273,0.823,0.598,1.291,0.938
						c0.45-0.201,0.918-0.412,1.368-0.613c0.44-0.209,0.861-0.408,1.232-0.584c0.669-0.328,1.155-0.615,1.216-0.785l1.072-0.256
						c3.355-1.24,2.002-1.457,3.312-2.004l1.706-0.588l-1.528,0.875c1.612-0.729,2.279-0.984,3.609-1.492
						c-0.002-0.004,0.01-0.014,0.01-0.018c-0.092,0.037-0.154,0.055-0.176,0.043l0.209-0.131c0.1-0.256,0.837-0.816,1.918-1.428
						c1.553-0.84,2.619-1.75,5.24-2.842l0.434-0.656l1.936-0.875l0.14,0.242c-1.802,1.02-5.125,3.061-7.423,4.404l0.023,0.137
						c1.367-0.791,2.86-1.797,3.777-2.293c0.469-0.207,1.741-0.605,1.018,0.029l0.709-0.725c4.548-2.662,4.57-2.689,9.492-5.166
						l-0.484,0.117c0.904-0.617,1.805-1.23,2.182-1.186c2.883-1.609,5.934-3.168,7.969-3.934l0.24-0.521
						c0.307-0.164,0.749-0.271,1.122-0.406c0.093-0.033,0.183-0.07,0.265-0.109c0.102-0.051,0.273-0.148,0.385-0.223
						c0.242-0.162,0.417-0.326,0.474-0.492l2.179-1.426c1.51-0.844,2.094-1.396,4.047-2.309l0,0
						c0.006-0.002,0.012-0.004,0.012-0.004c0.123-0.057,0.252-0.117,0.383-0.176c-0.018-0.002-0.042,0.002-0.066,0.006
						c0.834-0.441,1.256-0.684,1.441-0.807c-0.84-0.432,0.011,0.32-2.576-1.34c-0.865-0.771-1.93-0.633-3.505-1.627
						c0,0-0.321-0.322-0.644-0.646c-0.357-0.342-0.715-0.686-0.715-0.686c-1.834-1.217-2.054-1.283-2.826-1.631
						c-0.7-0.309-1.524-0.646-2.894-1.436c-1.229-0.904-1.663-1.621-0.612-1.428c-1.414-0.316-0.687-0.07-2.377-0.807
						c-0.156-0.297,0.032-0.23,0.463-0.168c-1.306-0.994-0.951-0.361-2.008-0.984c-0.477,0.111-1.1,0.371-1.455,0.189l0.358,0.328
						c-1.215-0.494-2.485-1.131-3.711-2.033l0.133-0.117l-1.437-0.73l0.021-0.236l-2.021-1.09l0.244,0.207
						c-0.481-0.244-2.053-1.064-2.873-1.67l0.093-0.084c-2.286-1.752-4.57-2.506-7.487-4.143l0.503,0.006
						c-0.864-0.779-0.459,0.172-1.573-0.613l0.092-0.295c-1.233-0.254-1.297-0.846-1.936-1.387l0.137,0.533l-1.303-0.848
						c-1.414-0.967-0.658-0.955-0.339-1.01l-1.163-0.312l-0.023-0.414c-0.938-0.074-0.703-0.48-2.103-1.039
						c-0.041-0.174,0.323-0.051-0.087-0.354l-2.373-0.803l1.393,0.553l-0.412,0.35c-1.528-0.438-1.781-1.092-2.808-1.52l0.733,0.248
						c-1.62-0.791-1.596-1.027-2.417-1.633c0.226,0.238,0.571,0.602-0.093,0.295c-0.477-0.242-0.162-0.299-0.57-0.602
						c-0.161,0.07-0.217,0.17-0.385,0.158c-0.146-0.002-0.321-0.064-0.445-0.162c0.009-0.07,0.025-0.146,0.052-0.219
						c0.048-0.016,0.095-0.025,0.125-0.018c-0.055-0.059-0.142-0.094-0.062-0.271c0,0.01,0.377,0.014,0.377,0.004
						c0,0-0.357-0.105-0.357-0.35c0.104-0.666-0.17-1.639,0.084-1.553l0.075,0.381l0.091-5.053l0.301-0.068
						c-0.414-0.5,0.158-2.752-0.359-2.586c0.281-0.953-0.199-3.752,0.384-3.189c0.045-3.318-0.517-5.111-0.231-9.146
						c0.496-1.438,0.334-5.373,0.387-7.963c-0.207-5.061-0.394-8.33-0.553-13.504c0.162-0.727,0.235-1.537,0.258-2.395
						c0.011-0.43,0.009-0.87,0-1.319c-0.017-0.567-0.032-1.147-0.049-1.733c-0.084-3.356-0.224-6.451-0.115-9.522
						c-0.334,0.168-0.66,0.334-0.988,0.5l-1.591,1.233c-1.538,0.635-3.783,1.959-6.081,3.312c-0.366,0.217-0.739,0.438-1.116,0.661
						c-0.339,0.193-0.683,0.389-1.026,0.585c-0.695,0.382-1.41,0.74-2.14,1.037c-0.603,0.486-0.933,0.72-1.08,0.817
						c0.129-0.061,0.341-0.122,0.487-0.006c-0.833,0.34-2.319,1.373-2.383,1.008l0.179-0.145c-0.06-0.368-2.263,1.492-3.274,1.729
						l0.658,0.051l-1.494,0.789l0.355-0.288c-5.94,4.381-9.403,5.012-14.992,9.106c0.588-0.809-1.068,0.865-1.37,0.523
						c-1.784,0.383-2.728,1.713-3.887,2.553c0.011,0.021,0.009,0.051-0.045,0.121l-2.185,1.197c1.008-1.23-1.32,1.301-0.375,0.203
						c-0.875,0.432-1.779,0.9-2.707,1.4c-0.518,0.287-1.043,0.576-1.578,0.871c-0.799,0.453-1.609,0.914-2.432,1.381
						c0.002,1.73,0.004,3.508,0.008,5.311c0.01,1.348,0.022,2.715,0.033,4.084c0.021,2.738,0.03,5.486-0.038,8.117l0.146-0.328
						c-0.028,1.904,0.147,4.275-0.084,5.723c-0.229,1.445,0.369,3.162,0.392,3.725c0.25,1.584-0.246,3.025-0.222,2.346
						c0.07,1.695,0.584,3.289,0.363,5.641c-0.478,0.805,0.467,6.416-0.069,6.486l0.045,0.025c-0.378,3.014,0.265,5.855-0.077,9.1
						c0,0-0.04-0.062-0.076-0.172l1.631,6.602l1.795-1.881l1.459-5.723l-0.316-15.508l0.57-12.379
						c-0.043-6.01-0.084-12.02-0.084-18.006l0.057-0.047l0.031-0.027l0.547-0.322l2.215-1.309l4.431-2.617l1.661-1.426
						c5.48-2.344,11.65-6.84,17.428-9.588l-0.061-0.369c1.546-0.914,1.549-0.666,1.964-0.836c2.341-1.375,4.694-2.755,7.049-4.137
						l1.763-1.041c0.41-0.239,0.281-0.17,0.365-0.223l0.131-0.09l0.586-0.393l0.047,0.683l0.012,0.189l0.006,0.104l0.005,0.526
						l0.021,2.102c0.016,2.796,0.031,5.568,0.046,8.306c0.008,5.473-0.037,10.799-0.187,15.879
						c-0.229,1.451-0.095,5.863-0.338,7.002c0.213,2.443,0.319,4.959,0.365,7.477c0.011,1.26,0.021,2.518,0.031,3.768
						c-0.006,1.611-0.012,3.211-0.02,4.787l-0.037-0.328c0.008,0.514,0.016,1.027,0.016,1.545l2.369,1.309
						c0.137,0.113,0.133,0.158-0.002,0.111c0.406,0.203,0.83,0.412,1.271,0.631c0.329,0.166,0.669,0.348,1.019,0.541
						c0.698,0.391,1.434,0.828,2.176,1.287c1.47,0.938,3.014,1.918,4.355,2.773l-0.181-0.061
						c6.554,3.812,12.975,7.412,19.349,10.992c3.184,1.797,6.357,3.586,9.537,5.381c1.514,0.865,3.03,1.732,4.55,2.604
						c0.285,0.162,0.57,0.334,0.821,0.492c-0.273,0.145-0.546,0.281-0.793,0.393c0.152-0.105-0.934,0.506-1.598,0.867
						c-0.736,0.402-1.477,0.807-2.219,1.213c-7.701,3.789-15.937,9.449-24.684,13.953c-0.458,0.158-1.988,0.982-4.018,2.133
						c-1.01,0.58-2.149,1.232-3.346,1.92c-0.596,0.348-1.205,0.703-1.82,1.062l-0.174,0.104l0,0v0.006l-0.002,0.012
						c-0.003,0.004-0.009,0.01-0.018,0.012c-0.529-0.297-1.049-0.588-1.555-0.871c-1.035-0.574-2.008-1.115-2.862-1.59
						C62.672,210.426,61.417,209.752,61.04,209.578z"/>
					<path fill="#3F3B3C" d="M35.478,195.338l0.066,0.037C35.614,195.246,35.489,195.236,35.478,195.338z"/>
					<path fill="#3F3B3C" d="M70.053,218.539c-0.056,0.029-0.106,0.059-0.159,0.088l0.667-0.146L70.053,218.539z"/>
					<path fill="#3F3B3C" d="M46.185,206.305c1,0.631,1.064,0.629,0.951,0.494C46.77,206.578,46.44,206.4,46.185,206.305z"/>
					<path fill="#3F3B3C" d="M26.979,190.748c-0.531-0.32-0.371-0.127-0.104,0.141c0.556,0.303,0.941,0.516,0.941,0.516
						C27.551,191.193,27.255,190.963,26.979,190.748z"/>
					<path fill="#3F3B3C" d="M28.175,193.742l-0.229,0.006C28.278,193.904,28.286,193.859,28.175,193.742z"/>
				</g>
			</g>
		</g>
		<g>
			<g>
				<g>
					<path fill="#3F3B3C" d="M155.77,34.853C155.657,34.773,155.587,34.759,155.77,34.853L155.77,34.853z"/>
					<path fill="#3F3B3C" d="M133.101,79.258c-0.037-0.021-0.055-0.03-0.091-0.05c-0.102,0.023-0.191,0.04-0.273,0.046
						L133.101,79.258z"/>
					<path fill="#3F3B3C" d="M120.368,71.568l-0.022-0.008C120.356,71.603,120.36,71.648,120.368,71.568z"/>
					<path fill="#3F3B3C" d="M170.835,99.73c0.004-0.248-0.013-0.414-0.034-0.551C170.815,99.347,170.829,99.519,170.835,99.73z"/>
					<path fill="#3F3B3C" d="M128.515,19.568c0,0,0.039,0.019,0.068,0.031c-0.046-0.042-0.088-0.082-0.14-0.128L128.515,19.568z"/>
					<path fill="#3F3B3C" d="M128.872,19.635c0.3,0.231-0.141,0.034-0.289-0.036c0.312,0.29,0.668,0.504,1.055,0.676
						C129.689,20.18,128.993,19.797,128.872,19.635z"/>
					<path fill="#3F3B3C" d="M77.368,40.167l0.127-0.123C77.438,40.088,77.401,40.128,77.368,40.167z"/>
					<path fill="#3F3B3C" d="M165.361,90.984c0.004-0.01,0.013-0.011,0.014-0.022C165.356,90.947,165.356,90.962,165.361,90.984z"/>
					<path fill="#3F3B3C" d="M85.173,35.79l-0.001-0.197C85.133,35.697,85.143,35.754,85.173,35.79z"/>
					<path fill="#3F3B3C" d="M132.736,79.254l-0.14-0.003C132.641,79.258,132.687,79.257,132.736,79.254z"/>
					<path fill="#3F3B3C" d="M107.485,78.869c-0.031-0.043-0.082-0.062-0.138-0.071c-0.017,0.009-0.03,0.017-0.039,0.021
						L107.485,78.869z"/>
					<path fill="#3F3B3C" d="M72.792,55.461c-0.021,0.006-0.043,0.021-0.066,0.042l0.122,0.316
						C72.837,55.654,72.817,55.538,72.792,55.461z"/>
					<path fill="#3F3B3C" d="M88.394,89.021c-0.006,0.025-0.042,0.067-0.033,0.088c0.348-0.136,1.198-0.611,2.275-1.239l-0.039-0.22
						L88.394,89.021z"/>
					<path fill="#3F3B3C" d="M75.717,89.629c0,0-0.026,0.144-0.065,0.36c-0.011,0.054-0.021,0.111-0.033,0.174l-0.018,0.089
						l-0.018,0.011c-0.025,0.016-0.051,0.036-0.078,0.059c-0.105,0.091-0.211,0.262-0.211,0.262c-0.01-0.09-0.021-0.178-0.03-0.262
						l-0.005-0.066l-0.004-0.305c-0.002-0.209-0.006-0.416-0.008-0.619c0-0.814-0.002-1.58-0.004-2.312
						c0.018-1.461,0.035-2.783,0.051-4.072c0.039-2.578,0.06-5.022-0.111-8.188l0.092,0.352c0.098-0.922-0.853-1.441,0.309-11.619
						h0.043c-0.008-0.354-0.092-0.352,0.021-1.057l-0.259,1.76c-0.105-1.055-0.309-1.977-0.337-3.381
						c0.047-0.298,0.134-0.399,0.2-0.43l-0.069-3.445l0.272-1.057c-0.147-1.054-0.726-0.572-0.403-3.391
						c-0.4,1.062-0.24-1.398-0.444-1.051c0.049-0.143,0.124-0.465,0.192-0.725c-0.046-1.675-0.159-4.832-0.364-5.613
						c0,0-0.844,6.557-1.271,8.321c0.108-2.358-0.049-0.623-0.184-0.157l0.1,0.157c-0.098,1.414-0.351,1.414-0.42,2.12
						c0.021,0,0.045-0.021,0.069-0.042l-0.034-0.09c0.045-0.067,0.076-0.027,0.102,0.048c0.054-0.018,0.096,0.048,0.082,0.434
						l-0.027-0.074c0.037,0.59-0.003,1.609-0.021,2.054l-0.211,0.008c0.402,1.048-0.613,7.042-0.627,8.45
						c-0.267,1.412,0.066,3.166-0.066,4.93c-0.068,2.812-0.309,1.407-0.49,2.818c-0.133,1.763,0.246-0.357,0.262,0.351l-0.295,2.112
						c-0.025-1.229-0.152-0.562-0.234-0.337c-0.035,1.825-0.422,4.706-0.002,5.267c-0.201,2.465-0.371,2.471-0.392,3.526
						c0.077-0.354,0.147-1.056,0.231-1.062c-0.186,0.986,0.047,0.471,0.088,0.066c0.091,0.753-0.102,2.706-0.258,4.51
						c-0.157,1.371-0.279,4.626-0.049,4.637l-0.084,0.047c0.346,0.308,0.68-0.644,0.871,0.608l-0.154,1.073l0.147,1.23
						c-0.112,1.088-0.204,0.773-0.245,0.825c0.027,0.378,0.045,0.793,0.053,1.249c1.89-1.139,4.105-2.26,6.238-3.445
						c0,0-0.762,0.168-1.375,0.25c-0.627,0.09-1.105,0.096-1.105,0.096c0.437-0.188,0.965-0.417,1.512-0.653
						c0.579-0.263,1.178-0.534,1.721-0.78c0.965-0.442,1.744-0.853,1.82-1.07l1.073-0.254c3.354-1.239,2.001-1.457,3.311-2.002
						l1.705-0.586l-1.528,0.875c1.612-0.729,2.279-0.984,3.608-1.492c-0.002-0.004,0.011-0.014,0.009-0.017
						c-0.091,0.036-0.152,0.054-0.175,0.042l0.209-0.13c0.099-0.255,0.836-0.815,1.917-1.427c1.551-0.838,2.619-1.747,5.239-2.837
						l0.433-0.655l1.936-0.874l0.14,0.242c-1.802,1.021-5.124,3.06-7.422,4.399L90.661,88c1.367-0.789,2.86-1.793,3.777-2.289
						c0.469-0.206,1.74-0.604,1.018,0.031l0.707-0.724c4.548-2.657,4.57-2.687,9.49-5.157l-0.483,0.116
						c0.903-0.616,1.805-1.229,2.182-1.183c2.882-1.609,5.933-3.164,7.966-3.928l0.242-0.52c0.613-0.333,1.768-0.423,1.831-0.992
						l1.218-0.869c0.418-0.228,0.73-0.455,1.067-0.672l0.259-0.162l0.137-0.078l0.044-0.021c0.054-0.021,0.116-0.028,0.184-0.013
						l0,0h0.002c0.017,0.004,0.033,0.008,0.049,0.016l-0.008-0.027c0.092-0.019,0.137-0.039,0.166-0.064
						c0.117,0.027-0.06-0.361,0.355,0.053c-0.047,0.108,0.347,0.215,0.606,0.221c0.297,0.027,0.646,0.062,1.15,0.396l0.81,1.014
						c1.753,1.323,2.313,1.098,5.05,2.676c1.229,0.902,1.663,1.619,0.613,1.428c1.413,0.314,0.686,0.068,2.377,0.804
						c0.155,0.295-0.033,0.229-0.464,0.167c1.306,0.994,0.95,0.362,2.008,0.984c0.477-0.113,1.1-0.371,1.456-0.191l-0.359-0.328
						c1.215,0.493,2.486,1.129,3.71,2.03l-0.133,0.118l1.436,0.729l-0.021,0.238l2.021,1.088l-0.244-0.208
						c0.48,0.245,2.052,1.063,2.872,1.667l-0.093,0.085c2.285,1.75,4.569,2.501,7.485,4.138l-0.503-0.008
						c0.864,0.78,0.459-0.171,1.573,0.613l-0.091,0.294c1.231,0.254,1.296,0.845,1.935,1.386l-0.137-0.535l1.302,0.848
						c1.414,0.966,0.659,0.955,0.339,1.009l1.163,0.312l0.022,0.414c0.938,0.074,0.704,0.481,2.102,1.037
						c0.041,0.176-0.323,0.053,0.087,0.354l2.373,0.801l-1.392-0.551l0.41-0.351c0.765,0.217,1.21,0.49,1.593,0.762l0.277,0.203
						l0.477,0.311c0.333,0.209,0.691,0.417,1.104,0.615l-1.178-0.506c2.729,1.432,2.822,1.736,4.454,2.807
						c-0.531-0.415-1.264-1-0.2-0.463c0.782,0.418,0.494,0.49,1.301,1.021c0.028-0.295,1.122,0.14,2.466,0.941
						c0.006-0.379,0.023-0.75,0.057-1.1c0.049,0.099,0.096,0.211,0.126,0.39c-0.055-0.601-0.143-0.972-0.061-1.742l0.376,1.029
						l-0.358-2.187c0.104-1.058-0.17-2.897,0.084-2.587l0.076,0.708l0.091-6.824l0.301-0.069c-0.414-0.499,0.158-2.75-0.358-2.584
						c0.28-0.953-0.2-3.75,0.384-3.189c0.045-3.317-0.518-5.108-0.232-9.14c0.496-1.436,0.335-5.371,0.389-7.958
						c-0.207-5.06-0.395-8.328-0.554-13.498c0.189-0.853,0.258-1.821,0.265-2.847c-0.002-0.256-0.004-0.516-0.007-0.778
						c-0.007-0.351-0.015-0.704-0.021-1.062c-0.024-0.957-0.05-1.93-0.075-2.901c-1.249-0.679-2.492-1.356-3.681-2.002
						c-0.747-0.417-1.449-0.845-2.061-1.3l-0.932-0.219c-1.707-1.49-4.917-2.724-7.407-4.652c-0.723-0.277-1.089-0.444-1.248-0.524
						c0.116,0.082,0.276,0.235,0.248,0.419c-0.71-0.551-2.349-1.318-2.062-1.556l0.214,0.082c0.288-0.236-2.424-1.209-3.135-1.968
						l0.285,0.596l-1.431-0.898l0.428,0.164c-6.766-2.943-9.044-5.625-15.386-8.408c0.994,0.104-1.282-0.494-1.139-0.924
						c-1.225-1.353-2.848-1.502-4.154-2.084c-0.011,0.02-0.039,0.033-0.126,0.021l-2.13-1.289c1.569,0.255-1.785-0.491-0.363-0.225
						c-0.811-0.539-1.669-1.084-2.564-1.637c-0.506-0.305-1.021-0.615-1.54-0.929c-0.793-0.464-1.598-0.935-2.41-1.41
						c-1.498,0.866-3.035,1.755-4.595,2.656c-1.162,0.683-2.34,1.376-3.521,2.069c-2.36,1.387-4.737,2.767-7.051,4.021l0.356-0.039
						c-1.664,0.927-3.629,2.264-4.996,2.785c-1.369,0.523-2.556,1.898-3.029,2.197c-1.248,1.008-2.744,1.299-2.143,0.98
						c-1.433,0.906-2.556,2.146-4.703,3.13c-0.934-0.012-5.321,3.609-5.65,3.179v0.053c-2.797,1.176-4.936,3.152-7.916,4.476
						c0,0,0.034-0.065,0.111-0.151l-4.901,4.709l2.524,0.617l5.683-1.595l13.271-8.017l11.002-5.687
						c5.185-3.038,10.371-6.077,15.556-9.067l0.069,0.024l0.038,0.015l0.555,0.312l2.239,1.261l4.48,2.521l2.064,0.723
						c4.771,3.569,11.751,6.653,17.021,10.275l0.288-0.236c1.566,0.879,1.353,1.006,1.707,1.28c3,1.696,6.019,3.403,9.035,5.11
						c1.51,0.849,3.02,1.696,4.525,2.543l2.258,1.267l0.561,0.313l0.103,0.051l0.212,0.105l0.02,0.332l0.017,1.744
						c0.011,1.217,0.021,2.43,0.028,3.639c0.008,2.414,0.015,4.807,0.021,7.17c-0.007,4.725-0.058,9.33-0.188,13.748
						c-0.229,1.449-0.095,5.859-0.338,6.997c0.213,2.442,0.318,4.958,0.365,7.474c0.011,0.896,0.021,1.789,0.031,2.678
						c0,0.211-0.009,0.416-0.02,0.598l-0.038-0.085c0.01,0.065,0.02,0.132,0.02,0.181l-0.149-0.029
						c-0.033-0.053-0.06-0.116-0.067-0.151c-0.029,0.072-0.137,0.056-0.261-0.001c-0.062-0.027-0.129-0.066-0.193-0.109
						l-0.097-0.068l-0.046-0.036l-0.24-0.149c-1.469-0.934-3.013-1.916-4.354-2.77l0.181,0.061
						c-6.562-3.813-12.989-7.412-19.371-10.994c-3.188-1.795-6.363-3.586-9.548-5.379c-1.587-0.908-3.176-1.815-4.768-2.727
						c-2.047-1.188-4.1-2.377-6.16-3.572c-1.177,0.668-2.354,1.34-3.538,2.012c-0.721,0.402-1.444,0.807-2.169,1.211
						c-1.455,0.799-2.918,1.602-4.392,2.41c-7.701,3.783-15.935,9.438-24.68,13.934c-0.58,0.201-2.871,1.466-5.717,3.1
						c-1.266,0.736-2.658,1.547-4.051,2.356c0.002,0.016-0.018,0.051-0.072,0.112c-0.025,0.01-0.055-0.012-0.083-0.049
						c-0.017-0.024-0.032-0.047-0.043-0.062c-0.007,0.061-0.015-0.219-0.021-0.323C75.729,89.807,75.722,89.704,75.717,89.629z"/>
					<path fill="#3F3B3C" d="M75.249,60.385l0.002,0.077C75.397,60.458,75.343,60.344,75.249,60.385z"/>
					<path fill="#3F3B3C" d="M77.768,94.654c-0.055,0.029-0.106,0.059-0.159,0.086l0.692-0.159L77.768,94.654z"/>
					<path fill="#3F3B3C" d="M71.114,75.137c-0.045,1.181-0.011,1.236,0.049,1.07C71.172,75.779,71.161,75.406,71.114,75.137z"/>
					<path fill="#3F3B3C" d="M74.97,50.736c0.012-0.621-0.076-0.383-0.174-0.02c0.016,0.633,0.025,1.073,0.025,1.073
						C74.868,51.454,74.922,51.082,74.97,50.736z"/>
					<path fill="#3F3B3C" d="M72.977,53.269l-0.119-0.195C72.887,53.439,72.93,53.424,72.977,53.269z"/>
				</g>
			</g>
		</g>
		<g>
			<g>
				<g>
					<path fill="#3F3B3C" d="M170.976,117.861C170.988,117.775,170.965,117.732,170.976,117.861L170.976,117.861z"/>
					<path fill="#3F3B3C" d="M148.664,175.045c-0.022,0.014-0.033,0.02-0.057,0.033c-0.006,0.084-0.015,0.16-0.027,0.221
						L148.664,175.045z"/>
					<path fill="#3F3B3C" d="M139.137,180.033c-0.026,0.008-0.042,0.012-0.066,0.018
						C139.096,180.084,139.105,180.127,139.137,180.033z"/>
					<path fill="#3F3B3C" d="M170.835,161.17c0.004-0.158-0.013-0.254-0.034-0.33C170.815,160.938,170.829,161.039,170.835,161.17z"
						/>
					<path fill="#3F3B3C" d="M157.737,112.838c0,0,0.022-0.017,0.038-0.029c-0.04,0.007-0.073,0.014-0.121,0.021L157.737,112.838z"
						/>
					<path fill="#3F3B3C" d="M157.865,112.626c0.231-0.074-0.007,0.118-0.09,0.183c0.274-0.048,0.505-0.173,0.713-0.343
						C158.433,112.374,158.007,112.637,157.865,112.626z"/>
					<path fill="#3F3B3C" d="M126.94,130.943l0.071-0.094C126.979,130.883,126.958,130.914,126.94,130.943z"/>
					<path fill="#3F3B3C" d="M165.423,158.502c0-0.01,0.003-0.018,0-0.027C165.409,158.477,165.415,158.488,165.423,158.502z"/>
					<path fill="#3F3B3C" d="M131.879,128.219l-0.032-0.18C131.835,128.129,131.851,128.182,131.879,128.219z"/>
					<path fill="#3F3B3C" d="M148.58,175.299l-0.034,0.096C148.562,175.369,148.571,175.336,148.58,175.299z"/>
					<path fill="#3F3B3C" d="M130.402,184.943c-0.029-0.045-0.084-0.062-0.14-0.07c-0.02,0.01-0.032,0.018-0.042,0.021
						L130.402,184.943z"/>
					<path fill="#3F3B3C" d="M124.478,141.189c-0.021,0.004-0.043,0.014-0.065,0.027l0.121,0.199
						C124.522,141.311,124.503,141.236,124.478,141.189z"/>
					<path fill="#3F3B3C" d="M122.493,177.617c-0.02-0.012-0.037-0.043-0.06-0.047c-0.058,0.232-0.07,0.848-0.062,1.633l0.211,0.049
						L122.493,177.617z"/>
					<path fill="#3F3B3C" d="M127.402,162.723l-0.424,1.453c-0.194-4.66,0.229-6.834-0.112-10.824l0.093,0.223
						c0.099-0.58-0.854-0.908,0.309-7.322h0.043c-0.008-0.223-0.092-0.221,0.021-0.666l-0.261,1.109
						c-0.105-0.664-0.309-1.246-0.337-2.131c0.047-0.188,0.134-0.254,0.201-0.271l-0.07-2.172l0.273-0.664
						c-0.148-0.664-0.726-0.361-0.404-2.139c-0.399,0.67-0.239-0.881-0.443-0.662c0.05-0.09,0.124-0.293,0.191-0.457
						c-0.046-1.057-0.159-3.045-0.364-3.537c0,0-0.844,4.133-1.271,5.244c0.108-1.486-0.049-0.393-0.184-0.1l0.1,0.1
						c-0.098,0.891-0.351,0.891-0.421,1.336c0.021,0,0.045-0.014,0.07-0.025l-0.034-0.057c0.045-0.043,0.076-0.018,0.101,0.029
						c0.055-0.012,0.097,0.029,0.082,0.273l-0.025-0.047c0.035,0.373-0.004,1.014-0.021,1.295l-0.211,0.004
						c0.402,0.662-0.613,4.439-0.627,5.326c-0.268,0.891,0.064,1.996-0.067,3.105c-0.067,1.773-0.308,0.889-0.489,1.777
						c-0.134,1.111,0.245-0.225,0.261,0.221l-0.294,1.33c-0.025-0.771-0.153-0.354-0.234-0.211c-0.036,1.15-0.423,2.965-0.002,3.318
						c-0.202,1.553-0.371,1.557-0.392,2.223c0.076-0.223,0.146-0.666,0.23-0.67c-0.186,0.623,0.046,0.297,0.088,0.043
						c0.184,0.949-0.769,4.924-0.306,5.123h-0.084c0.345,0.221,0.679-0.133,0.869,0.529l-0.154,0.439l0.148,0.666
						c-0.112,0.447-0.203,0.229-0.246,0.229c0.159,1.084-0.03,2.598-0.077,3.91l0.938-1.393c-0.217,1.109-0.656,3.107-0.354,3.328
						l-0.315,0.666c-0.604,2.223,0.263,1.551,0.08,2.439l-0.345,1.115l0.007-1.109c-0.175,1.109-0.287,1.555-0.511,2.438
						c0.003,0,0.006,0.012,0.009,0.012c0.015-0.062,0.03-0.102,0.052-0.109l0.009,0.156c0.172,0.135,0.288,0.713,0.277,1.496
						c-0.002,0.139-0.004,0.271-0.006,0.406l0.012,0.48c0.012,0.381,0.021,0.768,0.032,1.182c0.013,0.836-0.016,1.754-0.197,3.242
						c0,0.014,0.353,0.301,0.353,0.289l-0.21,2.16l-0.279,0.41c0.008-1.018-0.015-2.43-0.041-3.941
						c-0.021-1.43-0.045-2.928-0.062-4.141l-0.128-0.029c0.02,0.678,0.04,1.406,0.059,2.082c0.028,0.771,0.052,1.461,0.038,1.988
						c-0.056,0.51-0.347,2.148-0.536,1.303l0.274,0.791c0.006,1.82,0.011,3.037,0.014,4.004c1.852-1.057,2.828-1.545,6.304-3.305
						l-0.46,0.104c1.011-0.68,1.938-1.307,2.327-1.268l0.795-0.434l0.693-0.355c0.461-0.232,0.918-0.453,1.359-0.654
						c0.887-0.4,1.711-0.725,2.386-0.908l0.091-0.434c0.39-0.203,1.209-0.102,1.164-0.607l0.739-0.596
						c0.533-0.277,0.759-0.625,1.444-0.803l0,0h0.004c0.041-0.01,0.085-0.021,0.131-0.031c-0.005-0.01-0.013-0.014-0.021-0.02
						c1.25-0.555-0.159-0.25,1.284-0.863c0.549-0.045,0.269-0.639,0.963-0.951l0.896,0.029c1.326-0.451,1.293-0.98,3.018-1.977
						c0.912-0.332,1.514-0.213,1.145,0.414c0.537-0.811,0.201-0.441,1.099-1.199c0.242,0.064,0.154,0.16,0.015,0.426
						c0.992-0.33,0.468-0.455,1.143-0.832c0.026-0.402-0.016-0.996,0.19-1.141l-0.312,0.059c0.619-0.562,1.354-1.082,2.262-1.412
						l0.054,0.164l0.835-0.58l0.163,0.154l1.22-0.779l-0.201,0.049c0.28-0.195,1.21-0.814,1.818-1.037l0.04,0.115
						c1.745-0.574,2.785-1.74,4.591-2.826l-0.117,0.352c0.743-0.148-0.019-0.426,0.783-0.748l0.188,0.238
						c0.455-0.719,0.886-0.412,1.408-0.543l-0.406-0.221l0.889-0.416c0.998-0.424,0.82,0.104,0.788,0.359l0.479-0.635l0.299,0.229
						c0.262-0.617,0.495-0.211,1.199-0.867c0.134,0.076-0.033,0.26,0.271,0.148l1.096-1.197l-0.7,0.654l-0.154-0.498
						c0.647-0.82,1.168-0.609,1.697-1.08l-0.339,0.371c0.46-0.338,0.73-0.467,0.962-0.539c0.244-0.08,0.349-0.045,0.94-0.322
						c-0.369,0.105-0.883,0.238-0.237-0.211c0.482-0.311,0.378-0.01,0.907-0.25c-0.082-0.266,0.545-0.822,1.399-1.287
						c0.006-0.242,0.023-0.486,0.057-0.723c0.049,0.037,0.096,0.084,0.126,0.182c-0.055-0.35-0.143-0.539-0.061-1.066l0.376,0.455
						l-0.358-1.193c0.026-0.174,0.028-0.375,0.021-0.572l-0.017-0.291c-0.007-0.057-0.013-0.111-0.02-0.162
						c-0.023-0.197-0.028-0.338,0.099-0.311l0.076,0.238l0.091-3.182l0.301-0.045c-0.414-0.314,0.158-1.732-0.358-1.629
						c0.28-0.6-0.2-2.361,0.384-2.01c0.045-2.09-0.518-3.219-0.232-5.76c0.496-0.904,0.335-3.387,0.389-5.016
						c-0.207-3.188-0.395-5.25-0.554-8.508c0.691-1.959-0.237-4.889,0.152-6.996l-0.274-0.578c0.438-1.402-0.098-3.543,0.329-5.51
						c-0.12-0.48-0.158-0.734-0.168-0.846c-0.014,0.09-0.064,0.225-0.24,0.268c0.123-0.563-0.029-1.698,0.317-1.617l0.036,0.144
						c0.174,0.041,0.134-0.386,0.087-0.899c-0.023-0.281-0.048-0.484-0.048-0.844c0-0.461,0.023-0.876,0.1-1.182
						c0,0-0.093,0.174-0.187,0.348c-0.093,0.163-0.188,0.326-0.188,0.326l0.063-1.866l0.07,0.474
						c-0.334-3.144-0.341-5.356-0.278-7.778c-1.412,0.763-2.773,1.453-4.306,2.318c-0.762,0.432-1.561,0.902-2.391,1.427
						c-0.399,0.263-0.818,0.534-1.262,0.824l-0.32,0.218c-0.108,0.075-0.223,0.153-0.267,0.191c-0.12,0.099-0.245,0.199-0.374,0.305
						c0.296-0.641-0.634,0.612-0.905,0.255c-1.228,0.062-1.695,1.117-2.398,1.695c0.012,0.02,0.016,0.047-0.013,0.103l-1.386,0.736
						c0.53-0.955-0.745,0.969-0.239,0.124c-3.753,1.679-8.162,4.716-12.358,6.912l0.252,0.021c-1.055,0.576-2.261,1.475-3.165,1.729
						c-0.904,0.256-1.542,1.314-1.837,1.512c-0.74,0.715-1.774,0.738-1.392,0.547c-0.891,0.594-1.503,1.539-2.896,2.09
						c-0.678-0.16-3.269,2.424-3.574,1.98l0.009,0.047c-1.833,0.619-3.062,2.072-5.004,2.795c0,0,0.015-0.053,0.057-0.119
						l-2.788,3.49l1.924,0.963l3.851-0.537l8.305-5.152l7.04-3.402l16.343-9.645l0.972-1.027c0.592-0.206,1.188-0.463,1.788-0.755
						l0.45-0.227l0.071-0.019c0.041-0.012,0.078-0.027,0.114-0.047c0.139-0.075,0.317-0.247,0.524-0.392
						c0.021,0.165,0.002,0.479-0.17,0.692l0.349-0.143c0.021,0.228-0.195,0.235-0.256,0.271c0.081,5.23,0.164,10.546,0.245,15.728
						c0.069,5.213,0.075,10.293-0.145,15.031c-0.229,0.912-0.095,3.693-0.338,4.41c0.213,1.539,0.318,3.123,0.365,4.709
						c0.022,0.793,0.032,1.586,0.032,2.373l-0.007,0.945l-0.014,0.188l-0.038-0.033c0.01,0.035,0.02,0.072,0.02,0.104l-0.076,0.1
						c-0.031-0.016-0.063-0.045-0.079-0.066c0.005,0.041-0.006,0.082-0.026,0.117c-0.011,0.02-0.022,0.035-0.039,0.053
						c-0.004,0.01-0.18,0.117-0.265,0.17c-0.43,0.262-0.903,0.521-1.395,0.771c-0.979,0.504-2.025,0.982-2.927,1.43l0.083-0.092
						c-10.167,5.789-19.251,11.777-29.547,17.152c-0.699,0.312-1.4,0.654-2.104,1.021c-0.353,0.188-0.704,0.377-1.06,0.566
						l-0.266,0.146l-0.133,0.074l-0.013,0.004l-0.032,0.016c-0.082,0.043-0.178,0.15-0.343,0.287
						c-0.027-0.061-0.05-0.178-0.039-0.314c0.003-0.031,0.009-0.066,0.016-0.1l0.013-0.047l0.008-0.021l0.009-0.227
						c0.025-0.676,0.062-1.35,0.113-2.023C127.825,176.352,127.565,163.83,127.402,162.723z"/>
					<path fill="#3F3B3C" d="M126.935,144.293l0.002,0.049C127.083,144.338,127.027,144.268,126.935,144.293z"/>
					<polygon fill="#3F3B3C" points="122.922,170.158 122.925,170.076 122.718,170.383 					"/>
					<path fill="#3F3B3C" d="M122.8,153.59c-0.046,0.744-0.01,0.779,0.049,0.674C122.857,153.994,122.847,153.76,122.8,153.59z"/>
					<path fill="#3F3B3C" d="M126.655,138.211c0.013-0.391-0.075-0.242-0.174-0.012c0.017,0.398,0.026,0.676,0.026,0.676
						C126.543,138.656,126.62,138.438,126.655,138.211z"/>
					<path fill="#3F3B3C" d="M124.662,139.807l-0.119-0.121C124.572,139.914,124.615,139.906,124.662,139.807z"/>
				</g>
			</g>
		</g>
		<g>
			<g>
				<g>
					<path fill="#3F3B3C" d="M119.29,143.303C119.305,143.217,119.28,143.174,119.29,143.303L119.29,143.303z"/>
					<path fill="#3F3B3C" d="M93.901,175.943c-0.022-0.014-0.035-0.02-0.058-0.031c-0.076,0.037-0.146,0.066-0.205,0.086
						L93.901,175.943z"/>
					<path fill="#3F3B3C" d="M84.811,170.197c-0.019-0.02-0.03-0.031-0.047-0.051C84.747,170.188,84.715,170.217,84.811,170.197z"/>
					<path fill="#3F3B3C" d="M119.151,189.412c0.004-0.154-0.013-0.27-0.035-0.369C119.132,189.158,119.145,189.275,119.151,189.412
						z"/>
					<path fill="#3F3B3C" d="M108.245,127.24c0,0,0.025,0.01,0.045,0.018c-0.026-0.031-0.049-0.057-0.08-0.094L108.245,127.24z"/>
					<path fill="#3F3B3C" d="M108.493,127.244c0.18,0.164-0.106,0.053-0.203,0.014c0.179,0.213,0.402,0.352,0.654,0.445
						C108.995,127.609,108.554,127.373,108.493,127.244z"/>
					<path fill="#3F3B3C" d="M77.147,109.655l0.115,0.016C77.219,109.659,77.183,109.656,77.147,109.655z"/>
					<path fill="#3F3B3C" d="M113.739,180.504c0-0.012,0.002-0.016,0-0.029C113.726,180.463,113.73,180.48,113.739,180.504z"/>
					<path fill="#3F3B3C" d="M81.979,112.565l0.139-0.117C82.036,112.482,81.997,112.522,81.979,112.565z"/>
					<path fill="#3F3B3C" d="M93.64,175.998l-0.102,0.02C93.569,176.018,93.603,176.01,93.64,175.998z"/>
					<path fill="#3F3B3C" d="M76.265,165.141c0.023-0.047,0.023-0.094,0.02-0.139c-0.011-0.006-0.019-0.012-0.023-0.016
						L76.265,165.141z"/>
					<path fill="#3F3B3C" d="M72.792,115.748c-0.021,0.003-0.043,0.012-0.066,0.025l0.122,0.199
						C72.837,115.869,72.817,115.794,72.792,115.748z"/>
					<path fill="#3F3B3C" d="M70.809,152.176c-0.021-0.012-0.038-0.045-0.06-0.047c-0.058,0.232-0.07,0.848-0.063,1.633l0.21,0.049
						L70.809,152.176z"/>
					<path fill="#3F3B3C" d="M75.717,137.281l-0.423,1.451c-0.195-4.66,0.229-6.834-0.112-10.822l0.092,0.221
						c0.099-0.58-0.853-0.908,0.31-7.322h0.041c-0.006-0.223-0.092-0.221,0.021-0.666l-0.259,1.109
						c-0.106-0.664-0.31-1.244-0.337-2.131c0.047-0.188,0.134-0.252,0.201-0.271l-0.07-2.172l0.273-0.665
						c-0.148-0.664-0.727-0.36-0.404-2.138c-0.4,0.67-0.24-0.881-0.444-0.662c0.05-0.09,0.124-0.293,0.192-0.457
						c-0.047-1.056-0.159-3.045-0.364-3.537c0,0-0.844,4.133-1.272,5.244c0.109-1.487-0.049-0.393-0.183-0.099l0.101,0.099
						c-0.099,0.891-0.352,0.891-0.422,1.336c0.021,0,0.045-0.014,0.07-0.025l-0.033-0.057c0.043-0.043,0.075-0.018,0.1,0.03
						c0.055-0.012,0.097,0.03,0.082,0.271l-0.026-0.047c0.037,0.373-0.003,1.016-0.021,1.295l-0.211,0.006
						c0.401,0.66-0.615,4.439-0.627,5.326c-0.268,0.891,0.065,1.994-0.067,3.105c-0.068,1.771-0.308,0.887-0.49,1.775
						c-0.133,1.111,0.246-0.225,0.261,0.223l-0.294,1.332c-0.024-0.775-0.153-0.355-0.233-0.213
						c-0.036,1.15-0.424,2.965-0.002,3.318c-0.203,1.553-0.371,1.557-0.393,2.223c0.077-0.225,0.146-0.666,0.232-0.67
						c-0.187,0.621,0.046,0.299,0.087,0.043c0.183,0.949-0.769,4.924-0.306,5.123h-0.084c0.344,0.221,0.678-0.135,0.869,0.527
						l-0.154,0.443l0.148,0.664c-0.111,0.447-0.203,0.229-0.246,0.229c0.159,1.084-0.031,2.598-0.076,3.91l0.938-1.391
						c-0.217,1.107-0.658,3.105-0.354,3.328l-0.316,0.664c-0.604,2.223,0.262,1.553,0.08,2.438l-0.344,1.115l0.006-1.109
						c-0.174,1.109-0.287,1.555-0.512,2.439c0.004,0,0.006,0.01,0.01,0.01c0.014-0.062,0.031-0.1,0.051-0.107l0.008,0.154
						c0.172,0.135,0.289,0.713,0.277,1.496c-0.047,1.111,0.205,1.979-0.158,3.754l0.352,0.441c0,0.002-0.053,0.291-0.104,0.822
						c-0.052,0.49-0.104,0.98-0.104,0.98l-0.279,0.086c-0.002-0.482-0.006-1.07-0.008-1.721c-0.01-0.439-0.021-0.922-0.033-1.416
						c-0.021-0.986-0.045-2.021-0.063-2.857l-0.127-0.031c0,0.996,0.124,2.127,0.097,2.783c-0.057,0.32-0.348,1.143-0.537,0.547
						l0.274,0.613c0.006,1.68,0.011,2.803,0.015,3.695c0.916,0.533,1.635,0.971,2.545,1.547c0.275,0.17,0.33,0.217,0.504,0.334
						c0.148,0.104,0.308,0.213,0.48,0.332c0.344,0.242,0.739,0.52,1.215,0.854l-0.189-0.27c0.637,0.27,1.271,0.543,1.322,0.836
						c1.778,1.08,3.558,2.309,4.551,3.291l0.42-0.139c0.371,0.234,0.693,0.994,1.109,0.701l0.887,0.344
						c0.507,0.32,0.92,0.342,1.418,0.848l0,0l0.002,0.004c0.029,0.031,0.06,0.062,0.093,0.098c0.005-0.01,0.006-0.018,0.007-0.027
						c1.104,0.805,0.137-0.264,1.389,0.68c0.315,0.453,0.688-0.088,1.308,0.357l0.423,0.789c1.055,0.922,1.496,0.629,3.221,1.619
						c0.744,0.625,0.942,1.205,0.215,1.199c0.971,0.061,0.484-0.047,1.588,0.35c0.065,0.242-0.061,0.215-0.361,0.227
						c0.783,0.693,0.628,0.176,1.293,0.572c0.363-0.18,0.854-0.514,1.083-0.406l-0.207-0.24c0.799,0.252,1.614,0.627,2.356,1.248
						l-0.115,0.129l0.92,0.434l-0.053,0.219l1.287,0.664l-0.144-0.15c0.31,0.146,1.312,0.639,1.808,1.057l-0.08,0.092
						c1.373,1.223,2.901,1.539,4.748,2.557l-0.363,0.074c0.5,0.57,0.359-0.229,1.039,0.305l-0.112,0.281
						c0.851,0.033,0.802,0.561,1.176,0.947l-0.013-0.461l0.805,0.559c0.867,0.652,0.323,0.762,0.083,0.863l0.79,0.096l-0.05,0.373
						c0.666-0.082,0.431,0.324,1.353,0.605c0.002,0.074-0.06,0.102-0.089,0.133c-0.015,0.016-0.022,0.033-0.01,0.061
						c0.01,0.025,0.028,0.053,0.174,0.152c0,0,0.688,0.256,1.378,0.512c0.641,0.229,1.281,0.455,1.281,0.455l-1.531-0.631
						l0.332-0.396c0.774,0.225,1.223,0.498,1.656,0.801c0.426,0.297,0.827,0.613,1.324,0.818l-0.688-0.223
						c1.674,0.824,1.813,1.152,2.883,1.9c-0.369-0.322-0.883-0.781-0.238-0.486c0.484,0.246,0.378,0.426,0.908,0.795
						c-0.082-0.359,0.545-0.193,1.399,0.328c0.006-0.236,0.024-0.457,0.058-0.656c0.047,0.094,0.095,0.193,0.125,0.326
						c-0.056-0.414-0.143-0.703-0.062-1.137l0.377,0.889l-0.358-1.607c0.104-0.6-0.17-1.936,0.084-1.574l0.076,0.492l0.09-5.549
						l0.302-0.041c-0.104-0.16-0.146-0.432-0.158-0.75c-0.013-0.203,0.004-0.387,0.017-0.584c0.026-0.381,0.04-0.709-0.219-0.656
						c0.282-0.6-0.199-2.363,0.384-2.01c0.045-2.09-0.517-3.221-0.231-5.762c0.496-0.904,0.335-3.385,0.388-5.016
						c-0.208-3.188-0.394-5.248-0.553-8.506c0.691-1.961-0.238-4.889,0.153-6.998l-0.275-0.576c0.438-1.402-0.098-3.543,0.329-5.51
						c-0.12-0.482-0.158-0.734-0.168-0.848c-0.013,0.09-0.065,0.227-0.239,0.27c0.123-0.562-0.031-1.699,0.316-1.617l0.037,0.143
						c0.348,0.082-0.164-1.705,0.139-2.33l-0.373,0.344l0.062-1.064l0.072,0.285c-0.167-0.932-0.252-1.762-0.288-2.525
						c-0.006-0.275-0.012-0.545-0.018-0.807c-0.001-0.309-0.003-0.611-0.003-0.908c0.011-0.602,0.021-1.184,0.029-1.758
						c-3.363-2.045-4.138-2.768-6.738-3.746c0.701-0.064-0.848-0.242-0.676-0.656c-0.668-1.029-1.815-0.906-2.668-1.227
						c-0.011,0.02-0.033,0.035-0.095,0.039l-1.332-0.828c1.093-0.021-1.211-0.16-0.228-0.146c-3.332-2.406-8.17-4.701-12.174-7.234
						l0.107,0.229c-1.025-0.623-2.408-1.217-3.081-1.873c-0.674-0.654-1.909-0.677-2.228-0.834c-0.989-0.281-1.529-1.165-1.17-0.93
						c-0.959-0.473-2.086-0.529-3.26-1.46c-0.199-0.667-3.736-1.614-3.505-2.102l-0.036,0.03c-1.455-1.275-3.328-1.611-4.927-2.93
						c0,0,0.054-0.015,0.132-0.012l-4.418-0.665l0.129,2.146l2.396,3.063l8.621,4.605l6.47,4.389l16.535,9.312l1.376,0.326
						c0.951,0.818,2.084,1.549,3.292,2.25c0.609,0.342,1.229,0.688,1.854,1.037l0.191,0.102l0.035,0.014l0.072,0.025l0.148,0.062
						c0.006,0.049,0.008,0.102,0.006,0.154l-0.005,0.08l-0.006,0.039l-0.008,0.244c-0.022,0.717-0.071,1.418-0.157,2.102l0.35,0.082
						c0.021,1.133-0.197,1.057-0.258,1.336c0.078,10.533,0.543,21.379,0.104,30.855c-0.23,0.914-0.096,3.693-0.338,4.41
						c0.105,0.771,0.186,1.551,0.244,2.338l0.073,1.186l0.027,0.59l0.021,0.094c0.047,0.266,0.034,0.559,0.012,0.77l-0.037-0.076
						c0.009,0.047,0.019,0.094,0.019,0.125c-0.022,0.006-0.047,0.01-0.075,0.012c-0.033-0.051-0.064-0.117-0.08-0.156
						c0.018,0.188-0.205,0.062-0.365-0.094c-0.083-0.08-0.155-0.168-0.204-0.244l-0.019-0.027l-0.008-0.014l-0.078-0.055
						l-0.334-0.229c-0.223-0.148-0.438-0.295-0.646-0.434l0.121,0.023c-10.104-5.898-19.84-10.76-29.647-16.979
						c-1.239-0.898-2.592-1.74-4.012-2.562c-0.716-0.402-1.438-0.812-2.175-1.227l-0.537-0.295l-0.049-0.014l-0.11-0.031
						c-0.015-0.07-0.026-0.053-0.034-0.221c-0.001-0.67-0.003-1.342-0.005-2.014c0.011-1.348,0.054-2.699,0.157-4.047
						C76.14,150.91,75.88,138.389,75.717,137.281z"/>
					<path fill="#3F3B3C" d="M75.249,118.852l0.002,0.047C75.397,118.896,75.343,118.824,75.249,118.852z"/>
					<polygon fill="#3F3B3C" points="71.235,144.715 71.239,144.633 71.032,144.941 					"/>
					<path fill="#3F3B3C" d="M71.114,128.148c-0.045,0.744-0.011,0.777,0.049,0.674C71.172,128.553,71.161,128.318,71.114,128.148z"
						/>
					<path fill="#3F3B3C" d="M74.97,112.769c0.012-0.392-0.076-0.241-0.174-0.013c0.016,0.399,0.025,0.677,0.025,0.677
						C74.857,113.213,74.935,112.995,74.97,112.769z"/>
					<path fill="#3F3B3C" d="M72.977,114.365l-0.119-0.122C72.887,114.472,72.93,114.463,72.977,114.365z"/>
				</g>
			</g>
		</g>
		<g>
			<g>
				<g>
					<path fill="#3F3B3C" d="M82.534,96.048C82.454,96.081,82.429,96.123,82.534,96.048L82.534,96.048z"/>
					<path fill="#3F3B3C" d="M143.263,86.771c0.023,0.012,0.035,0.019,0.058,0.03c0.076-0.037,0.146-0.067,0.205-0.085
						L143.263,86.771z"/>
					<path fill="#3F3B3C" d="M152.358,92.519c0.02,0.02,0.03,0.031,0.048,0.049C152.423,92.529,152.455,92.5,152.358,92.519z"/>
					<path fill="#3F3B3C" d="M120.14,74.527c-0.14,0.076-0.215,0.138-0.269,0.193C119.948,74.66,120.029,74.597,120.14,74.527z"/>
					<path fill="#3F3B3C" d="M84.767,110.016c0,0-0.025-0.011-0.043-0.019c0.025,0.031,0.048,0.059,0.079,0.095L84.767,110.016z"/>
					<path fill="#3F3B3C" d="M84.52,110.011c-0.18-0.163,0.106-0.053,0.204-0.014c-0.179-0.213-0.402-0.352-0.654-0.445
						C84.016,109.647,84.458,109.883,84.52,110.011z"/>
					<path fill="#3F3B3C" d="M115.88,127.609l-0.115-0.016C115.809,127.605,115.846,127.609,115.88,127.609z"/>
					<path fill="#3F3B3C" d="M120.537,80.544c-0.01,0.006-0.018,0.007-0.024,0.016C120.521,80.568,120.529,80.56,120.537,80.544z"/>
					<path fill="#3F3B3C" d="M111.046,124.699l-0.139,0.115C110.989,124.781,111.028,124.742,111.046,124.699z"/>
					<path fill="#3F3B3C" d="M143.525,86.716l0.102-0.02C143.595,86.697,143.562,86.706,143.525,86.716z"/>
					<path fill="#3F3B3C" d="M161.008,97.634c-0.022,0.047-0.011,0.104,0.009,0.155c0.018,0.011,0.031,0.019,0.041,0.024
						L161.008,97.634z"/>
					<path fill="#3F3B3C" d="M125.993,124.617c0.014,0.016,0.031,0.029,0.056,0.043l0.112-0.205
						C126.074,124.518,126.021,124.57,125.993,124.617z"/>
					<path fill="#3F3B3C" d="M158.557,108.129c-0.001,0.022-0.02,0.056-0.011,0.075c0.229-0.067,0.77-0.363,1.447-0.762
						l-0.063-0.207L158.557,108.129z"/>
					<path fill="#3F3B3C" d="M143.195,111.322l1.471-0.359c-3.941,2.498-6.038,3.217-9.324,5.506l0.146-0.189
						c-0.552,0.205-0.359,1.192-6.501,3.393l-0.021-0.037c-0.189,0.117-0.146,0.189-0.588,0.314l1.091-0.33
						c-0.522,0.426-0.925,0.891-1.678,1.357c-0.188,0.055-0.286,0.01-0.336-0.039l-1.848,1.146l-0.714,0.096
						c-0.501,0.461,0.05,0.811-1.649,1.418c0.779,0.014-0.645,0.648-0.354,0.715c-0.102,0.002-0.315,0.041-0.491,0.062
						c-0.893,0.568-2.561,1.66-2.884,2.084c0,0,4.003-1.334,5.18-1.52c-1.343,0.648-0.314,0.238,0.007,0.209l0.035-0.137
						c0.821-0.359,0.947-0.141,1.368-0.303c-0.01-0.018-0.034-0.033-0.058-0.049l-0.032,0.059c-0.059-0.018-0.053-0.057-0.022-0.102
						c-0.037-0.043-0.022-0.102,0.194-0.207l-0.026,0.045c0.305-0.217,0.882-0.504,1.133-0.629l0.109,0.182
						c0.371-0.68,4.153-1.688,4.93-2.119c0.903-0.215,1.695-1.055,2.727-1.494c1.57-0.826,0.923-0.176,1.784-0.463
						c1.029-0.439-0.317-0.102,0.062-0.336l1.302-0.41c-0.658,0.408-0.23,0.309-0.067,0.309c1.016-0.543,2.782-1.115,2.879-1.657
						c1.446-0.602,1.534-0.457,2.121-0.771c-0.231,0.045-0.65,0.204-0.696,0.134c0.632-0.15,0.235-0.188-0.006-0.099
						c0.73-0.632,4.65-1.795,4.592-2.295l0.042,0.073c0.021-0.409-0.454-0.521,0.024-1.018l0.46-0.088l0.503-0.462
						c0.443-0.126,0.299,0.063,0.319,0.101c0.859-0.68,2.267-1.271,3.429-1.888l-1.676-0.118c1.068-0.366,3.021-0.983,3.062-1.356
						l0.734-0.059c2.227-0.588,1.214-1.002,2.073-1.288l1.139-0.26l-0.966,0.55c1.05-0.404,1.491-0.529,2.37-0.777
						c-0.002-0.003,0.006-0.01,0.004-0.013c-0.061,0.018-0.104,0.023-0.12,0.01l0.131-0.084c0.031-0.216,0.474-0.607,1.158-0.988
						c0.122-0.068,0.239-0.134,0.354-0.199l0.404-0.246c0.325-0.2,0.655-0.403,1.008-0.619c0.719-0.428,1.528-0.863,2.908-1.449
						c0.012-0.007,0.088-0.457,0.076-0.45l1.978-0.897l0.493,0.039c-0.885,0.5-2.098,1.225-3.396,2.004
						c-1.228,0.731-2.511,1.498-3.55,2.119l0.038,0.125c0.575-0.354,1.193-0.733,1.769-1.086c0.653-0.41,1.239-0.774,1.703-1.025
						c0.47-0.207,2.036-0.773,1.395-0.186l0.551-0.635c1.596-0.927,2.655-1.543,3.498-2.033c-1.82-1.062-2.741-1.668-5.983-3.781
						l0.317,0.347c-1.095-0.536-2.103-1.024-2.263-1.379l-0.793-0.484l-0.656-0.42c-0.433-0.282-0.854-0.567-1.249-0.851
						c-0.792-0.565-1.484-1.118-1.98-1.609l-0.421,0.139c-0.372-0.235-0.693-0.996-1.11-0.703l-0.886-0.344
						c-0.508-0.322-0.921-0.342-1.418-0.848l0,0l-0.003-0.003c-0.029-0.031-0.062-0.063-0.094-0.099
						c-0.005,0.01-0.006,0.019-0.007,0.028c-1.104-0.806-0.137,0.263-1.391-0.68c-0.315-0.452-0.688,0.087-1.308-0.356l-0.424-0.791
						c-1.056-0.922-1.496-0.627-3.222-1.621c-0.744-0.625-0.943-1.205-0.216-1.199c-0.972-0.06-0.484,0.048-1.589-0.35
						c-0.064-0.242,0.061-0.214,0.361-0.226c-0.785-0.694-0.629-0.177-1.294-0.572c-0.361,0.179-0.854,0.513-1.083,0.406
						l0.207,0.241c-0.799-0.254-1.615-0.629-2.355-1.25l0.114-0.129l-0.921-0.432l0.054-0.219l-1.287-0.665l0.143,0.149
						c-0.309-0.146-1.312-0.639-1.809-1.055l0.08-0.092c-1.372-1.225-2.903-1.54-4.749-2.559l0.361-0.074
						c-0.5-0.57-0.358,0.229-1.039-0.305l0.113-0.281c-0.851-0.034-0.803-0.561-1.177-0.948l0.013,0.463l-0.806-0.562
						c-0.867-0.65-0.323-0.76-0.084-0.861l-0.79-0.098l0.05-0.372c-0.666,0.083-0.432-0.324-1.354-0.605
						c-0.001-0.151,0.241-0.099-0.007-0.307l-1.587-0.349l0.918,0.278l-0.353,0.384c-1.035-0.15-1.113-0.705-1.786-0.93l0.489,0.107
						c-0.521-0.229-0.77-0.398-0.947-0.562c-0.194-0.173-0.209-0.275-0.747-0.65c0.275,0.268,0.649,0.646-0.062,0.312
						c-0.512-0.263-0.199-0.321-0.672-0.659c-0.188,0.203-0.985-0.061-1.817-0.568c-0.213,0.117-0.433,0.222-0.653,0.312
						c0.008-0.062,0.025-0.125,0.095-0.198c-0.275,0.223-0.396,0.393-0.895,0.586l0.206-0.555l-0.854,0.907
						c-0.164,0.065-0.34,0.163-0.508,0.269l-0.244,0.159c-0.043,0.033-0.088,0.066-0.127,0.097c-0.16,0.119-0.279,0.192-0.318,0.068
						l0.169-0.186l-2.804,1.512l-0.188-0.239c-0.065,0.517-1.581,0.729-1.231,1.126c-0.662,0.057-1.949,1.354-1.935,0.672
						c-1.834,1.006-2.533,2.057-4.877,3.08c-1.032,0.023-3.101,1.401-4.541,2.172c-2.66,1.772-4.353,2.963-7.099,4.729
						c-2.043,0.38-4.117,2.649-6.141,3.364l-0.363,0.527c-1.433,0.321-3.021,1.854-4.938,2.467
						c-0.356,0.346-0.558,0.504-0.649,0.569c0.084-0.032,0.228-0.056,0.352,0.074c-0.549,0.174-1.456,0.875-1.561,0.532l0.105-0.102
						c-0.051-0.171-0.4,0.077-0.823,0.374c-0.227,0.158-0.407,0.29-0.696,0.457c-0.398,0.23-0.771,0.417-1.071,0.503
						c0,0,0.196-0.005,0.392-0.011c0.188,0,0.375-0.001,0.375-0.001l-1.648,0.877l0.375-0.298c-2.574,1.872-4.498,2.987-6.641,4.149
						c1.36,0.838,2.637,1.668,4.148,2.556c0.753,0.442,1.559,0.896,2.426,1.35c0.426,0.216,0.87,0.439,1.342,0.677
						c0.215,0.104,0.5,0.244,0.664,0.312c0.145,0.055,0.294,0.111,0.449,0.171c-0.702,0.065,0.85,0.242,0.675,0.656
						c0.668,1.032,1.817,0.909,2.67,1.228c0.011-0.019,0.033-0.035,0.095-0.039l1.334,0.829c-1.094,0.021,1.211,0.16,0.228,0.146
						c3.334,2.408,8.173,4.704,12.181,7.237l-0.107-0.229c1.027,0.624,2.408,1.217,3.083,1.874s1.911,0.678,2.228,0.834
						c0.99,0.283,1.53,1.166,1.172,0.93c0.959,0.475,2.086,0.531,3.26,1.463c0.201,0.666,3.736,1.613,3.506,2.104l0.037-0.031
						c1.457,1.275,3.33,1.613,4.929,2.93c0,0-0.054,0.016-0.132,0.014l4.42,0.664l-0.13-2.146l-2.396-3.062l-8.625-4.609
						l-6.473-4.39l-16.543-9.316l-1.376-0.327c-0.475-0.408-0.994-0.794-1.545-1.167l-0.407-0.269l-0.045-0.051
						c-0.03-0.029-0.062-0.053-0.099-0.075c-0.134-0.082-0.371-0.15-0.599-0.257c0.131-0.102,0.415-0.243,0.687-0.2l-0.295-0.232
						c0.187-0.131,0.301,0.052,0.361,0.087c4.497-2.687,9.068-5.418,13.521-8.078c4.481-2.666,8.883-5.211,13.1-7.39
						c0.907-0.257,3.249-1.764,3.992-1.911c1.229-0.953,2.549-1.837,3.898-2.67c0.676-0.417,1.358-0.82,2.041-1.213l0.825-0.469
						l0.17-0.083l-0.011,0.051c0.027-0.026,0.054-0.054,0.081-0.067l0.125,0.016c0.003,0.035-0.007,0.076-0.019,0.102
						c0.033-0.025,0.072-0.035,0.114-0.035c0.021,0,0.043,0.002,0.064,0.008c0.019,0.002,0.192,0.098,0.284,0.146
						c0.441,0.241,0.902,0.521,1.365,0.819c0.928,0.596,1.867,1.262,2.705,1.817l-0.121-0.024
						c10.109,5.902,19.85,10.766,29.662,16.986c0.618,0.449,1.266,0.883,1.936,1.309c0.338,0.209,0.678,0.419,1.02,0.63l0.26,0.155
						l0.114,0.068l0.007,0.006l0.03,0.021c0.077,0.049,0.217,0.077,0.418,0.152c-0.038,0.054-0.129,0.131-0.253,0.19
						c-0.03,0.015-0.062,0.027-0.094,0.037l-0.047,0.013l-0.023,0.004l-0.208,0.11c-0.6,0.317-1.205,0.623-1.815,0.917
						C154.797,104.144,144.073,110.626,143.195,111.322z"/>
					<path fill="#3F3B3C" d="M127.454,120.938l0.041-0.025C127.42,120.785,127.386,120.869,127.454,120.938z"/>
					<polygon fill="#3F3B3C" points="151.877,111.488 151.805,111.525 152.174,111.551 					"/>
					<path fill="#3F3B3C" d="M137.578,119.873c0.668-0.332,0.68-0.381,0.56-0.379C137.9,119.621,137.702,119.748,137.578,119.873z"
						/>
					<path fill="#3F3B3C" d="M122.323,124.219c-0.345,0.186-0.172,0.188,0.076,0.156c0.338-0.213,0.572-0.361,0.572-0.361
						C122.765,124.094,122.536,124.137,122.323,124.219z"/>
					<path fill="#3F3B3C" d="M124.702,125.148l-0.047,0.164C124.84,125.172,124.811,125.139,124.702,125.148z"/>
				</g>
			</g>
		</g>
		<g>
			<g>
				<g>
					<path fill="#3F3B3C" d="M67.534,70.109C67.548,69.794,67.523,69.638,67.534,70.109L67.534,70.109z"/>
					<path fill="#3F3B3C" d="M89.249,210.947c0.084-0.049,0.125-0.072,0.207-0.121c0.115-0.146,0.225-0.279,0.336-0.396
						L89.249,210.947z"/>
					<path fill="#3F3B3C" d="M126.046,196.709c0.075,0.053,0.127,0.088,0.196,0.137C126.247,196.799,126.31,196.785,126.046,196.709
						z"/>
					<path fill="#3F3B3C" d="M15.71,192.721c0.004-0.096-0.012-0.143-0.034-0.18C15.69,192.596,15.704,192.648,15.71,192.721z"/>
					<path fill="#3F3B3C" d="M102.811,21.453c0,0-0.083,0.052-0.146,0.091c0.125-0.058,0.252-0.114,0.386-0.174L102.811,21.453z"/>
					<path fill="#3F3B3C" d="M102.188,21.949c-0.774,0.388,0.157-0.204,0.478-0.405c-0.873,0.394-1.705,0.864-2.521,1.385
						C100.204,23.021,101.778,22.093,102.188,21.949z"/>
					<path fill="#3F3B3C" d="M174,85.336l-0.043-0.392C173.968,85.107,173.983,85.226,174,85.336z"/>
					<path fill="#3F3B3C" d="M14.489,198.359c-0.172-0.09-0.365-0.189-0.522-0.271C14.229,198.244,14.381,198.318,14.489,198.359z"
						/>
					<path fill="#3F3B3C" d="M174.108,64.779l-0.172-0.224C174.008,64.754,174.062,64.799,174.108,64.779z"/>
					<path fill="#3F3B3C" d="M89.792,210.43l0.213-0.201C89.929,210.291,89.862,210.357,89.792,210.43z"/>
					<path fill="#3F3B3C" d="M157.344,214.887c-0.015,0.051,0.036,0.129,0.103,0.209c0.038,0.023,0.067,0.039,0.088,0.053
						L157.344,214.887z"/>
					<path fill="#3F3B3C" d="M196.606,112.216c0.001,0.025,0.019,0.061,0.051,0.105l0.691,0.259
						C197.011,112.398,196.77,112.281,196.606,112.216z"/>
					<path fill="#3F3B3C" d="M198.195,209.221c0.028-0.039,0.121-0.113,0.117-0.137c-0.764,0.375-2.71,1.482-5.188,2.92l-0.047,0.27
						L198.195,209.221z"/>
					<path fill="#3F3B3C" d="M230.697,172.934l-0.424,5.293c-0.193-16.986,0.229-24.914-0.111-39.453l0.092,0.807
						c0.032-0.688-0.047-1.275-0.128-2.561c-0.04-0.641-0.081-1.457-0.109-2.543c-0.01-0.545-0.02-1.154-0.031-1.848
						c-0.001-1.104-0.001-2.336-0.002-3.717c-1.158-0.684-2.452-1.445-3.901-2.301c-0.993-0.607-2.096-1.283-3.316-2.031
						c-2.433-1.508-5.327-3.336-8.78-5.562l0.021-0.037c-0.707-0.398-0.744-0.322-2.092-1.229l3.37,2.243
						c-2.148-1.117-4.085-1.999-6.896-3.586c-0.57-0.383-0.73-0.575-0.754-0.668l-6.896-3.895l-1.966-1.449
						c-2.171-1.081-1.504-0.028-6.951-3.541c1.914,1.565-2.902-1.396-2.312-0.822c-0.273-0.202-0.864-0.641-1.347-0.998
						c-3.357-1.883-9.696-5.408-11.354-6.127c0,0,12.629,8.258,15.925,10.652c-4.642-2.802-1.263-0.672-0.403-0.021l0.361,0.094
						c2.766,1.707,2.64,1.926,4.01,2.798c0.011-0.018-0.021-0.062-0.047-0.107l-0.195-0.074c-0.111-0.115-0.018-0.097,0.146-0.031
						c-0.007-0.066,0.145-0.029,0.902,0.426l-0.16-0.062c1.194,0.646,3.203,1.851,4.078,2.375l-0.089,0.192
						c2.286,0.854,13.71,8.614,16.503,10.241c1.291,0.893,2.81,1.756,4.421,2.65c1.57,0.869,3.474,1.908,4.652,2.645l-0.014,0.357
						c-0.017,1.189-0.045,2.346-0.08,2.977c-0.033,0.656-0.075,0.961-0.122,1.164c-0.092,0.404-0.196,0.408-0.287,2.029
						c-0.134,4.051,0.245-0.818,0.261,0.807l-0.294,4.854c-0.025-2.82-0.153-1.291-0.234-0.773
						c-0.036,4.193-0.423,10.811-0.002,12.102c-0.202,5.658-0.371,5.674-0.392,8.1c0.076-0.812,0.146-2.426,0.23-2.439
						c-0.186,2.268,0.046,1.084,0.088,0.156c0.184,3.457-0.769,17.945-0.306,18.672h-0.084c0.345,0.805,0.679-0.484,0.869,1.93
						l-0.154,1.611l0.148,2.426c-0.112,1.627-0.203,0.826-0.246,0.826c0.051,1.26,0.065,2.678,0.062,4.18
						c-0.006,0.75-0.012,1.521-0.019,2.307c-0.013,0.541-0.024,1.09-0.036,1.641c-0.583,0.318-1.169,0.639-1.748,0.953
						c-0.789,0.441-1.569,0.877-2.328,1.303c0,0,1.216-0.432,2.432-0.861c0.304-0.105,0.606-0.213,0.892-0.314
						c0.241-0.074,0.467-0.145,0.66-0.207c0.423-0.143,0.705-0.236,0.705-0.236c-0.852,0.428-1.875,0.941-2.939,1.477
						c-1.128,0.58-2.299,1.184-3.377,1.736c-2.152,1.127-3.922,2.107-4.195,2.439l-2.26,0.938c-7.317,3.523-4.768,3.053-7.658,4.51
						l-3.694,1.734l3.509-2.018c-3.593,1.871-5.052,2.582-7.96,4c0.002,0.004-0.028,0.023-0.026,0.025
						c0.2-0.098,0.333-0.156,0.369-0.152l-0.486,0.289c-0.339,0.395-2.108,1.551-4.585,2.965c-3.531,1.98-6.148,3.783-11.933,6.697
						l-1.222,1.111l-4.312,2.244l-0.14-0.242c4.106-2.398,11.84-6.912,17.119-9.992l0.029-0.166
						c-3.142,1.812-6.651,3.979-8.74,5.152c-1.039,0.533-3.773,1.773-1.989,0.527l-1.804,1.355c-2.325,1.35-4.139,2.398-5.662,3.283
						c-1.104,0.631-1.996,1.143-2.846,1.627c-2.755-1.67-5.191-3.148-10.644-6.455l0.881,0.67c-2.212-1.18-4.415-2.357-4.905-2.904
						c-6.546-3.828-13.263-7.904-17.351-10.672l-1.1-0.252c-1.378-0.814-3.209-2.447-4.114-2.438l-3.036-1.582
						c-1.883-1.115-3.14-1.621-5.202-3.029l0,0c-0.006-0.004-0.012-0.008-0.012-0.008c-0.127-0.09-0.26-0.182-0.39-0.27
						c-0.005,0.008,0.003,0.021,0.012,0.037c-2.055-1.268-2.134-1.234-2.232-1.213c-0.05,0.01-0.104,0.016-0.413-0.146
						c-0.078-0.043-0.172-0.094-0.286-0.154c-0.193-0.113-0.424-0.246-0.694-0.402c-0.543-0.322-1.257-0.746-2.196-1.305
						c-0.161,0.09-0.376,0.207-0.604,0.332c-0.694,0.332-1.241,0.645-1.712,0.947c-0.222,0.145-0.482,0.316-0.633,0.436
						c-0.111,0.096-0.229,0.195-0.35,0.301c-0.475,0.418-1.043,0.912-2.258,1.57l-2.642,0.977
						c-4.474,2.268-4.979,3.105-11.264,6.732c-3.103,1.594-4.763,2.086-2.942,0.621c-2.531,1.961-1.109,0.967-4.652,3.25
						c-0.649,0.168-0.279-0.09,0.445-0.691c-3.343,1.688-1.917,1.291-4.363,2.689c-0.543,0.699-1.093,1.635-1.875,2.111l0.998-0.455
						c-2.496,1.646-5.277,3.348-8.369,4.936l0.028-0.211l-3.155,1.92l-0.31-0.072l-4.534,2.693l0.655-0.312
						c-0.425,0.254-1.235,0.74-2.183,1.307c-0.445,0.26-0.922,0.539-1.402,0.818c-0.191,0.105-0.382,0.211-0.562,0.312
						c-0.186-0.119-0.353-0.232-0.485-0.336l0.073-0.098c0.002-0.023-0.445-0.307-0.771-0.514c-0.342-0.213-0.679-0.424-1.014-0.633
						c-0.681-0.406-1.349-0.807-2.013-1.203c-1.34-0.779-2.68-1.521-4.056-2.268c-2.753-1.494-5.653-3.016-8.991-4.916l0.996,0.291
						c-2.144-1.518-0.81-0.031-3.449-1.693l0.016-0.338c-2.576-1.029-3.033-1.848-4.596-2.92l0.568,0.781l-3.045-1.852
						c-3.333-2.072-1.836-1.633-1.236-1.527l-2.469-1.062l-0.277-0.562c-1.894-0.625-1.658-1.031-4.73-2.553
						c-0.178-0.254,0.607,0.111-0.37-0.518l-5.132-2.393l3.055,1.51l-0.611,0.234c-3.263-1.436-4.131-2.445-6.395-3.588l1.585,0.74
						c-3.64-1.957-3.723-2.254-5.685-3.516c0.578,0.441,1.466,1.115-0.016,0.338c-1.078-0.588-0.488-0.486-1.465-1.115
						c-0.162,0.062-0.67-0.105-1.365-0.424c-0.175-0.084-0.359-0.172-0.555-0.264c-0.078-0.037-0.24-0.125-0.254-0.125l-0.109-0.047
						c-0.147-0.066-0.309-0.15-0.459-0.242c0.006-0.195,0.023-0.404,0.059-0.592c0.048,0.008,0.095,0.021,0.125,0.068
						c-0.016-0.051-0.03-0.094-0.045-0.137c-0.012-0.146-0.023-0.291-0.037-0.447c-0.02-0.322-0.02-0.709,0.021-1.307l0.377,0.703
						l-0.358-2.297c0.103-1.531-0.171-3.764,0.084-3.562l0.075,0.869l0.091-11.598l0.301-0.162c-0.415-1.145,0.158-6.316-0.36-5.936
						c0.282-2.189-0.199-8.615,0.385-7.328c0.045-7.619-0.518-11.736-0.232-20.998c0.146-0.977,0.236-2.451,0.29-4.199
						c0.019-0.877,0.038-1.82,0.058-2.803c0.002-0.246,0.006-0.494,0.008-0.744l0.004-0.361l0.002-0.033l0.009-0.133
						c1.946-1.117,3.956-2.27,5.612-3.221c9.961-5.992,16.404-9.865,26.58-15.985c2.595-1.181,5.543-2.859,8.582-4.676
						c1.515-0.916,3.062-1.852,4.598-2.779c0.77-0.464,1.533-0.926,2.29-1.382c1.198-0.702,2.381-1.396,3.542-2.075
						c0.006-1.402,0.011-2.771,0.017-4.105c0.017-0.85,0.042-1.672,0.082-2.463l-0.274-2.105c0.438-5.109-0.099-12.913,0.328-20.082
						c-0.119-1.757-0.158-2.678-0.168-3.086c-0.013,0.325-0.064,0.819-0.238,0.975c0.123-2.045-0.031-6.188,0.316-5.893l0.036,0.52
						c0.349,0.302-0.163-6.211,0.14-8.496l-0.373,1.252l0.062-3.877l0.072,1.037c-0.143-2.914-0.227-5.553-0.27-8.004
						c-0.014-1.227-0.027-2.404-0.039-3.547c0.002-0.69,0.004-1.359,0.008-2.015c3.188-1.774,6.113-3.405,9.24-5.147
						c3.504-1.985,7.204-4.166,11.561-6.963c-1.614,1.399,2.594-1.744,2.996-1.462c3.734-1.507,6.341-3.796,9.101-5.56
						c-0.011-0.02,0.011-0.061,0.156-0.184l4.979-2.812c-2.678,2.194,3.332-2.46,0.854-0.479c2.383-1.285,4.883-2.67,7.468-4.127
						c2.204-1.258,4.489-2.561,6.827-3.894c4.405,2.521,8.982,5.142,13.557,7.76c4.966,2.843,9.918,5.699,14.647,8.497l-0.583-0.503
						c3.777,2.21,8.581,4.778,11.342,6.637c2.764,1.859,6.478,3.31,7.604,3.935c3.277,1.603,5.897,3.686,4.559,2.883
						c0.55,0.304,1.127,0.609,1.662,0.884c0.252,0.106,0.507,0.212,0.767,0.321c0.039,0.287,0.08,0.501,0.117,0.934
						c0.03,0.701,0.062,1.419,0.094,2.166c0.047,1.499,0.058,3.12-0.018,4.938c-0.479,1.846,0.468,14.734-0.069,14.896l0.045,0.059
						c-0.379,6.918,0.267,13.442-0.076,20.893c0,0-0.04-0.143-0.076-0.395l1.631,15.16l1.796-4.316l1.457-13.141l-0.315-35.611
						l0.066-3.342c0.021-1.654,0.045-3.31,0.021-4.938l-3.705-2.207l-2.324-1.41l-4.647-2.819l-9.297-5.637
						c-12.75-7.309-25.501-14.615-38.252-21.969L95.618,19.546l-4.076,2.818c-4.282,2.182-8.885,4.766-13.616,7.5
						c-5.19,3.023-10.56,6.152-15.827,9.222c-0.01,2.867-0.02,5.71-0.029,8.507c-0.025,2.251-0.072,4.462-0.146,6.614l0.349,0.303
						c0.021,4.126-0.195,3.847-0.257,4.867c0.058,13.11,0.114,26.36,0.171,39.478c-8.393,4.891-16.725,9.743-24.898,14.504
						c-4.323,2.496-8.606,4.969-12.834,7.409c-4.7,2.688-9.34,5.344-13.906,7.953c-0.039,4.512-0.077,8.939-0.115,13.301
						c-0.23,3.33-0.095,13.465-0.338,16.078c0.426,11.238,0.422,23.074,0.378,34.383l-0.038-0.463c0.01,1.318,0.02,2.635,0.02,3.957
						l4.013,2.26c0.18,0.137,0.184,0.186,0.022,0.125c5.326,2.715,13.32,7.678,19.592,11.438l-0.391-0.18
						c11.901,6.826,23.54,13.504,35.057,20.109c9.119-5.314,18.17-10.59,27.226-15.865c8.126-4.701,16.255-9.404,24.459-14.15
						c6.994,4.1,14.046,8.232,21.198,12.426c4.443,2.736,9.133,5.504,13.982,8.312c5.367,3.07,10.89,6.229,16.502,9.441
						c4.987-2.896,10.048-5.836,15.134-8.789c4.581-2.635,9.204-5.252,13.847-7.801c1.079-0.508,5.094-2.766,10.35-5.777
						c5.732-3.316,12.839-7.432,19.461-11.264c-0.035-5.922-0.069-11.52-0.097-15.885
						C230.771,176.543,230.731,173.793,230.697,172.934z"/>
					<path fill="#3F3B3C" d="M207.635,115.739l0.152,0.086C207.854,115.694,207.599,115.611,207.635,115.739z"/>
					<path fill="#3F3B3C" d="M221.968,196.006c0.09-0.051,0.176-0.1,0.26-0.146l-1.074,0.381L221.968,196.006z"/>
					<path fill="#3F3B3C" d="M226.095,139.639c-0.046,2.715-0.01,2.84,0.049,2.459C226.152,141.115,226.142,140.258,226.095,139.639
						z"/>
					<path fill="#3F3B3C" d="M188.29,104.906c-1.229-0.721-0.804-0.375-0.126,0.129c1.267,0.713,2.148,1.209,2.148,1.209
						C189.649,105.804,188.971,105.357,188.29,104.906z"/>
					<path fill="#3F3B3C" d="M192.332,109.539l-0.444-0.119C192.629,109.813,192.621,109.759,192.332,109.539z"/>
				</g>
			</g>
		</g>
	</g>
</g>
</svg>
