<?xml version="1.0" encoding="utf-8"?>
<!-- Generator: Adobe Illustrator 16.0.0, SVG Export Plug-In . SVG Version: 6.00 Build 0)  -->
<!DOCTYPE svg PUBLIC "-//W3C//DTD SVG 1.1//EN" "http://www.w3.org/Graphics/SVG/1.1/DTD/svg11.dtd">
<svg version="1.1" xmlns="http://www.w3.org/2000/svg" xmlns:xlink="http://www.w3.org/1999/xlink" x="0px" y="0px" width="792px"
	 height="792px" viewBox="0 0 792 792" enable-background="new 0 0 792 792" xml:space="preserve">
<g id="Layer_2">
</g>
<g id="Layer_1">
</g>
<g id="Layer_3">
	<g>
		<g>
			<path d="M353.473,17.7l4.471,38.429l-2.241,0.262l-4.471-38.431L353.473,17.7z"/>
			<path d="M377.245,40.191l8.146-0.125l-0.039-2.507c-1.315-0.341-2.486-0.874-3.513-1.596c-1.028-0.722-1.891-1.586-2.589-2.592
				c-0.699-1.005-1.238-2.119-1.619-3.338c-0.381-1.22-0.581-2.484-0.602-3.793c-0.029-1.865,0.3-3.59,0.985-5.176
				c0.687-1.583,1.625-2.949,2.819-4.096c1.194-1.146,2.594-2.052,4.199-2.718c1.605-0.665,3.327-1.013,5.165-1.042
				c1.81-0.028,3.535,0.259,5.173,0.86s3.072,1.456,4.301,2.565c1.229,1.108,2.211,2.438,2.944,3.987
				c0.735,1.549,1.116,3.256,1.146,5.121c0.021,1.336-0.142,2.621-0.483,3.851c-0.343,1.231-0.848,2.36-1.515,3.387
				c-0.666,1.027-1.502,1.924-2.507,2.692c-1.005,0.768-2.158,1.342-3.461,1.725l0.038,2.506l8.146-0.126l0.052,3.341l-10.609,0.165
				l-0.134-8.604c2.221-0.508,3.876-1.523,4.967-3.044c1.09-1.521,1.618-3.423,1.582-5.707c-0.021-1.364-0.264-2.621-0.727-3.769
				c-0.464-1.148-1.105-2.142-1.927-2.979c-0.821-0.836-1.827-1.489-3.017-1.959c-1.192-0.467-2.512-0.692-3.959-0.669
				c-1.449,0.022-2.747,0.287-3.895,0.792c-1.148,0.505-2.127,1.188-2.935,2.051c-0.809,0.862-1.419,1.882-1.833,3.057
				c-0.414,1.177-0.61,2.433-0.59,3.77c0.035,2.2,0.613,4.079,1.739,5.635c1.124,1.556,2.817,2.525,5.079,2.908l0.133,8.604
				l-10.61,0.165L377.245,40.191z"/>
			<path d="M430.682,16.875l-3.418,38.534l-2.247-0.199l3.418-38.535L430.682,16.875z"/>
			<path d="M456.964,47.557l4.484,0.791l-0.387,0.992l-12.55-2.212l0.388-0.991l4.197,0.739l9.359-22.784l-4.73-0.834l0.386-0.992
				l2.675,0.471c3.785,0.667,4.645,0.605,5.985,0.46L456.964,47.557z"/>
			<path d="M494.524,28.317l-9.938,37.386l-2.18-0.58l9.938-37.387L494.524,28.317z"/>
			<path d="M515.191,63.004l4.287,1.538l-0.551,0.913l-11.992-4.306l0.55-0.912l4.011,1.439l13.085-20.87l-4.521-1.623l0.55-0.913
				l2.555,0.918c3.618,1.298,4.475,1.384,5.82,1.469L515.191,63.004z"/>
			<path d="M555.485,50.408l-16.117,35.171l-2.051-0.94l16.117-35.17L555.485,50.408z"/>
			<path d="M576.589,67.688c2.508-1.126,5.829-2.079,8.374-0.641c4,2.26,2.727,7.826,0.754,11.317
				c-4.768,8.436-14.396,12.398-18.649,9.994c-2.146-1.211-4.37-4.916-0.651-11.499C567.999,74.061,570.753,70.291,576.589,67.688z
				 M567.447,87.518c3.781,2.137,7.779-2.56,15.12-11.221c1.154-1.363,2.317-2.913,2.831-3.822c0.802-1.417,1.077-3.518-0.924-4.647
				c-2.582-1.459-5.526,1.29-6.702,2.354c-0.119,0.125-8.53,8.133-10.955,12.424C565.543,84.858,565.883,86.634,567.447,87.518z"/>
			<path d="M611.804,82.461l-21.813,31.946l-1.863-1.273l21.814-31.945L611.804,82.461z"/>
			<path d="M619.76,122.067l3.528,2.877l-0.821,0.678l-9.872-8.055l0.821-0.677l3.302,2.694l19.288-15.316l-3.723-3.037l0.822-0.677
				l2.104,1.717c2.978,2.429,3.757,2.796,4.998,3.322L619.76,122.067z"/>
			<path d="M661.933,123.603l-26.914,27.787l-1.62-1.569l26.914-27.787L661.933,123.603z"/>
			<path d="M663.035,163.977l2.987,3.436l-0.926,0.527l-8.358-9.615l0.926-0.527l2.795,3.216l21.612-11.812l-3.151-3.625
				l0.926-0.528l1.781,2.048c2.521,2.901,3.227,3.394,4.359,4.125L663.035,163.977z"/>
			<path d="M704.344,172.703l-31.267,22.779l-1.328-1.824l31.268-22.777L704.344,172.703z"/>
			<path d="M714.291,198.118c2.737,0.248,6.1,1.046,7.613,3.548c2.377,3.933-1.463,8.157-4.894,10.232
				c-8.294,5.015-18.629,3.746-21.157-0.437c-1.275-2.108-1.397-6.428,5.072-10.34C703.678,199.457,707.928,197.524,714.291,198.118
				z M696.597,210.917c2.248,3.717,8.036,1.583,18.683-2.364c1.674-0.622,3.448-1.403,4.342-1.942
				c1.394-0.843,2.663-2.537,1.475-4.503c-1.534-2.539-5.449-1.586-6.996-1.237c-0.164,0.051-11.424,2.904-15.642,5.456
				C696.241,207.664,695.667,209.378,696.597,210.917z"/>
			<path d="M737.729,228.314l-34.691,17.1l-0.997-2.023l34.691-17.1L737.729,228.314z"/>
			<path d="M743.195,255.028c2.656,0.709,5.834,2.067,6.9,4.791c1.675,4.279-2.827,7.792-6.562,9.253
				c-9.025,3.534-18.997,0.526-20.778-4.025c-0.898-2.296-0.285-6.572,6.757-9.329C732.508,254.545,737.024,253.36,743.195,255.028z
				 M723.58,264.635c1.584,4.046,7.651,2.927,18.816,0.845c1.756-0.327,3.637-0.795,4.609-1.176
				c1.517-0.594,3.057-2.049,2.219-4.188c-1.081-2.763-5.103-2.49-6.686-2.408c-0.171,0.021-11.753,0.92-16.344,2.718
				C723.783,261.37,722.926,262.961,723.58,264.635z"/>
			<path d="M761.18,288.719l-37.073,11.03l-0.644-2.162l37.074-11.029L761.18,288.719z"/>
			<path d="M762.088,315.985c2.499,1.146,5.405,3.017,6,5.881c0.935,4.5-4.094,7.208-8.021,8.022
				c-9.49,1.97-18.815-2.665-19.81-7.451c-0.501-2.414,0.821-6.529,8.226-8.065C751.633,313.72,756.284,313.309,762.088,315.985z
				 M741.141,322.169c0.884,4.255,7.053,4.169,18.408,3.988c1.786-0.03,3.719-0.174,4.741-0.387c1.596-0.331,3.356-1.507,2.89-3.757
				c-0.604-2.905-4.613-3.311-6.188-3.496c-0.172-0.007-11.741-1.062-16.568-0.059C741.889,318.984,740.775,320.41,741.141,322.169z
				"/>
			<path d="M774.149,352.236l-38.404,4.595l-0.268-2.239l38.404-4.595L774.149,352.236z"/>
			<path d="M751.746,376.1l0.153,8.146l2.506-0.047c0.337-1.317,0.865-2.489,1.584-3.52c0.719-1.03,1.58-1.896,2.584-2.598
				c1.003-0.702,2.114-1.244,3.333-1.628c1.218-0.385,2.481-0.59,3.79-0.614c1.866-0.036,3.592,0.288,5.179,0.968
				c1.586,0.681,2.955,1.616,4.105,2.807c1.15,1.189,2.061,2.586,2.732,4.19c0.67,1.602,1.022,3.323,1.058,5.16
				c0.034,1.811-0.247,3.535-0.843,5.176s-1.447,3.077-2.552,4.311c-1.105,1.231-2.431,2.219-3.977,2.957
				c-1.546,0.74-3.252,1.127-5.117,1.161c-1.337,0.026-2.621-0.132-3.853-0.471c-1.232-0.339-2.363-0.84-3.393-1.503
				s-1.93-1.496-2.7-2.498s-1.35-2.154-1.735-3.457l-2.507,0.048l0.153,8.146l-3.342,0.062l-0.198-10.608l8.604-0.162
				c0.515,2.219,1.535,3.872,3.06,4.957c1.525,1.085,3.429,1.606,5.712,1.564c1.364-0.025,2.62-0.273,3.768-0.74
				c1.146-0.467,2.137-1.112,2.973-1.936c0.833-0.823,1.482-1.832,1.948-3.023c0.465-1.193,0.685-2.513,0.656-3.961
				c-0.026-1.448-0.296-2.746-0.804-3.892c-0.51-1.146-1.196-2.124-2.061-2.929c-0.865-0.806-1.886-1.413-3.063-1.822
				c-1.178-0.411-2.435-0.603-3.771-0.578c-2.199,0.042-4.076,0.627-5.628,1.757c-1.554,1.129-2.517,2.826-2.893,5.089l-8.604,0.162
				l-0.2-10.61L751.746,376.1z"/>
			<path d="M775.229,429.46l-38.539-3.301l0.192-2.247l38.54,3.301L775.229,429.46z"/>
			<path d="M766.078,455.177c1.904,1.981,3.921,4.788,3.423,7.67c-0.781,4.526-6.45,5.202-10.401,4.52
				c-9.549-1.649-16.522-9.381-15.69-14.196c0.419-2.429,3.157-5.77,10.607-4.484C757.186,449.232,761.662,450.557,766.078,455.177z
				 M744.328,453.244c-0.738,4.281,5.03,6.464,15.658,10.46c1.671,0.628,3.521,1.201,4.551,1.379
				c1.605,0.277,3.675-0.171,4.065-2.434c0.505-2.923-3.076-4.771-4.473-5.521c-0.157-0.069-10.53-5.293-15.387-6.133
				C746.191,450.557,744.634,451.474,744.328,453.244z"/>
			<path d="M764.004,493.331l-37.419-9.815l0.573-2.183l37.418,9.815L764.004,493.331z"/>
			<path d="M750.614,517.115c1.539,2.277,3.05,5.385,2.069,8.141c-1.54,4.33-7.242,4.029-11.02,2.687
				c-9.132-3.248-14.69-12.053-13.053-16.658c0.826-2.321,4.094-5.15,11.218-2.616C742.859,509.746,747.046,511.811,750.614,517.115
				z M729.506,511.514c-1.456,4.094,3.859,7.226,13.653,12.971c1.542,0.902,3.268,1.783,4.252,2.133
				c1.535,0.546,3.65,0.455,4.421-1.708c0.994-2.795-2.221-5.225-3.471-6.2c-0.143-0.096-9.479-7.007-14.123-8.66
				C731.799,509.182,730.107,509.821,729.506,511.514z"/>
			<path d="M742.113,554.342l-35.218-15.99l0.933-2.055l35.218,15.992L742.113,554.342z"/>
			<path d="M704.473,568.989l-2.229,3.972l-0.809-0.693l6.234-11.112l0.809,0.692l-2.085,3.717l18.411,16.365l2.351-4.19
				l0.809,0.693l-1.328,2.368c-1.881,3.353-2.107,4.183-2.413,5.496L704.473,568.989z"/>
			<path d="M710.224,610.802l-32.012-21.714l1.267-1.867l32.012,21.715L710.224,610.802z"/>
			<path d="M670.646,618.885l-2.867,3.537l-0.68-0.82l8.024-9.898l0.68,0.82l-2.684,3.312l15.379,19.242l3.025-3.732l0.68,0.819
				l-1.711,2.109c-2.42,2.987-2.783,3.768-3.307,5.011L670.646,618.885z"/>
			<path d="M669.26,661.042l-27.869-26.825l1.563-1.625l27.869,26.826L669.26,661.042z"/>
			<path d="M628.886,662.285l-3.428,3l-0.53-0.924l9.59-8.393l0.53,0.924l-3.208,2.807l11.886,21.577l3.615-3.164l0.531,0.923
				l-2.044,1.789c-2.893,2.531-3.384,3.238-4.111,4.374L628.886,662.285z"/>
			<path d="M620.301,703.612l-22.877-31.188l1.818-1.335l22.878,31.188L620.301,703.612z"/>
			<path d="M594.927,713.639c-0.24,2.738-1.028,6.103-3.525,7.623c-3.925,2.391-8.161-1.437-10.247-4.861
				c-5.041-8.276-3.804-18.615,0.37-21.156c2.105-1.281,6.424-1.418,10.356,5.039C593.553,703.031,595.501,707.273,594.927,713.639z
				 M582.074,695.986c-3.711,2.258-1.56,8.039,2.422,18.674c0.627,1.671,1.412,3.442,1.955,4.335
				c0.848,1.392,2.546,2.654,4.508,1.46c2.533-1.542,1.57-5.453,1.216-6.999c-0.052-0.165-2.94-11.415-5.504-15.624
				C585.324,695.62,583.608,695.052,582.074,695.986z"/>
			<path d="M564.796,737.191l-17.218-34.639l2.02-1.004l17.219,34.639L564.796,737.191z"/>
			<path d="M526.358,724.78l-4.235,1.671l-0.189-1.048l11.85-4.679l0.189,1.049l-3.963,1.564l3.942,24.311l4.468-1.765l0.189,1.048
				l-2.525,0.998c-3.574,1.411-4.275,1.913-5.342,2.737L526.358,724.78z"/>
			<path d="M504.472,760.83l-11.126-37.053l2.161-0.648l11.126,37.052L504.472,760.83z"/>
			<path d="M477.21,761.824c-1.138,2.503-2.999,5.415-5.86,6.019c-4.497,0.95-7.222-4.069-8.049-7.994
				c-2.002-9.483,2.603-18.824,7.386-19.833c2.411-0.509,6.53,0.8,8.093,8.198C479.443,751.362,479.869,756.011,477.21,761.824z
				 M470.958,740.898c-4.251,0.896-4.146,7.064-3.927,18.419c0.035,1.786,0.187,3.719,0.402,4.74
				c0.337,1.595,1.519,3.353,3.767,2.878c2.902-0.613,3.294-4.623,3.475-6.199c0.006-0.172,1.022-11.744,0.005-16.568
				C474.145,741.634,472.716,740.526,470.958,740.898z"/>
			<path d="M440.982,774.008l-4.723-38.392l2.239-0.276l4.722,38.393L440.982,774.008z"/>
			<path d="M417.064,751.678l-8.145,0.18l0.055,2.506c1.317,0.333,2.491,0.858,3.523,1.572c1.033,0.715,1.902,1.574,2.606,2.575
				c0.705,1.002,1.252,2.11,1.64,3.328c0.391,1.217,0.599,2.479,0.627,3.788c0.041,1.865-0.275,3.593-0.951,5.182
				c-0.675,1.589-1.605,2.961-2.792,4.114c-1.187,1.155-2.58,2.071-4.181,2.746c-1.601,0.676-3.32,1.034-5.158,1.074
				c-1.81,0.041-3.536-0.234-5.178-0.825c-1.644-0.59-3.082-1.437-4.319-2.537c-1.235-1.101-2.227-2.424-2.971-3.967
				c-0.744-1.544-1.137-3.248-1.178-5.113c-0.029-1.337,0.124-2.622,0.458-3.854c0.335-1.235,0.833-2.367,1.492-3.397
				c0.66-1.032,1.489-1.935,2.489-2.708c1.001-0.773,2.149-1.357,3.45-1.748l-0.056-2.506l-8.144,0.18l-0.073-3.342l10.608-0.233
				l0.189,8.604c-2.217,0.522-3.865,1.547-4.947,3.076c-1.079,1.528-1.596,3.433-1.545,5.717c0.03,1.363,0.281,2.619,0.752,3.765
				s1.119,2.134,1.945,2.965c0.827,0.832,1.837,1.479,3.031,1.94c1.194,0.461,2.515,0.675,3.963,0.643
				c1.447-0.031,2.744-0.304,3.889-0.815c1.145-0.514,2.119-1.204,2.921-2.072c0.803-0.867,1.407-1.891,1.813-3.067
				c0.405-1.18,0.594-2.438,0.564-3.774c-0.049-2.199-0.641-4.074-1.775-5.623s-2.834-2.507-5.099-2.874l-0.189-8.604l10.607-0.234
				L417.064,751.678z"/>
			<path d="M363.773,775.341l3.168-38.554l2.249,0.184l-3.169,38.555L363.773,775.341z"/>
			<path d="M337.31,744.839l-4.489-0.76l0.38-0.995l12.564,2.128l-0.38,0.993l-4.202-0.71l-9.208,22.849l4.737,0.803l-0.381,0.995
				l-2.677-0.454c-3.79-0.643-4.649-0.574-5.989-0.42L337.31,744.839z"/>
			<path d="M299.866,764.319l9.692-37.45l2.185,0.564l-9.692,37.451L299.866,764.319z"/>
			<path d="M278.968,729.762l-4.296-1.511l0.544-0.916l12.02,4.228l-0.544,0.916l-4.02-1.413l-12.951,20.952l4.531,1.595
				l-0.543,0.916l-2.562-0.901c-3.626-1.276-4.483-1.356-5.83-1.431L278.968,729.762z"/>
			<path d="M238.761,742.615l15.881-35.267l2.056,0.926l-15.88,35.267L238.761,742.615z"/>
			<path d="M217.535,725.477c-2.501,1.142-5.816,2.116-8.372,0.695c-4.016-2.236-2.777-7.81-0.827-11.313
				c4.713-8.469,14.317-12.495,18.587-10.117c2.154,1.199,4.403,4.89,0.726,11.497C226.085,719.048,223.355,722.836,217.535,725.477
				z M226.551,705.585c-3.797-2.113-7.765,2.611-15.051,11.321c-1.146,1.369-2.299,2.927-2.808,3.84
				c-0.792,1.424-1.054,3.525,0.954,4.643c2.592,1.442,5.52-1.326,6.689-2.396c0.118-0.127,8.479-8.19,10.876-12.497
				C228.472,708.232,228.12,706.459,226.551,705.585z"/>
			<path d="M182.227,710.933l21.611-32.091l1.872,1.261l-21.611,32.091L182.227,710.933z"/>
			<path d="M174.023,671.379l-3.547-2.855l0.817-0.683l9.925,7.99l-0.818,0.682l-3.319-2.672l-19.189,15.443l3.742,3.013
				l-0.817,0.682l-2.115-1.703c-2.994-2.409-3.775-2.771-5.02-3.289L174.023,671.379z"/>
			<path d="M131.84,670.105l26.735-27.95l1.63,1.558l-26.736,27.952L131.84,670.105z"/>
			<path d="M130.468,629.746l-3.01-3.417l0.922-0.532l8.423,9.558l-0.922,0.534l-2.817-3.196l-21.532,11.956l3.175,3.605
				l-0.921,0.534l-1.795-2.038c-2.541-2.884-3.249-3.371-4.388-4.096L130.468,629.746z"/>
			<path d="M89.122,621.313l31.107-22.991l1.341,1.814l-31.107,22.991L89.122,621.313z"/>
			<path d="M78.999,595.947c-2.738-0.23-6.106-1.007-7.637-3.5c-2.403-3.916,1.409-8.166,4.827-10.264
				c8.26-5.069,18.603-3.869,21.159,0.297c1.29,2.101,1.44,6.419-5.005,10.374C89.603,594.537,85.366,596.499,78.999,595.947z
				 M96.608,583.032c-2.272-3.702-8.046-1.531-18.667,2.486c-1.67,0.633-3.439,1.425-4.329,1.972
				c-1.389,0.852-2.647,2.554-1.445,4.513c1.551,2.528,5.46,1.55,7.004,1.191c0.164-0.053,11.404-2.979,15.606-5.558
				C96.985,586.282,97.548,584.564,96.608,583.032z"/>
			<path d="M55.354,565.904l34.584-17.338l1.012,2.018l-34.585,17.337L55.354,565.904z"/>
			<path d="M67.648,527.437l-1.687-4.23l1.048-0.193l4.72,11.837l-1.048,0.193l-1.579-3.959l-24.302,4.023l1.779,4.463l-1.048,0.192
				l-1.006-2.523c-1.423-3.57-1.927-4.269-2.755-5.331L67.648,527.437z"/>
			<path d="M31.499,505.561l37.053-11.126l0.649,2.16l-37.053,11.128L31.499,505.561z"/>
			<path d="M30.441,478.389c-2.507-1.129-5.425-2.981-6.039-5.842c-0.963-4.493,4.046-7.233,7.968-8.075
				c9.478-2.032,18.833,2.542,19.858,7.321c0.517,2.41-0.778,6.534-8.172,8.119C40.911,480.586,36.263,481.028,30.441,478.389z
				 M51.347,472.068c-0.911-4.25-7.079-4.123-18.433-3.866c-1.786,0.041-3.718,0.198-4.739,0.418
				c-1.593,0.341-3.347,1.528-2.865,3.776c0.623,2.9,4.634,3.278,6.21,3.454c0.172,0.006,11.748,0.984,16.569-0.05
				C50.622,475.258,51.724,473.824,51.347,472.068z"/>
			<path d="M18.137,442.201l38.38-4.849l0.282,2.237l-38.379,4.85L18.137,442.201z"/>
			<path d="M40.392,418.212l-0.206-8.144l-2.505,0.062c-0.329,1.32-0.85,2.495-1.562,3.529c-0.711,1.036-1.566,1.906-2.566,2.614
				c-0.999,0.708-2.106,1.259-3.323,1.651c-1.215,0.394-2.477,0.606-3.786,0.64c-1.866,0.046-3.594-0.265-5.186-0.936
				c-1.59-0.67-2.965-1.596-4.124-2.778c-1.158-1.183-2.078-2.573-2.759-4.172c-0.681-1.599-1.045-3.316-1.092-5.154
				c-0.046-1.809,0.224-3.537,0.81-5.182c0.585-1.645,1.426-3.086,2.523-4.326c1.097-1.24,2.416-2.233,3.957-2.982
				c1.542-0.751,3.245-1.148,5.11-1.196c1.336-0.034,2.621,0.115,3.855,0.446c1.235,0.33,2.369,0.825,3.401,1.48
				c1.035,0.657,1.939,1.483,2.717,2.481c0.777,0.996,1.364,2.145,1.758,3.444l2.506-0.063l-0.206-8.144l3.341-0.084l0.268,10.606
				l-8.603,0.218c-0.529-2.215-1.561-3.86-3.092-4.937c-1.532-1.075-3.439-1.585-5.722-1.527c-1.364,0.036-2.618,0.291-3.763,0.765
				c-1.144,0.476-2.13,1.126-2.959,1.955c-0.829,0.83-1.472,1.842-1.929,3.037c-0.457,1.196-0.668,2.518-0.631,3.966
				c0.036,1.447,0.313,2.743,0.83,3.886c0.517,1.143,1.21,2.115,2.08,2.914c0.871,0.8,1.895,1.401,3.075,1.803
				c1.18,0.402,2.438,0.587,3.775,0.553c2.199-0.057,4.072-0.653,5.617-1.793c1.545-1.14,2.498-2.843,2.858-5.108l8.603-0.217
				l0.269,10.606L40.392,418.212z"/>
			<path d="M16.563,364.998l38.56,3.052l-0.178,2.249l-38.56-3.051L16.563,364.998z"/>
			<path d="M46.975,338.433l0.746-4.492l0.996,0.376l-2.087,12.57l-0.996-0.376l0.698-4.204l-22.877-9.136l-0.788,4.74l-0.996-0.377
				l0.444-2.679c0.63-3.793,0.561-4.651,0.402-5.989L46.975,338.433z"/>
			<path d="M27.372,301.047l37.483,9.571l-0.558,2.186l-37.483-9.571L27.372,301.047z"/>
			<path d="M61.863,280.033l1.496-4.301l0.918,0.541l-4.188,12.034l-0.917-0.541l1.4-4.024l-20.998-12.88l-1.579,4.539l-0.917-0.541
				l0.892-2.564c1.263-3.631,1.34-4.489,1.411-5.834L61.863,280.033z"/>
			<path d="M48.865,239.896l35.329,15.766l-0.919,2.06l-35.33-15.766L48.865,239.896z"/>
			<path d="M86.414,225.01l2.201-3.986l0.813,0.688l-6.16,11.153l-0.813-0.687l2.06-3.731l-18.52-16.24l-2.322,4.206l-0.813-0.688
				l1.312-2.376c1.857-3.365,2.079-4.198,2.375-5.513L86.414,225.01z"/>
			<path d="M80.392,183.232l32.156,21.511l-1.254,1.875l-32.157-21.51L80.392,183.232z"/>
			<path d="M100.815,165.145c-0.712-2.655-1.124-6.087,0.702-8.371c2.869-3.588,8.16-1.443,11.293,1.061
				c7.569,6.052,9.947,16.188,6.895,20.006c-1.539,1.925-5.55,3.53-11.456-1.19C105.737,174.642,102.455,171.323,100.815,165.145z
				 M118.936,177.332c2.712-3.393-1.288-8.089-8.669-16.718c-1.161-1.356-2.506-2.751-3.321-3.405
				c-1.272-1.017-3.301-1.623-4.736,0.172c-1.852,2.317,0.393,5.663,1.254,6.993c0.104,0.136,6.67,9.718,10.52,12.795
				C116.007,178.788,117.813,178.735,118.936,177.332z"/>
			<path d="M121.042,132.72l28.047,26.643l-1.554,1.636l-28.047-26.642L121.042,132.72z"/>
			<path d="M161.402,131.228l3.408-3.02l0.536,0.92l-9.534,8.451l-0.537-0.92l3.189-2.826l-12.021-21.498l-3.595,3.187l-0.536-0.92
				l2.032-1.8c2.876-2.549,3.362-3.26,4.082-4.401L161.402,131.228z"/>
			<path d="M169.694,89.848l23.092,31.043l-1.81,1.346l-23.092-31.041L169.694,89.848z"/>
			<path d="M209.722,95.27l3.873-2.394l0.372,0.998l-10.838,6.697l-0.371-0.998l3.624-2.239l-8.171-23.235l-4.086,2.525
				l-0.372-0.999l2.31-1.427c3.27-2.02,3.87-2.637,4.774-3.638L209.722,95.27z"/>
			<path d="M225.002,55.899l17.442,34.534l-2.014,1.017l-17.442-34.533L225.002,55.899z"/>
			<path d="M263.516,68.066l4.224-1.701l0.196,1.046l-11.818,4.759l-0.196-1.046l3.952-1.592l-4.104-24.285l-4.456,1.794
				l-0.196-1.047l2.519-1.014c3.565-1.435,4.262-1.941,5.323-2.773L263.516,68.066z"/>
			<path d="M285.317,31.843l11.127,37.053l-2.161,0.648l-11.126-37.052L285.317,31.843z"/>
			<path d="M312.442,30.708c1.121-2.51,2.965-5.434,5.823-6.057c4.491-0.976,7.246,4.026,8.099,7.946
				c2.061,9.471-2.486,18.84-7.263,19.879c-2.409,0.524-6.536-0.758-8.144-8.148C310.274,41.185,309.819,36.538,312.442,30.708z
				 M318.824,51.596c4.246-0.923,4.102-7.091,3.812-18.445c-0.047-1.786-0.21-3.717-0.432-4.738
				c-0.346-1.592-1.54-3.342-3.785-2.854c-2.899,0.629-3.266,4.643-3.436,6.219c-0.006,0.173-0.95,11.752,0.098,16.569
				C315.632,50.879,317.069,51.978,318.824,51.596z"/>
		</g>
		<path fill-rule="evenodd" clip-rule="evenodd" fill="none" stroke="#000000" stroke-miterlimit="10" d="M403.988,54.569"/>
		<g>
			<path fill="none" stroke="#000000" stroke-width="0.75" stroke-miterlimit="10" d="M717.339,515.209
				c-56.538-127.394-182.07-209.412-320.529-209.412c-138.461,0-263.994,82.018-320.531,209.412"/>
			<path fill="none" stroke="#000000" stroke-width="0.75" stroke-miterlimit="10" d="M697.109,558.266
				c-31.983-141.22-156.594-241.383-300.3-241.383c-143.706,0-269.134,100.687-301.118,241.905"/>
			<path fill="none" stroke="#000000" stroke-width="0.75" stroke-miterlimit="10" d="M669.055,600.971
				c-0.604-151.125-122.313-273.32-272.245-273.32c-149.934,0-271.645,122.195-272.247,273.319"/>
			<path fill="none" stroke="#000000" stroke-width="0.75" stroke-miterlimit="10" d="M630.882,643.053
				c5.135-19.972,7.735-40.52,7.735-61.151c0-134.611-108.262-243.737-241.808-243.737c-133.548,0-241.809,109.126-241.809,243.736
				c0,20.632,2.597,41.181,7.733,61.151"/>
			<path fill="none" stroke="#000000" stroke-width="0.75" stroke-miterlimit="10" d="M577.207,684.163
				c22.82-35.272,34.974-76.474,34.974-118.586c0-119.892-96.427-217.086-215.371-217.086
				c-118.947,0-215.371,97.195-215.371,217.086c0,45.348,12.15,83.313,34.971,118.586"/>
			<path fill="none" stroke="#000000" stroke-width="0.75" stroke-miterlimit="10" d="M485.256,725.167
				c63.621-33.283,103.553-100.733,103.553-172.986c0-106.886-85.964-193.534-191.999-193.534c-106.04,0-192,86.648-192,193.534
				c0,72.253,39.928,139.703,103.549,172.986"/>
			<path fill="none" stroke="#000000" stroke-width="0.75" stroke-miterlimit="10" d="M396.81,659.753
				c74.28,0.001,134.498-60.697,134.498-135.57c0-74.878-60.218-135.57-134.498-135.57c-74.283,0-134.501,60.692-134.501,135.57
				C262.309,599.055,322.526,659.753,396.81,659.753"/>
			<path fill="none" stroke="#000000" stroke-width="0.75" stroke-miterlimit="10" d="M396.81,636.897
				c65.296,0,118.231-53.355,118.231-119.175c0-65.816-52.936-119.176-118.231-119.176c-65.298,0-118.232,53.359-118.232,119.176
				C278.577,583.541,331.512,636.897,396.81,636.897"/>
			<path fill="none" stroke="#000000" stroke-width="0.75" stroke-miterlimit="10" d="M396.81,616.117
				c56.871,0,102.976-46.472,102.976-103.797c0-57.324-46.104-103.798-102.976-103.798c-56.873,0-102.978,46.474-102.978,103.798
				C293.832,569.646,339.937,616.117,396.81,616.117"/>
			<path fill="none" stroke="#000000" stroke-width="0.75" stroke-miterlimit="10" d="M396.81,597.074
				c48.9,0,88.546-39.958,88.546-89.252c0-49.292-39.646-89.252-88.546-89.252c-48.903,0-88.546,39.96-88.546,89.252
				C308.263,557.115,347.906,597.074,396.81,597.074"/>
			<path fill="none" stroke="#000000" stroke-width="0.75" stroke-miterlimit="10" d="M396.81,579.514
				c41.308,0,74.795-33.753,74.795-75.392s-33.487-75.392-74.795-75.392c-41.309,0-74.795,33.753-74.795,75.392
				C322.015,545.76,355.501,579.514,396.81,579.514"/>
			<path fill="none" stroke="#000000" stroke-width="0.75" stroke-miterlimit="10" d="M396.81,563.172
				c34.006,0,61.577-27.788,61.577-62.067c0-34.277-27.571-62.066-61.577-62.066c-34.008,0-61.577,27.789-61.577,62.066
				C335.232,535.384,362.802,563.172,396.81,563.172"/>
			<path fill="none" stroke="#000000" stroke-width="0.75" stroke-miterlimit="10" d="M396.81,547.906
				c26.938,0,48.78-22.015,48.78-49.17c0-27.153-21.842-49.17-48.78-49.17c-26.94,0-48.78,22.017-48.78,49.17
				C348.029,525.892,369.869,547.906,396.81,547.906"/>
			<path fill="none" stroke="#000000" stroke-width="0.75" stroke-miterlimit="10" d="M396.81,533.545
				c20.052,0,36.314-16.389,36.314-36.606c0-20.214-16.263-36.6-36.314-36.6c-20.057,0-36.313,16.386-36.313,36.6
				C360.496,517.156,376.753,533.545,396.81,533.545"/>
			<path fill="none" stroke="#000000" stroke-width="0.75" stroke-miterlimit="10" d="M396.81,519.963
				c13.301,0,24.086-10.872,24.086-24.28s-10.785-24.277-24.086-24.277c-13.304,0-24.088,10.869-24.088,24.277
				S383.505,519.963,396.81,519.963"/>
			<path fill="none" stroke="#000000" stroke-width="0.75" stroke-miterlimit="10" d="M396.81,507.045
				c6.629,0,12.006-5.416,12.006-12.104c0-6.684-5.377-12.1-12.006-12.1c-6.631,0-12.008,5.416-12.008,12.1
				C384.801,501.629,390.179,507.045,396.81,507.045"/>
			<path fill="none" stroke="#000000" stroke-width="0.75" stroke-miterlimit="10" d="M371.667,306.814
				c10.294,144.408,40.976,286.598,91.111,422.271"/>
			<path fill="none" stroke="#000000" stroke-width="0.75" stroke-miterlimit="10" d="M346.213,309.47
				c21.389,148.149,84.833,286.9,182.686,399.526"/>
			<path fill="none" stroke="#000000" stroke-width="0.75" stroke-miterlimit="10" d="M320.21,314.313
				c34.259,154.494,134.688,285.731,274.232,358.363"/>
			<path fill="none" stroke="#000000" stroke-width="0.75" stroke-miterlimit="10" d="M293.284,321.553
				c50.133,163.754,193.937,280.379,363.357,294.69"/>
			<path fill="none" stroke="#000000" stroke-width="0.75" stroke-miterlimit="10" d="M265.174,331.624
				c54.138,134.935,184.097,223.258,328.499,223.26c39.136,0,77.999-6.536,115.014-19.341"/>
			<path fill="none" stroke="#000000" stroke-width="0.75" stroke-miterlimit="10" d="M235.549,345.343
				c54.764,106.77,164.05,173.821,283.292,173.821c61.35,0,121.4-17.837,172.947-51.37"/>
			<path fill="none" stroke="#000000" stroke-width="0.75" stroke-miterlimit="10" d="M204.212,363.777
				c55.521,85.333,149.957,136.738,251.2,136.738c74.544,0,146.426-27.938,201.674-78.381"/>
			<path fill="none" stroke="#000000" stroke-width="0.75" stroke-miterlimit="10" d="M171.112,388.601
				c55.979,67.246,138.606,106.082,225.697,106.082c87.089,0,169.717-38.836,225.696-106.082"/>
			<path fill="none" stroke="#000000" stroke-width="0.75" stroke-miterlimit="10" d="M136.532,422.134
				c55.249,50.442,127.132,78.381,201.674,78.381c101.241,0,195.676-51.405,251.199-136.738"/>
			<path fill="none" stroke="#000000" stroke-width="0.75" stroke-miterlimit="10" d="M101.83,467.794
				c51.544,33.533,111.595,51.37,172.947,51.37c119.242,0,228.527-67.052,283.291-173.821"/>
			<path fill="none" stroke="#000000" stroke-width="0.75" stroke-miterlimit="10" d="M83.305,533.545
				c37.017,12.804,77.505,21.337,116.639,21.337c144.399,0,274.362-88.323,328.5-223.258"/>
			<path fill="none" stroke="#000000" stroke-width="0.75" stroke-miterlimit="10" d="M136.977,616.242
				c169.419-14.311,313.226-130.936,363.355-294.689"/>
			<path fill="none" stroke="#000000" stroke-width="0.75" stroke-miterlimit="10" d="M199.175,672.676
				c139.544-72.632,239.974-203.869,274.234-358.363"/>
			<path fill="none" stroke="#000000" stroke-width="0.75" stroke-miterlimit="10" d="M264.72,708.996
				C362.57,596.37,426.014,457.619,447.403,309.47"/>
			<path fill="none" stroke="#000000" stroke-width="0.75" stroke-miterlimit="10" d="M330.838,729.086
				c50.137-135.674,80.817-277.863,91.111-422.271"/>
		</g>
		<g>
			<path fill="none" stroke="#000000" stroke-width="0.75" stroke-miterlimit="10" d="M513.077,75.196
				C385.682,131.78,303.664,257.418,303.664,395.991c0,138.576,82.018,264.214,209.413,320.799"/>
			<path fill="none" stroke="#000000" stroke-width="0.75" stroke-miterlimit="10" d="M556.132,95.441
				c-141.22,32.01-241.382,156.726-241.382,300.55c0,143.826,100.163,268.544,241.382,300.553"/>
			<path fill="none" stroke="#000000" stroke-width="0.75" stroke-miterlimit="10" d="M601.924,123.521
				c-151.123,0.602-276.407,122.415-276.407,272.47c0,150.059,125.284,271.871,276.407,272.474"/>
			<path fill="none" stroke="#000000" stroke-width="0.75" stroke-miterlimit="10" d="M644.981,162.235
				c-19.97-5.14-44.583-8.252-65.215-8.252c-134.61,0-243.736,108.353-243.736,242.008c0,133.66,109.125,242.01,243.736,242.01
				c20.632,0,47.681-5.082,67.652-10.224"/>
			<path fill="none" stroke="#000000" stroke-width="0.75" stroke-miterlimit="10" d="M685.867,215.309
				c-35.273-22.84-80.312-34.867-122.422-34.867c-119.894,0-217.088,96.507-217.088,215.549
				c0,119.047,97.195,215.551,217.088,215.551c42.109,0,87.148-13.225,122.422-36.064"/>
			<path fill="none" stroke="#000000" stroke-width="0.75" stroke-miterlimit="10" d="M713.622,297.558
				c-33.282-63.674-91.322-93.725-163.574-93.725c-106.887,0-193.535,86.034-193.535,192.158
				c0,106.129,86.648,192.16,193.535,192.16c72.252,0,120.494-28.243,161.331-86.574"/>
			<path fill="none" stroke="#000000" stroke-width="0.75" stroke-miterlimit="10" d="M657.619,395.991
				c0-74.342-60.698-134.61-135.57-134.61c-74.876,0-135.57,60.268-135.57,134.61c0,74.346,60.694,134.612,135.57,134.612
				C596.921,530.604,657.619,470.337,657.619,395.991"/>
			<path fill="none" stroke="#000000" stroke-width="0.75" stroke-miterlimit="10" d="M634.766,395.991
				c0-65.349-53.358-118.33-119.176-118.33s-119.177,52.98-119.177,118.33c0,65.353,53.359,118.331,119.177,118.331
				S634.766,461.344,634.766,395.991"/>
			<path fill="none" stroke="#000000" stroke-width="0.75" stroke-miterlimit="10" d="M613.983,395.991
				c0-56.918-46.471-103.061-103.797-103.061c-57.324,0-103.797,46.143-103.797,103.061c0,56.922,46.473,103.063,103.797,103.063
				C567.513,499.055,613.983,452.913,613.983,395.991"/>
			<path fill="none" stroke="#000000" stroke-width="0.75" stroke-miterlimit="10" d="M594.941,395.991
				c0-48.941-39.96-88.619-89.252-88.619c-49.293,0-89.253,39.678-89.253,88.619c0,48.943,39.96,88.621,89.253,88.621
				C554.981,484.612,594.941,444.935,594.941,395.991"/>
			<path fill="none" stroke="#000000" stroke-width="0.75" stroke-miterlimit="10" d="M577.38,395.991
				c0-41.341-33.754-74.856-75.392-74.856s-75.391,33.515-75.391,74.856c0,41.344,33.753,74.857,75.391,74.857
				S577.38,437.335,577.38,395.991"/>
			<path fill="none" stroke="#000000" stroke-width="0.75" stroke-miterlimit="10" d="M561.038,395.991
				c0-34.034-27.787-61.627-62.067-61.627c-34.277,0-62.065,27.593-62.065,61.627c0,34.037,27.788,61.629,62.065,61.629
				C533.251,457.62,561.038,430.028,561.038,395.991"/>
			<path fill="none" stroke="#000000" stroke-width="0.75" stroke-miterlimit="10" d="M545.773,395.991
				c0-26.959-22.016-48.82-49.171-48.82c-27.153,0-49.169,21.86-49.169,48.82c0,26.963,22.016,48.822,49.169,48.822
				C523.758,444.813,545.773,422.954,545.773,395.991"/>
			<path fill="none" stroke="#000000" stroke-width="0.75" stroke-miterlimit="10" d="M531.411,395.991
				c0-20.068-16.388-36.343-36.604-36.343c-20.216,0-36.602,16.275-36.602,36.343c0,20.073,16.386,36.344,36.602,36.344
				C515.023,432.335,531.411,416.064,531.411,395.991"/>
			<path fill="none" stroke="#000000" stroke-width="0.75" stroke-miterlimit="10" d="M517.829,395.991
				c0-13.311-10.871-24.105-24.279-24.105c-13.409,0-24.278,10.795-24.278,24.105c0,13.316,10.869,24.109,24.278,24.109
				C506.958,420.101,517.829,409.308,517.829,395.991"/>
			<path fill="none" stroke="#000000" stroke-width="0.75" stroke-miterlimit="10" d="M504.911,395.991
				c0-6.634-5.416-12.017-12.104-12.017c-6.683,0-12.1,5.383-12.1,12.017c0,6.638,5.417,12.019,12.1,12.019
				C499.495,408.01,504.911,402.629,504.911,395.991"/>
			<path fill="none" stroke="#000000" stroke-width="0.75" stroke-miterlimit="10" d="M304.681,421.155
				c144.409-10.302,290.329-43.328,426.003-93.505"/>
			<path fill="none" stroke="#000000" stroke-width="0.75" stroke-miterlimit="10" d="M307.336,446.63
				c148.149-21.405,288.725-90.26,401.35-188.193"/>
			<path fill="none" stroke="#000000" stroke-width="0.75" stroke-miterlimit="10" d="M312.18,472.655
				c154.493-34.287,285.732-134.801,358.362-274.461"/>
			<path fill="none" stroke="#000000" stroke-width="0.75" stroke-miterlimit="10" d="M319.42,499.604
				c163.753-50.176,280.379-194.098,294.688-363.66"/>
			<path fill="none" stroke="#000000" stroke-width="0.75" stroke-miterlimit="10" d="M329.49,527.737
				c134.936-54.184,223.259-184.252,223.259-328.773c0-39.167-4.876-77.937-17.681-114.982"/>
			<path fill="none" stroke="#000000" stroke-width="0.75" stroke-miterlimit="10" d="M343.209,557.386
				C449.979,502.577,517.03,393.199,517.03,273.858c0-61.402-17.836-121.501-51.369-173.091"/>
			<path fill="none" stroke="#000000" stroke-width="0.75" stroke-miterlimit="10" d="M361.643,588.749
				c85.333-55.567,136.738-150.081,136.738-251.408c0-74.605-27.938-146.548-78.381-201.842"/>
			<path fill="none" stroke="#000000" stroke-width="0.75" stroke-miterlimit="10" d="M386.467,621.878
				c67.246-56.026,106.082-138.723,106.082-225.887c0-87.16-38.836-169.857-106.082-225.883"/>
			<path fill="none" stroke="#000000" stroke-width="0.75" stroke-miterlimit="10" d="M420,656.485
				c50.442-55.294,78.381-127.237,78.381-201.841c0-101.327-51.405-195.839-136.738-251.409"/>
			<path fill="none" stroke="#000000" stroke-width="0.75" stroke-miterlimit="10" d="M465.661,691.218
				c33.533-51.588,51.369-111.688,51.369-173.092c0-119.341-67.051-228.717-173.821-283.528"/>
			<path fill="none" stroke="#000000" stroke-width="0.75" stroke-miterlimit="10" d="M533.41,708.132
				c12.805-37.047,19.339-75.944,19.339-115.111c0-144.519-88.323-274.589-223.259-328.772"/>
			<path fill="none" stroke="#000000" stroke-width="0.75" stroke-miterlimit="10" d="M614.372,658.597
				c-14.31-169.562-131.199-316.042-294.952-366.213"/>
			<path fill="none" stroke="#000000" stroke-width="0.75" stroke-miterlimit="10" d="M670.542,593.792
				C597.912,454.131,466.673,353.617,312.18,319.33"/>
			<path fill="none" stroke="#000000" stroke-width="0.75" stroke-miterlimit="10" d="M710.099,529.388
				c-112.625-97.932-254.613-162.625-402.762-184.031"/>
			<path fill="none" stroke="#000000" stroke-width="0.75" stroke-miterlimit="10" d="M726.953,462.019
				c-135.674-50.18-277.863-80.886-422.272-91.188"/>
		</g>
		<g>
			<path fill="none" stroke="#000000" stroke-width="0.75" stroke-miterlimit="10" d="M279.734,719.33
				c127.395-56.988,209.412-183.522,209.412-323.086c0-139.566-82.018-266.1-209.412-323.088"/>
			<path fill="none" stroke="#000000" stroke-width="0.75" stroke-miterlimit="10" d="M236.679,698.94
				c141.22-32.239,241.382-157.844,241.382-302.696c0-144.853-100.163-270.46-241.382-302.699"/>
			<path fill="none" stroke="#000000" stroke-width="0.75" stroke-miterlimit="10" d="M193.974,670.66
				c151.125-0.607,273.321-123.288,273.321-274.416c0-151.13-122.196-273.812-273.321-274.419"/>
			<path fill="none" stroke="#000000" stroke-width="0.75" stroke-miterlimit="10" d="M151.893,632.182
				c19.971,5.179,40.519,7.798,61.151,7.798c134.61,0,243.736-109.124,243.736-243.735c0-134.614-109.126-243.738-243.736-243.738
				c-20.632,0-43.608,2.617-63.579,7.795"/>
			<path fill="none" stroke="#000000" stroke-width="0.75" stroke-miterlimit="10" d="M105.712,576.009
				c35.273,23.003,81.544,37.324,123.655,37.324c119.892,0,217.087-97.197,217.087-217.089
				c0-119.896-97.195-217.089-217.087-217.089c-42.111,0-87.959,13.151-123.232,36.154"/>
			<path fill="none" stroke="#000000" stroke-width="0.75" stroke-miterlimit="10" d="M65.859,477.98
				c33.284,64.128,104.652,111.793,176.905,111.793c106.887,0,193.534-86.647,193.534-193.529
				c0-106.886-86.647-193.532-193.534-193.532c-72.252,0-131.755,28.324-165.04,92.453"/>
			<path fill="none" stroke="#000000" stroke-width="0.75" stroke-miterlimit="10" d="M135.191,396.244
				c0,74.872,60.698,135.571,135.57,135.571c74.877,0,135.57-60.699,135.57-135.571c0-74.876-60.693-135.574-135.57-135.574
				C195.89,260.67,135.191,321.368,135.191,396.244"/>
			<path fill="none" stroke="#000000" stroke-width="0.75" stroke-miterlimit="10" d="M158.046,396.244
				c0,65.816,53.357,119.176,119.176,119.176c65.816,0,119.175-53.359,119.175-119.176c0-65.819-53.359-119.176-119.175-119.176
				C211.403,277.068,158.046,330.425,158.046,396.244"/>
			<path fill="none" stroke="#000000" stroke-width="0.75" stroke-miterlimit="10" d="M178.828,396.244
				c0,57.324,46.471,103.798,103.797,103.798c57.325,0,103.797-46.474,103.797-103.798c0-57.328-46.473-103.8-103.797-103.8
				C225.299,292.444,178.828,338.917,178.828,396.244"/>
			<path fill="none" stroke="#000000" stroke-width="0.75" stroke-miterlimit="10" d="M197.87,396.244
				c0,49.291,39.959,89.251,89.252,89.251c49.292,0,89.253-39.96,89.253-89.251c0-49.293-39.96-89.253-89.253-89.253
				C237.829,306.991,197.87,346.951,197.87,396.244"/>
			<path fill="none" stroke="#000000" stroke-width="0.75" stroke-miterlimit="10" d="M215.431,396.244
				c0,41.637,33.753,75.39,75.391,75.39c41.638,0,75.392-33.753,75.392-75.39c0-41.639-33.754-75.393-75.392-75.393
				C249.185,320.852,215.431,354.605,215.431,396.244"/>
			<path fill="none" stroke="#000000" stroke-width="0.75" stroke-miterlimit="10" d="M231.772,396.244
				c0,34.277,27.788,62.066,62.067,62.066c34.277,0,62.067-27.789,62.067-62.066c0-34.28-27.79-62.069-62.067-62.069
				C259.561,334.175,231.772,361.964,231.772,396.244"/>
			<path fill="none" stroke="#000000" stroke-width="0.75" stroke-miterlimit="10" d="M247.038,396.244
				c0,27.151,22.015,49.168,49.17,49.168c27.154,0,49.17-22.017,49.17-49.168c0-27.156-22.017-49.17-49.17-49.17
				C269.053,347.074,247.038,369.088,247.038,396.244"/>
			<path fill="none" stroke="#000000" stroke-width="0.75" stroke-miterlimit="10" d="M261.4,396.244
				c0,20.213,16.389,36.603,36.605,36.603c20.215,0,36.601-16.39,36.601-36.603c0-20.217-16.386-36.604-36.601-36.604
				C277.789,359.641,261.4,376.027,261.4,396.244"/>
			<path fill="none" stroke="#000000" stroke-width="0.75" stroke-miterlimit="10" d="M274.981,396.244
				c0,13.406,10.872,24.278,24.28,24.278s24.278-10.872,24.278-24.278c0-13.411-10.869-24.281-24.278-24.281
				S274.981,382.833,274.981,396.244"/>
			<path fill="none" stroke="#000000" stroke-width="0.75" stroke-miterlimit="10" d="M287.899,396.244
				c0,6.681,5.417,12.103,12.104,12.103c6.683,0,12.1-5.422,12.1-12.103c0-6.685-5.417-12.105-12.1-12.105
				C293.316,384.139,287.899,389.56,287.899,396.244"/>
			<path fill="none" stroke="#000000" stroke-width="0.75" stroke-miterlimit="10" d="M488.13,370.9
				c-144.409,10.375-291.149,42.875-426.822,93.41"/>
			<path fill="none" stroke="#000000" stroke-width="0.75" stroke-miterlimit="10" d="M485.475,345.244
				C337.325,366.802,195.931,434.91,83.305,533.545"/>
			<path fill="none" stroke="#000000" stroke-width="0.75" stroke-miterlimit="10" d="M480.632,319.032
				C326.138,353.565,194.9,454.798,122.27,595.453"/>
			<path fill="none" stroke="#000000" stroke-width="0.75" stroke-miterlimit="10" d="M473.393,291.892
				c-163.754,50.533-280.38,195.482-294.69,366.257"/>
			<path fill="none" stroke="#000000" stroke-width="0.75" stroke-miterlimit="10" d="M463.32,263.558
				c-134.935,54.57-223.258,185.566-223.258,331.12c0,39.448,6.535,78.621,19.339,115.931"/>
			<path fill="none" stroke="#000000" stroke-width="0.75" stroke-miterlimit="10" d="M449.603,233.697
				C342.833,288.898,275.78,399.056,275.78,519.248c0,61.842,17.837,122.369,51.37,174.327"/>
			<path fill="none" stroke="#000000" stroke-width="0.75" stroke-miterlimit="10" d="M431.168,202.11
				c-85.332,55.964-136.737,151.152-136.737,253.204c0,75.137,27.938,147.593,78.381,203.282"/>
			<path fill="none" stroke="#000000" stroke-width="0.75" stroke-miterlimit="10" d="M406.344,168.746
				c-67.245,56.426-106.082,139.712-106.082,227.499c0,87.783,38.836,171.069,106.082,227.495"/>
			<path fill="none" stroke="#000000" stroke-width="0.75" stroke-miterlimit="10" d="M372.812,133.89
				c-50.443,55.689-78.381,128.146-78.381,203.283c0,102.049,51.405,197.235,136.737,253.203"/>
			<path fill="none" stroke="#000000" stroke-width="0.75" stroke-miterlimit="10" d="M327.15,98.911
				c-33.533,51.956-51.37,112.486-51.37,174.327c0,120.192,67.052,230.351,173.822,285.551"/>
			<path fill="none" stroke="#000000" stroke-width="0.75" stroke-miterlimit="10" d="M259.401,81.875
				c-12.804,37.312-19.339,76.487-19.339,115.932c0,145.552,88.323,276.55,223.258,331.121"/>
			<path fill="none" stroke="#000000" stroke-width="0.75" stroke-miterlimit="10" d="M178.703,134.338
				c14.31,170.771,130.936,315.724,294.69,366.253"/>
			<path fill="none" stroke="#000000" stroke-width="0.75" stroke-miterlimit="10" d="M122.27,197.032
				c72.63,140.657,203.868,241.889,358.362,276.423"/>
			<path fill="none" stroke="#000000" stroke-width="0.75" stroke-miterlimit="10" d="M85.949,263.101
				c112.626,98.63,251.376,162.58,399.526,184.139"/>
			<path fill="none" stroke="#000000" stroke-width="0.75" stroke-miterlimit="10" d="M61.222,328.127
				c135.673,50.538,282.5,83.081,426.908,93.457"/>
		</g>
		
			<path fill-rule="evenodd" clip-rule="evenodd" fill="none" stroke="#000000" stroke-width="2" stroke-linecap="round" stroke-linejoin="round" stroke-miterlimit="10" d="
			M224.921,741.666c13.69,7.712,28.405,13.071,43.045,18.56c15.406,5.776,31.357,9.888,47.336,13.548
			c6.644,1.518,13.86,2.014,20.578,3.32c11.321,2.205,22.765,2.64,34.097,4.223c8.898,1.247,18.052,0.336,27.067,0.36
			c3.437,0.008,7.132,0.17,10.634,0.082c17.32-0.442,34.456-2.177,51.527-5.018c38.357-6.371,74.869-18.03,109.538-35.932
			c15.96-8.237,31.397-17.061,46.138-27.263c19.836-13.733,38.489-28.716,55.41-46.074c12.071-12.377,23.248-25.381,33.775-38.992
			c12.655-16.367,23.686-33.841,33.461-52.059c10.153-18.918,18.645-38.663,25.357-59.005c5.996-18.175,10.793-36.846,13.709-55.766
			c1.452-9.446,3.198-18.936,3.714-28.628c0.733-13.812,2.106-27.602,1.842-41.448c-0.261-13.863-1.464-27.65-2.976-41.459
			c-2.513-22.972-7.485-45.365-14.05-67.426c-4.32-14.506-9.513-28.729-15.817-42.545c-10.984-24.075-23.925-47.027-39.412-68.469
			c-12.458-17.242-26.036-33.515-41.252-48.515c-14.029-13.83-28.937-26.454-44.73-38.152
			c-16.812-12.455-34.519-23.391-53.13-32.941c-21.172-10.862-43.113-19.74-65.904-26.485c-16.716-4.945-33.721-8.664-50.984-11.234
			c-22.03-3.28-44.148-4.695-66.412-4.24c-16.045,0.327-31.933,1.919-47.83,4.145c-18.39,2.575-36.409,6.593-54.154,11.871
			c-20.327,6.045-40.061,13.667-58.989,23.312c-19.685,10.031-38.57,21.154-56.522,34.247
			c-16.684,12.166-32.472,25.209-46.934,39.74c-18.624,18.71-35.177,39.177-49.679,61.402
			c-17.874,27.393-32.292,56.314-42.917,87.208c-6.63,19.278-11.705,39.001-15.187,59.012c-3.532,20.312-5.553,40.905-5.451,61.59
			c0.056,11.159,0.123,22.361,1.113,33.46c2.609,29.26,8.206,57.977,16.876,86.08c5.929,19.204,13.508,37.823,22.514,55.681
			c17.94,35.581,40.658,68.034,68.421,96.711c14.865,15.353,30.838,29.558,48.26,42.055c17.62,12.643,35.667,24.562,55.232,34.046
			c0.775,0.376,1.43,0.359,2.156,0.47"/>
		
			<circle fill-rule="evenodd" clip-rule="evenodd" fill="none" stroke="#000000" stroke-width="2" stroke-linecap="round" stroke-linejoin="round" stroke-miterlimit="10" cx="396" cy="396" r="341.527"/>
		<g>
			<path d="M381.462,96.483h-14.623V95.23c1.421-1.838,3.008-3.468,4.721-4.972c0.501-0.501,3.217-2.966,3.76-3.426
				c3.467-2.924,6.183-7.019,6.183-12.074c0-2.173-1.128-3.969-3.468-3.969c-3.509,0-5.64,2.799-5.64,4.178
				c0,0.125,0.167,0.668,0.585,0.668l0.919-0.083c1.295,0,1.796,0.71,1.796,1.671c0,1.211-1.003,2.005-2.047,2.005
				c-1.671,0-2.59-1.629-2.59-3.05c0-2.465,2.256-6.434,7.688-6.434c4.763,0,6.852,3.092,6.852,5.724
				c0,3.718-2.966,6.309-8.147,10.821c-5.473,4.763-5.765,5.055-7.562,6.894h8.689c2.006,0,2.507,0,3.134-2.34
				c0.125-0.418,0.292-1.086,0.376-1.253h1.002L381.462,96.483z"/>
			<path d="M396.834,95.439h4.555l-0.209,1.044h-12.743l0.208-1.044h4.262l5.264-24.064h-4.804l0.208-1.044h2.716
				c3.844,0,4.68-0.209,5.975-0.585L396.834,95.439z"/>
			<path d="M426.662,70.079c-6.226,0.209-9.818,5.097-11.907,10.946l0.084,0.083c0.794-0.752,2.423-2.047,4.972-2.047
				c3.509,0,6.016,3.259,6.016,6.769c0,5.097-4.094,11.28-9.984,11.28c-4.889,0-6.936-4.178-6.936-8.188
				c0-8.773,7.688-19.761,17.756-19.803V70.079z M412.248,92.849c0,2.757,2.424,3.342,3.51,3.342c1.295,0,2.34-0.71,2.716-1.128
				c1.253-1.42,3.509-6.142,3.509-11.406c0-1.546-0.668-3.551-2.674-3.551c-2.423,0-4.178,1.838-5.097,2.757
				C413.794,84.284,412.248,89.841,412.248,92.849z"/>
		</g>
		<g>
			<path d="M690.649,393.064c0.668-0.292,2.256-0.919,4.512-0.919c3.51,0,7.437,1.922,7.437,6.81c0,4.555-3.718,9.484-9.985,9.484
				c-3.635,0-6.1-2.173-6.1-4.763c0-1.588,0.961-2.382,2.215-2.382c1.629,0,1.922,1.295,1.922,1.88c0,1.17-0.711,1.504-1.588,1.88
				c-0.376,0.168-0.46,0.418-0.46,0.585c0,1.045,2.298,1.797,3.677,1.797c1.254,0,2.465-0.418,3.217-1.003
				c1.88-1.462,3.05-5.222,3.05-8.355c0-2.298-0.585-3.175-1.337-3.76c-0.919-0.711-2.089-1.045-3.008-1.045
				c-0.585,0-1.964,0.084-3.886,1.17l-1.002-0.125l2.715-10.821c0.46-1.797,1.003-1.797,3.092-1.797h4.805
				c2.716,0,2.967-0.125,3.552-1.337h0.96c-0.626,2.34-1.462,3.551-2.381,4.136s-1.922,0.585-2.925,0.585h-6.434L690.649,393.064z"
				/>
			<path d="M718.43,394.443c2.298,0.877,4.847,2.59,4.847,5.808c0,4.721-4.512,8.188-9.525,8.188c-4.972,0-7.479-3.385-7.479-6.56
				c0-2.256,1.588-6.184,7.729-7.646v-0.083c-2.842-1.254-4.137-3.343-4.137-5.641c0-4.554,4.429-7.437,8.648-7.437
				c4.471,0,6.769,3.05,6.769,6.1c0,1.755-0.627,5.39-6.853,7.186V394.443z M713.793,407.521c1.337,0,2.507-0.585,3.092-1.212
				c1.295-1.421,2.465-4.638,2.465-7.896c0-1.128-0.168-2.423-1.212-3.008c-0.877-0.501-1.671-0.585-2.173-0.585
				c-2.799,0-4.261,2.173-4.972,4.429c-0.71,2.298-0.71,4.596-0.71,4.888C710.283,407.479,713.333,407.521,713.793,407.521z
				 M716.508,393.9c0.92,0,1.797-0.376,2.382-1.003c1.253-1.337,2.549-4.178,2.549-7.353c0-0.71-0.167-3.551-2.967-3.551
				c-4.261,0-4.763,7.312-4.763,9.024C713.709,391.31,713.709,393.9,716.508,393.9z"/>
		</g>
		<g>
			<path d="M380.544,715.226h-14.623v-1.253c1.421-1.839,3.008-3.468,4.721-4.972c0.501-0.502,3.217-2.967,3.76-3.426
				c3.467-2.925,6.183-7.02,6.183-12.074c0-2.173-1.128-3.969-3.468-3.969c-3.509,0-5.64,2.799-5.64,4.178
				c0,0.125,0.167,0.668,0.585,0.668l0.919-0.083c1.295,0,1.796,0.71,1.796,1.671c0,1.212-1.003,2.005-2.047,2.005
				c-1.671,0-2.59-1.629-2.59-3.05c0-2.465,2.256-6.434,7.688-6.434c4.763,0,6.852,3.092,6.852,5.724
				c0,3.719-2.966,6.309-8.147,10.82c-5.473,4.763-5.765,5.056-7.562,6.894h8.689c2.006,0,2.507,0,3.134-2.339
				c0.125-0.418,0.292-1.087,0.376-1.254h1.002L380.544,715.226z"/>
			<path d="M395.916,714.181h4.555l-0.209,1.045h-12.743l0.208-1.045h4.262l5.264-24.064h-4.804l0.208-1.044h2.716
				c3.844,0,4.68-0.209,5.975-0.585L395.916,714.181z"/>
			<path d="M419.143,701.856c2.298,0.877,4.847,2.59,4.847,5.808c0,4.721-4.512,8.188-9.525,8.188c-4.972,0-7.479-3.385-7.479-6.56
				c0-2.256,1.588-6.184,7.729-7.646v-0.083c-2.842-1.254-4.137-3.343-4.137-5.641c0-4.554,4.429-7.437,8.648-7.437
				c4.471,0,6.769,3.05,6.769,6.1c0,1.755-0.627,5.39-6.853,7.186V701.856z M414.506,714.934c1.337,0,2.507-0.585,3.092-1.212
				c1.295-1.421,2.465-4.638,2.465-7.896c0-1.128-0.168-2.423-1.212-3.008c-0.877-0.501-1.671-0.585-2.173-0.585
				c-2.799,0-4.261,2.173-4.972,4.429c-0.71,2.298-0.71,4.596-0.71,4.888C410.996,714.892,414.046,714.934,414.506,714.934z
				 M417.221,701.313c0.92,0,1.797-0.376,2.382-1.003c1.253-1.337,2.549-4.178,2.549-7.353c0-0.711-0.167-3.552-2.967-3.552
				c-4.261,0-4.763,7.312-4.763,9.024C414.422,698.723,414.422,701.313,417.221,701.313z"/>
		</g>
		<g>
			<path d="M81.032,408.405l-14.611-0.591l0.051-1.252c1.494-1.779,3.146-3.344,4.918-4.776c0.521-0.481,3.333-2.834,3.895-3.271
				c3.583-2.782,6.462-6.763,6.667-11.814c0.088-2.171-0.967-4.012-3.305-4.106c-3.507-0.142-5.748,2.57-5.804,3.947
				c-0.005,0.125,0.139,0.674,0.557,0.691l0.921-0.046c1.294,0.052,1.767,0.782,1.728,1.743c-0.049,1.21-1.083,1.963-2.126,1.921
				c-1.67-0.067-2.522-1.732-2.465-3.152c0.1-2.463,2.514-6.337,7.94-6.118c4.759,0.192,6.721,3.366,6.614,5.995
				c-0.15,3.715-3.217,6.184-8.577,10.483c-5.661,4.538-5.965,4.818-7.833,6.583l8.682,0.351c2.005,0.081,2.505,0.102,3.227-2.211
				c0.141-0.413,0.335-1.073,0.425-1.237l1.002,0.041L81.032,408.405z"/>
			<path d="M98.387,394.849c1.369,0.265,6.01,1.33,5.809,6.298c-0.199,4.926-5.239,8.568-10.123,8.371
				c-3.966-0.16-6.371-2.724-6.273-5.145c0.062-1.545,1.147-2.547,2.483-2.493c1.002,0.041,1.893,0.788,1.845,1.956
				c-0.01,0.251-0.098,1.376-1.286,1.83c-0.382,0.151-0.851,0.342-0.868,0.759c-0.03,0.752,1.931,1.877,3.559,1.942
				c4.468,0.181,6.388-4.927,6.535-8.559c0.059-1.461-0.075-4.352-3.54-4.491c-0.584-0.023-1.255,0.033-1.383,0.069
				c-1.007,0.085-1.134,0.121-1.3,0.114c-0.376-0.015-0.743-0.238-0.725-0.698c0.027-0.668,0.742-0.764,1.075-0.75
				c0.209,0.008,0.625,0.066,1.248,0.175c0.917,0.079,1.623,0.191,2.814-0.304c1.617-0.688,3.574-3.619,3.713-7.042
				c0.074-1.837-0.569-3.494-2.865-3.586c-1.921-0.078-3.508,0.904-3.53,1.447c-0.005,0.125,0.03,0.293,0.152,0.382
				c0.123,0.088,0.566,0.482,0.649,0.528c0.202,0.175,0.427,0.77,0.407,1.271c-0.03,0.752-0.536,1.902-2.039,1.841
				c-1.336-0.054-1.876-1.163-1.842-1.998c0.091-2.254,2.858-4.525,6.866-4.363c3.924,0.158,6.246,2.719,6.128,5.642
				c-0.17,4.215-3.923,6.03-7.506,6.721L98.387,394.849z"/>
			<path d="M120.139,396.606c2.26,0.969,4.737,2.783,4.607,5.998c-0.191,4.717-4.838,7.999-9.848,7.797
				c-4.967-0.201-7.335-3.684-7.207-6.856c0.091-2.254,1.835-6.113,8.031-7.326l0.003-0.084c-2.788-1.367-3.998-3.506-3.905-5.802
				c0.184-4.55,4.725-7.252,8.941-7.082c4.468,0.181,6.64,3.321,6.517,6.368c-0.071,1.753-0.845,5.36-7.137,6.903L120.139,396.606z
				 M114.978,409.484c1.336,0.055,2.528-0.482,3.139-1.085c1.351-1.367,2.65-4.534,2.782-7.791c0.045-1.127-0.07-2.428-1.09-3.054
				c-0.855-0.537-1.646-0.652-2.147-0.673c-2.797-0.112-4.346,1.999-5.146,4.225c-0.803,2.268-0.896,4.563-0.908,4.855
				C111.472,409.302,114.519,409.466,114.978,409.484z M118.24,395.986c0.919,0.037,1.811-0.304,2.42-0.906
				c1.306-1.285,2.715-4.072,2.844-7.244c0.029-0.709-0.023-3.556-2.82-3.668c-4.258-0.172-5.055,7.113-5.125,8.825
				C115.548,393.284,115.443,395.873,118.24,395.986z"/>
		</g>
		<g>
			<path fill="none" stroke="#000000" stroke-width="0.75" stroke-miterlimit="10" d="M72.645,286.589
				c56.988,126.017,183.522,207.146,323.084,207.146c139.566,0,266.1-81.13,323.088-207.146"/>
			<path fill="none" stroke="#000000" stroke-width="0.75" stroke-miterlimit="10" d="M93.034,238.216
				C125.273,377.908,250.878,482.77,395.729,482.77c144.853,0,270.459-105.898,302.698-245.591"/>
			<path fill="none" stroke="#000000" stroke-width="0.75" stroke-miterlimit="10" d="M121.314,193.024
				c0.605,149.489,123.288,279.095,274.415,279.095c151.131,0,274.205-129.803,274.812-279.293"/>
			<path fill="none" stroke="#000000" stroke-width="0.75" stroke-miterlimit="10" d="M162.092,156.683
				c-5.177,19.755-10.098,43.529-10.098,63.938c0,133.154,109.125,241.098,243.735,241.098
				c134.614,0,243.738-107.944,243.738-241.098c0-20.409-2.617-40.735-7.795-60.489"/>
			<path fill="none" stroke="#000000" stroke-width="0.75" stroke-miterlimit="10" d="M217.51,106.56
				c-23.003,34.891-38.869,88.552-38.869,130.207c0,118.596,97.196,214.737,217.088,214.737
				c119.896,0,217.089-96.142,217.089-214.737c0-41.655-8.283-76.163-31.286-111.054"/>
			<path fill="none" stroke="#000000" stroke-width="0.75" stroke-miterlimit="10" d="M300.259,83.905
				C236.13,116.83,202.2,178.548,202.2,250.018c0,105.729,86.648,191.44,193.53,191.44c106.886,0,193.531-85.71,193.531-191.44
				c0-71.47-32.322-130.761-96.451-163.686"/>
			<path fill="none" stroke="#000000" stroke-width="0.75" stroke-miterlimit="10" d="M395.729,118.551
				c-84.611,0-153.207,67.851-153.207,151.548c0,83.697,68.595,151.549,153.207,151.549c84.616,0,153.209-67.853,153.209-151.549
				C548.938,186.401,480.346,118.551,395.729,118.551"/>
			<path fill="none" stroke="#000000" stroke-width="0.75" stroke-miterlimit="10" d="M395.729,143.61
				c-74.873,0-135.57,60.042-135.57,134.104c0,74.066,60.698,134.103,135.57,134.103c74.877,0,135.574-60.037,135.574-134.103
				C531.304,203.652,470.606,143.61,395.729,143.61"/>
			<path fill="none" stroke="#000000" stroke-width="0.75" stroke-miterlimit="10" d="M395.729,166.219
				c-65.816,0-119.175,52.779-119.175,117.884S329.914,401.99,395.729,401.99c65.819,0,119.176-52.782,119.176-117.887
				S461.549,166.219,395.729,166.219"/>
			<path fill="none" stroke="#000000" stroke-width="0.75" stroke-miterlimit="10" d="M395.729,186.774
				c-57.324,0-103.797,45.969-103.797,102.674c0,56.703,46.473,102.673,103.797,102.673c57.327,0,103.801-45.97,103.801-102.673
				C499.53,232.743,453.057,186.774,395.729,186.774"/>
			<path fill="none" stroke="#000000" stroke-width="0.75" stroke-miterlimit="10" d="M395.729,205.611
				c-49.291,0-89.251,39.527-89.251,88.285c0,48.76,39.961,88.287,89.251,88.287c49.294,0,89.254-39.527,89.254-88.287
				C484.983,245.138,445.023,205.611,395.729,205.611"/>
			<path fill="none" stroke="#000000" stroke-width="0.75" stroke-miterlimit="10" d="M395.729,222.982
				c-41.637,0-75.39,33.388-75.39,74.575c0,41.186,33.753,74.576,75.39,74.576c41.639,0,75.393-33.39,75.393-74.576
				C471.122,256.37,437.368,222.982,395.729,222.982"/>
			<path fill="none" stroke="#000000" stroke-width="0.75" stroke-miterlimit="10" d="M395.729,239.146
				c-34.277,0-62.067,27.487-62.067,61.397c0,33.905,27.79,61.393,62.067,61.393c34.279,0,62.069-27.487,62.069-61.393
				C457.799,266.633,430.009,239.146,395.729,239.146"/>
			<path fill="none" stroke="#000000" stroke-width="0.75" stroke-miterlimit="10" d="M395.729,254.246
				c-27.152,0-49.168,21.777-49.168,48.638c0,26.861,22.016,48.639,49.168,48.639c27.156,0,49.171-21.777,49.171-48.639
				C444.9,276.023,422.886,254.246,395.729,254.246"/>
			<path fill="none" stroke="#000000" stroke-width="0.75" stroke-miterlimit="10" d="M395.729,268.453
				c-20.213,0-36.603,16.212-36.603,36.209s16.39,36.206,36.603,36.206c20.218,0,36.604-16.209,36.604-36.206
				S415.947,268.453,395.729,268.453"/>
			<path fill="none" stroke="#000000" stroke-width="0.75" stroke-miterlimit="10" d="M395.729,281.889
				c-13.406,0-24.278,10.753-24.278,24.018c0,13.263,10.872,24.013,24.278,24.013c13.411,0,24.281-10.75,24.281-24.013
				C420.011,292.642,409.141,281.889,395.729,281.889"/>
			<path fill="none" stroke="#000000" stroke-width="0.75" stroke-miterlimit="10" d="M395.729,294.665
				c-6.682,0-12.102,5.359-12.102,11.974c0,6.61,5.42,11.97,12.102,11.97c6.685,0,12.105-5.359,12.105-11.97
				C407.835,300.024,402.414,294.665,395.729,294.665"/>
			<path fill="none" stroke="#000000" stroke-width="0.75" stroke-miterlimit="10" d="M421.073,492.729
				c-10.375-142.844-35.305-254.292-85.841-388.496"/>
			<path fill="none" stroke="#000000" stroke-width="0.75" stroke-miterlimit="10" d="M446.73,490.104
				c-21.559-146.547-88.696-296.822-187.329-408.229"/>
			<path fill="none" stroke="#000000" stroke-width="0.75" stroke-miterlimit="10" d="M472.941,485.312
				c-34.532-152.821-135.764-282.64-276.421-354.484"/>
			<path fill="none" stroke="#000000" stroke-width="0.75" stroke-miterlimit="10" d="M500.081,478.15
				C449.549,316.169,296.825,200.93,126.052,186.774"/>
			<path fill="none" stroke="#000000" stroke-width="0.75" stroke-miterlimit="10" d="M528.416,468.189
				c-54.57-133.475-185.566-220.843-331.12-220.843c-39.447,0-78.621,6.463-115.931,19.129"/>
			<path fill="none" stroke="#000000" stroke-width="0.75" stroke-miterlimit="10" d="M558.276,454.619
				c-55.2-105.616-165.357-171.941-285.552-171.941c-61.84,0-122.368,17.644-174.326,50.815"/>
			<path fill="none" stroke="#000000" stroke-width="0.75" stroke-miterlimit="10" d="M589.864,436.383
				c-55.966-84.408-151.153-135.256-253.204-135.256c-75.138,0-147.595,27.635-203.283,77.533"/>
			<path fill="none" stroke="#000000" stroke-width="0.75" stroke-miterlimit="10" d="M623.228,411.829
				c-56.426-66.518-139.712-104.936-227.498-104.936c-87.782,0-171.07,38.417-227.496,104.936"/>
			<path fill="none" stroke="#000000" stroke-width="0.75" stroke-miterlimit="10" d="M658.084,378.659
				c-55.689-49.898-128.146-77.533-203.283-77.533c-102.049,0-197.236,50.848-253.203,135.256"/>
			<path fill="none" stroke="#000000" stroke-width="0.75" stroke-miterlimit="10" d="M693.063,333.493
				c-51.956-33.171-112.486-50.815-174.327-50.815c-120.192,0-230.35,66.326-285.552,171.941"/>
			<path fill="none" stroke="#000000" stroke-width="0.75" stroke-miterlimit="10" d="M710.099,266.476
				c-37.312-12.666-76.486-19.129-115.933-19.129c-145.552,0-276.549,87.368-331.12,220.843"/>
			<path fill="none" stroke="#000000" stroke-width="0.75" stroke-miterlimit="10" d="M665.95,186.774
				C495.179,200.93,341.913,316.169,291.382,478.15"/>
			<path fill="none" stroke="#000000" stroke-width="0.75" stroke-miterlimit="10" d="M606.82,127.29
				c-140.656,71.845-253.768,205.201-288.3,358.022"/>
			<path fill="none" stroke="#000000" stroke-width="0.75" stroke-miterlimit="10" d="M535.068,83.982
				c-98.632,111.407-168.776,259.574-190.335,406.122"/>
			<path fill="none" stroke="#000000" stroke-width="0.75" stroke-miterlimit="10" d="M448.839,112.059
				c-50.537,134.204-68.073,237.826-78.449,380.67"/>
		</g>
		
			<line fill="none" stroke="#000000" stroke-width="5" stroke-miterlimit="10" x1="396.001" y1="567.816" x2="396.001" y2="684.163"/>
		
			<line fill="none" stroke="#000000" stroke-width="5" stroke-miterlimit="10" x1="280.971" y1="215.309" x2="191.949" y2="120.979"/>
		
			<line fill="none" stroke="#000000" stroke-width="5" stroke-miterlimit="10" x1="511.029" y1="215.309" x2="588.997" y2="114.583"/>
		
			<line fill="none" stroke="#000000" stroke-width="5" stroke-miterlimit="10" x1="210.467" y1="432.999" x2="69.257" y2="495.685"/>
		
			<line fill="none" stroke="#000000" stroke-width="5" stroke-miterlimit="10" x1="581.532" y1="432.999" x2="726.953" y2="478.15"/>
		<path fill="#FFFFFF" stroke="#010101" stroke-width="5" stroke-miterlimit="10" d="M511.029,215.309L396.001,567.816
			l-115.03-352.507l300.562,217.69H210.467L511.029,215.309z"/>
	</g>
</g>
</svg>
