<?xml version="1.0" encoding="utf-8"?>
<!-- Generator: Adobe Illustrator 16.0.0, SVG Export Plug-In . SVG Version: 6.00 Build 0)  -->
<!DOCTYPE svg PUBLIC "-//W3C//DTD SVG 1.1//EN" "http://www.w3.org/Graphics/SVG/1.1/DTD/svg11.dtd">
<svg version="1.1" id="Layer_1" xmlns="http://www.w3.org/2000/svg" xmlns:xlink="http://www.w3.org/1999/xlink" x="0px" y="0px"
	 width="792px" height="792px" viewBox="0 0 792 792" enable-background="new 0 0 792 792" xml:space="preserve">
<g id="Layer_2">
</g>
<g id="Layer_1_1_">
</g>
<circle fill="#FFFFFF" cx="396" cy="396" r="386.183"/>
<g id="Layer_3">
	<g>
		<g>
			<path d="M353.474,17.7l4.472,38.429l-2.241,0.262l-4.471-38.431L353.474,17.7z"/>
			<path d="M377.247,40.191l8.146-0.125l-0.039-2.507c-1.314-0.341-2.485-0.874-3.513-1.596c-1.028-0.722-1.891-1.586-2.589-2.592
				c-0.699-1.005-1.238-2.119-1.619-3.338c-0.381-1.22-0.581-2.484-0.602-3.793c-0.029-1.865,0.3-3.59,0.984-5.176
				c0.688-1.583,1.625-2.949,2.819-4.096c1.194-1.146,2.594-2.052,4.199-2.718c1.604-0.665,3.327-1.013,5.165-1.042
				c1.81-0.028,3.535,0.259,5.173,0.86c1.638,0.601,3.073,1.456,4.301,2.565c1.229,1.108,2.211,2.438,2.944,3.987
				c0.734,1.549,1.116,3.256,1.146,5.121c0.021,1.336-0.142,2.621-0.482,3.851c-0.344,1.231-0.849,2.36-1.516,3.387
				c-0.666,1.027-1.502,1.924-2.507,2.692s-2.158,1.342-3.461,1.725l0.038,2.506l8.146-0.126l0.053,3.341l-10.61,0.165l-0.134-8.604
				c2.221-0.508,3.876-1.522,4.967-3.044c1.09-1.521,1.618-3.423,1.582-5.707c-0.021-1.364-0.264-2.621-0.727-3.769
				c-0.464-1.148-1.105-2.142-1.928-2.979c-0.821-0.836-1.827-1.489-3.017-1.959c-1.192-0.467-2.512-0.692-3.959-0.669
				c-1.449,0.022-2.747,0.287-3.895,0.792c-1.148,0.505-2.128,1.188-2.936,2.051c-0.809,0.862-1.419,1.882-1.833,3.057
				c-0.414,1.177-0.61,2.433-0.59,3.77c0.035,2.2,0.613,4.079,1.739,5.635c1.124,1.556,2.816,2.525,5.079,2.908l0.133,8.604
				l-10.61,0.165L377.247,40.191z"/>
			<path d="M430.684,16.875l-3.418,38.534l-2.247-0.199l3.418-38.535L430.684,16.875z"/>
			<path d="M456.966,47.557l4.484,0.791l-0.388,0.992l-12.55-2.212l0.389-0.991l4.196,0.739l9.359-22.784l-4.73-0.834l0.387-0.992
				l2.675,0.471c3.785,0.667,4.645,0.605,5.985,0.46L456.966,47.557z"/>
			<path d="M494.526,28.317l-9.938,37.386l-2.18-0.58l9.938-37.387L494.526,28.317z"/>
			<path d="M515.193,63.004l4.286,1.538l-0.551,0.913l-11.992-4.306l0.551-0.912l4.011,1.439l13.085-20.87l-4.521-1.623l0.551-0.913
				l2.555,0.918c3.618,1.298,4.475,1.384,5.82,1.469L515.193,63.004z"/>
			<path d="M555.487,50.408L539.37,85.579l-2.051-0.94l16.116-35.17L555.487,50.408z"/>
			<path d="M576.591,67.688c2.508-1.126,5.829-2.079,8.374-0.641c4,2.26,2.728,7.826,0.754,11.317
				c-4.768,8.436-14.396,12.398-18.648,9.994c-2.146-1.211-4.37-4.916-0.651-11.499C568.001,74.061,570.755,70.291,576.591,67.688z
				 M567.449,87.518c3.781,2.137,7.778-2.56,15.12-11.221c1.153-1.363,2.316-2.913,2.831-3.822c0.802-1.417,1.076-3.518-0.925-4.647
				c-2.582-1.459-5.525,1.29-6.702,2.354c-0.118,0.125-8.529,8.133-10.954,12.424C565.545,84.858,565.885,86.634,567.449,87.518z"/>
			<path d="M611.806,82.461l-21.812,31.946l-1.863-1.273l21.814-31.945L611.806,82.461z"/>
			<path d="M619.762,122.067l3.528,2.877l-0.821,0.678l-9.872-8.055l0.821-0.677l3.302,2.694l19.288-15.316l-3.723-3.037
				l0.822-0.677l2.104,1.717c2.979,2.429,3.757,2.796,4.998,3.322L619.762,122.067z"/>
			<path d="M661.935,123.603l-26.914,27.787l-1.619-1.569l26.913-27.787L661.935,123.603z"/>
			<path d="M663.037,163.977l2.986,3.436l-0.926,0.527l-8.357-9.615l0.926-0.527l2.795,3.216l21.612-11.812l-3.151-3.625
				l0.926-0.528l1.781,2.048c2.521,2.901,3.227,3.394,4.359,4.125L663.037,163.977z"/>
			<path d="M704.346,172.703l-31.267,22.779l-1.328-1.824l31.268-22.777L704.346,172.703z"/>
			<path d="M714.293,198.118c2.737,0.248,6.1,1.046,7.613,3.548c2.377,3.933-1.463,8.157-4.895,10.232
				c-8.294,5.015-18.629,3.746-21.156-0.437c-1.275-2.108-1.397-6.428,5.071-10.34C703.68,199.457,707.93,197.524,714.293,198.118z
				 M696.599,210.917c2.248,3.717,8.036,1.583,18.684-2.364c1.674-0.622,3.447-1.403,4.342-1.942
				c1.394-0.843,2.663-2.537,1.475-4.503c-1.534-2.539-5.448-1.586-6.996-1.237c-0.164,0.051-11.424,2.904-15.642,5.456
				C696.243,207.664,695.669,209.378,696.599,210.917z"/>
			<path d="M737.73,228.314l-34.69,17.1l-0.997-2.023l34.691-17.1L737.73,228.314z"/>
			<path d="M743.197,255.028c2.655,0.709,5.834,2.067,6.899,4.791c1.675,4.279-2.827,7.792-6.562,9.253
				c-9.025,3.534-18.997,0.526-20.778-4.025c-0.897-2.296-0.285-6.572,6.757-9.329C732.51,254.545,737.026,253.36,743.197,255.028z
				 M723.582,264.635c1.584,4.046,7.651,2.927,18.816,0.845c1.756-0.327,3.637-0.795,4.608-1.176
				c1.518-0.594,3.058-2.049,2.219-4.188c-1.081-2.763-5.103-2.49-6.686-2.408c-0.171,0.021-11.753,0.92-16.344,2.718
				C723.785,261.37,722.928,262.961,723.582,264.635z"/>
			<path d="M761.182,288.719l-37.072,11.03l-0.645-2.162l37.074-11.029L761.182,288.719z"/>
			<path d="M762.09,315.985c2.499,1.146,5.405,3.017,6,5.881c0.936,4.5-4.094,7.208-8.021,8.022
				c-9.49,1.97-18.815-2.665-19.811-7.451c-0.501-2.414,0.821-6.529,8.227-8.065C751.635,313.72,756.286,313.309,762.09,315.985z
				 M741.143,322.169c0.885,4.255,7.054,4.169,18.408,3.988c1.786-0.03,3.719-0.174,4.741-0.387c1.596-0.331,3.356-1.507,2.89-3.757
				c-0.604-2.905-4.612-3.311-6.188-3.496c-0.172-0.007-11.741-1.062-16.568-0.059C741.891,318.984,740.777,320.41,741.143,322.169z
				"/>
			<path d="M774.151,352.236l-38.404,4.595l-0.269-2.239l38.404-4.595L774.151,352.236z"/>
			<path d="M751.748,376.1l0.153,8.146l2.506-0.047c0.337-1.317,0.864-2.489,1.584-3.52c0.719-1.03,1.58-1.896,2.584-2.598
				c1.003-0.702,2.113-1.244,3.333-1.628c1.218-0.385,2.48-0.59,3.79-0.614c1.865-0.036,3.592,0.288,5.179,0.968
				c1.586,0.681,2.955,1.616,4.104,2.807c1.15,1.189,2.062,2.586,2.732,4.19c0.67,1.602,1.022,3.323,1.058,5.16
				c0.034,1.811-0.247,3.535-0.843,5.176s-1.447,3.077-2.552,4.311c-1.105,1.23-2.432,2.219-3.978,2.957
				c-1.546,0.74-3.252,1.127-5.116,1.161c-1.337,0.025-2.621-0.132-3.854-0.472c-1.231-0.339-2.363-0.84-3.393-1.503
				c-1.03-0.663-1.931-1.496-2.7-2.498c-0.771-1.002-1.351-2.154-1.735-3.457l-2.507,0.048l0.153,8.146l-3.342,0.062l-0.198-10.608
				l8.604-0.162c0.516,2.219,1.535,3.872,3.061,4.957c1.524,1.085,3.429,1.606,5.712,1.564c1.364-0.025,2.62-0.273,3.768-0.74
				c1.146-0.467,2.138-1.112,2.974-1.936c0.833-0.823,1.481-1.832,1.947-3.023c0.466-1.193,0.686-2.513,0.656-3.961
				c-0.026-1.448-0.296-2.746-0.804-3.892c-0.51-1.146-1.196-2.124-2.062-2.929c-0.864-0.806-1.886-1.413-3.062-1.822
				c-1.178-0.411-2.436-0.603-3.771-0.578c-2.198,0.042-4.075,0.627-5.628,1.757c-1.554,1.129-2.517,2.826-2.893,5.089l-8.604,0.162
				l-0.199-10.61L751.748,376.1z"/>
			<path d="M775.23,429.46l-38.538-3.301l0.191-2.247l38.54,3.301L775.23,429.46z"/>
			<path d="M766.08,455.177c1.904,1.981,3.921,4.788,3.423,7.67c-0.781,4.526-6.45,5.202-10.401,4.521
				c-9.549-1.649-16.521-9.381-15.689-14.196c0.419-2.429,3.157-5.77,10.606-4.484C757.188,449.232,761.664,450.557,766.08,455.177z
				 M744.33,453.244c-0.738,4.281,5.03,6.464,15.658,10.46c1.671,0.628,3.521,1.201,4.551,1.379
				c1.604,0.277,3.675-0.171,4.064-2.434c0.506-2.924-3.075-4.771-4.473-5.521c-0.157-0.069-10.53-5.293-15.387-6.133
				C746.193,450.557,744.636,451.474,744.33,453.244z"/>
			<path d="M764.006,493.331l-37.419-9.815l0.573-2.183l37.418,9.815L764.006,493.331z"/>
			<path d="M750.616,517.115c1.539,2.276,3.05,5.385,2.068,8.141c-1.54,4.33-7.241,4.029-11.02,2.688
				c-9.132-3.248-14.69-12.054-13.053-16.658c0.825-2.321,4.094-5.15,11.218-2.616C742.861,509.746,747.048,511.811,750.616,517.115
				z M729.508,511.514c-1.456,4.095,3.859,7.227,13.653,12.972c1.542,0.901,3.268,1.782,4.252,2.133
				c1.535,0.546,3.649,0.455,4.421-1.708c0.994-2.795-2.221-5.226-3.471-6.2c-0.144-0.096-9.479-7.007-14.123-8.66
				C731.801,509.182,730.109,509.821,729.508,511.514z"/>
			<path d="M742.115,554.342l-35.219-15.99l0.934-2.055l35.218,15.992L742.115,554.342z"/>
			<path d="M704.475,568.989l-2.229,3.972l-0.81-0.693l6.234-11.111l0.81,0.691l-2.086,3.718l18.411,16.364l2.352-4.189l0.809,0.692
				l-1.328,2.368c-1.881,3.354-2.106,4.184-2.413,5.496L704.475,568.989z"/>
			<path d="M710.226,610.802l-32.012-21.714l1.267-1.867l32.013,21.715L710.226,610.802z"/>
			<path d="M670.648,618.885l-2.867,3.537l-0.681-0.82l8.024-9.897l0.68,0.82l-2.684,3.312l15.379,19.242l3.025-3.732l0.68,0.819
				l-1.711,2.109c-2.42,2.986-2.783,3.768-3.308,5.011L670.648,618.885z"/>
			<path d="M669.262,661.042l-27.869-26.825l1.563-1.625l27.869,26.826L669.262,661.042z"/>
			<path d="M628.888,662.285l-3.428,3l-0.53-0.924l9.59-8.394l0.53,0.924l-3.208,2.808l11.886,21.577l3.615-3.164l0.531,0.923
				l-2.044,1.789c-2.894,2.531-3.384,3.237-4.111,4.374L628.888,662.285z"/>
			<path d="M620.303,703.612l-22.877-31.188l1.818-1.335l22.878,31.188L620.303,703.612z"/>
			<path d="M594.929,713.639c-0.239,2.738-1.027,6.104-3.524,7.623c-3.926,2.392-8.161-1.437-10.247-4.86
				c-5.041-8.276-3.805-18.615,0.37-21.156c2.104-1.281,6.424-1.418,10.355,5.039C593.555,703.031,595.503,707.273,594.929,713.639z
				 M582.076,695.986c-3.711,2.258-1.561,8.039,2.422,18.674c0.627,1.671,1.412,3.441,1.955,4.335
				c0.848,1.392,2.546,2.654,4.508,1.46c2.533-1.542,1.57-5.453,1.216-6.999c-0.052-0.165-2.939-11.415-5.504-15.624
				C585.326,695.62,583.61,695.052,582.076,695.986z"/>
			<path d="M564.798,737.191l-17.218-34.64l2.02-1.004l17.22,34.639L564.798,737.191z"/>
			<path d="M526.36,724.78l-4.235,1.671l-0.189-1.048l11.851-4.68l0.188,1.05l-3.963,1.563l3.942,24.312l4.468-1.766l0.189,1.048
				l-2.525,0.998c-3.574,1.411-4.275,1.913-5.342,2.737L526.36,724.78z"/>
			<path d="M504.474,760.83l-11.126-37.053l2.161-0.648l11.126,37.052L504.474,760.83z"/>
			<path d="M477.212,761.824c-1.138,2.503-2.999,5.415-5.86,6.019c-4.496,0.95-7.222-4.068-8.049-7.994
				c-2.002-9.482,2.604-18.823,7.387-19.833c2.41-0.509,6.529,0.801,8.093,8.198C479.445,751.362,479.871,756.011,477.212,761.824z
				 M470.96,740.898c-4.251,0.896-4.146,7.063-3.927,18.419c0.035,1.786,0.187,3.719,0.401,4.739
				c0.337,1.596,1.52,3.354,3.768,2.878c2.901-0.612,3.294-4.622,3.475-6.198c0.006-0.172,1.022-11.744,0.005-16.568
				C474.146,741.634,472.718,740.526,470.96,740.898z"/>
			<path d="M440.984,774.008l-4.724-38.392l2.239-0.276l4.722,38.394L440.984,774.008z"/>
			<path d="M417.066,751.678l-8.146,0.181l0.055,2.506c1.317,0.333,2.491,0.857,3.523,1.571c1.033,0.716,1.902,1.574,2.605,2.575
				c0.705,1.002,1.253,2.11,1.641,3.328c0.391,1.217,0.599,2.479,0.627,3.788c0.041,1.865-0.275,3.593-0.951,5.182
				c-0.675,1.59-1.604,2.961-2.792,4.114c-1.187,1.155-2.58,2.071-4.181,2.746c-1.602,0.676-3.32,1.034-5.158,1.074
				c-1.81,0.041-3.536-0.234-5.178-0.825c-1.645-0.59-3.083-1.438-4.32-2.537c-1.235-1.101-2.227-2.424-2.971-3.967
				c-0.744-1.544-1.138-3.248-1.179-5.113c-0.028-1.337,0.124-2.622,0.458-3.854c0.335-1.235,0.833-2.367,1.492-3.397
				c0.66-1.032,1.489-1.935,2.489-2.708c1.001-0.772,2.15-1.356,3.451-1.748l-0.057-2.506l-8.144,0.18l-0.073-3.342l10.609-0.232
				l0.188,8.604c-2.217,0.522-3.864,1.547-4.947,3.076c-1.079,1.528-1.597,3.433-1.545,5.717c0.029,1.363,0.28,2.619,0.752,3.766
				c0.471,1.146,1.118,2.134,1.945,2.965c0.827,0.832,1.837,1.479,3.031,1.939s2.515,0.676,3.963,0.644
				c1.447-0.031,2.744-0.304,3.89-0.815c1.145-0.514,2.118-1.204,2.921-2.072c0.803-0.866,1.406-1.891,1.812-3.066
				c0.405-1.18,0.594-2.438,0.564-3.774c-0.05-2.198-0.642-4.073-1.775-5.623c-1.134-1.549-2.834-2.507-5.099-2.874l-0.189-8.604
				l10.607-0.234L417.066,751.678z"/>
			<path d="M363.775,775.341l3.168-38.554l2.249,0.184l-3.169,38.556L363.775,775.341z"/>
			<path d="M337.311,744.839l-4.488-0.76l0.38-0.995l12.563,2.128l-0.38,0.993l-4.202-0.71l-9.208,22.849l4.737,0.803l-0.381,0.995
				l-2.677-0.454c-3.79-0.643-4.649-0.573-5.989-0.42L337.311,744.839z"/>
			<path d="M299.868,764.319l9.691-37.45l2.186,0.563l-9.692,37.451L299.868,764.319z"/>
			<path d="M278.969,729.762l-4.296-1.511l0.544-0.916l12.02,4.229l-0.544,0.916l-4.02-1.413l-12.951,20.951l4.531,1.596
				l-0.543,0.916l-2.562-0.901c-3.626-1.276-4.483-1.355-5.83-1.431L278.969,729.762z"/>
			<path d="M238.762,742.615l15.881-35.268l2.056,0.927l-15.88,35.267L238.762,742.615z"/>
			<path d="M217.537,725.477c-2.501,1.143-5.816,2.116-8.372,0.695c-4.016-2.236-2.777-7.81-0.827-11.312
				c4.713-8.47,14.317-12.495,18.587-10.117c2.154,1.199,4.403,4.89,0.726,11.497C226.086,719.048,223.356,722.836,217.537,725.477z
				 M226.552,705.585c-3.797-2.113-7.765,2.611-15.051,11.321c-1.146,1.369-2.299,2.927-2.808,3.84
				c-0.792,1.424-1.054,3.525,0.954,4.643c2.592,1.442,5.52-1.325,6.689-2.396c0.118-0.127,8.479-8.19,10.876-12.497
				C228.474,708.232,228.122,706.459,226.552,705.585z"/>
			<path d="M182.229,710.933l21.611-32.091l1.872,1.261l-21.611,32.092L182.229,710.933z"/>
			<path d="M174.024,671.379l-3.547-2.854l0.817-0.684l9.925,7.99l-0.818,0.682l-3.319-2.672l-19.189,15.443l3.742,3.013
				l-0.817,0.683l-2.115-1.703c-2.994-2.409-3.775-2.771-5.02-3.289L174.024,671.379z"/>
			<path d="M131.841,670.105l26.735-27.95l1.63,1.558l-26.736,27.952L131.841,670.105z"/>
			<path d="M130.469,629.746l-3.01-3.417l0.922-0.532l8.423,9.559l-0.922,0.533l-2.817-3.195l-21.532,11.956l3.175,3.604
				l-0.921,0.534l-1.795-2.038c-2.541-2.884-3.249-3.371-4.388-4.096L130.469,629.746z"/>
			<path d="M89.124,621.312l31.107-22.99l1.341,1.813l-31.107,22.991L89.124,621.312z"/>
			<path d="M79,595.947c-2.738-0.23-6.106-1.007-7.637-3.5c-2.403-3.916,1.409-8.166,4.827-10.265
				c8.26-5.068,18.603-3.868,21.159,0.298c1.29,2.101,1.44,6.419-5.005,10.374C89.604,594.537,85.368,596.499,79,595.947z
				 M96.609,583.032c-2.272-3.702-8.046-1.531-18.667,2.485c-1.67,0.634-3.439,1.426-4.329,1.973
				c-1.389,0.852-2.647,2.554-1.445,4.513c1.551,2.528,5.46,1.55,7.004,1.191c0.164-0.054,11.404-2.979,15.606-5.559
				C96.986,586.282,97.549,584.564,96.609,583.032z"/>
			<path d="M55.355,565.904l34.584-17.338l1.012,2.018l-34.585,17.337L55.355,565.904z"/>
			<path d="M67.649,527.438l-1.687-4.23l1.048-0.193l4.72,11.837l-1.048,0.193l-1.579-3.959l-24.302,4.023l1.779,4.463l-1.048,0.191
				l-1.006-2.522c-1.423-3.57-1.927-4.27-2.755-5.331L67.649,527.438z"/>
			<path d="M31.5,505.561l37.053-11.126l0.649,2.16l-37.053,11.128L31.5,505.561z"/>
			<path d="M30.442,478.389c-2.507-1.129-5.425-2.98-6.039-5.842c-0.963-4.493,4.046-7.232,7.968-8.075
				c9.478-2.031,18.833,2.542,19.858,7.321c0.517,2.41-0.778,6.534-8.172,8.119C40.913,480.586,36.265,481.028,30.442,478.389z
				 M51.349,472.068c-0.911-4.25-7.079-4.123-18.433-3.866c-1.786,0.041-3.718,0.198-4.739,0.418
				c-1.593,0.341-3.347,1.528-2.865,3.776c0.623,2.899,4.634,3.277,6.21,3.453c0.172,0.007,11.748,0.984,16.569-0.05
				C50.624,475.258,51.726,473.824,51.349,472.068z"/>
			<path d="M18.139,442.201l38.38-4.85l0.282,2.237l-38.379,4.851L18.139,442.201z"/>
			<path d="M40.394,418.212l-0.206-8.144l-2.505,0.062c-0.329,1.32-0.85,2.495-1.562,3.529c-0.711,1.036-1.566,1.906-2.566,2.614
				c-0.999,0.708-2.106,1.259-3.323,1.65c-1.215,0.395-2.477,0.606-3.786,0.641c-1.866,0.046-3.594-0.266-5.186-0.937
				c-1.59-0.67-2.965-1.596-4.124-2.778c-1.158-1.183-2.078-2.572-2.759-4.172c-0.681-1.599-1.045-3.315-1.092-5.153
				c-0.046-1.81,0.224-3.537,0.81-5.183c0.585-1.645,1.426-3.086,2.523-4.326c1.097-1.24,2.416-2.232,3.957-2.981
				c1.542-0.751,3.245-1.148,5.11-1.196c1.336-0.034,2.621,0.115,3.855,0.446c1.235,0.33,2.369,0.825,3.401,1.48
				c1.035,0.657,1.939,1.483,2.717,2.481c0.777,0.996,1.364,2.145,1.758,3.444l2.506-0.063l-0.206-8.144l3.341-0.084l0.268,10.606
				l-8.603,0.218c-0.529-2.215-1.561-3.859-3.092-4.937c-1.532-1.075-3.439-1.585-5.722-1.527c-1.364,0.036-2.618,0.291-3.763,0.766
				c-1.144,0.476-2.13,1.126-2.959,1.954c-0.829,0.83-1.472,1.843-1.929,3.037c-0.457,1.196-0.668,2.519-0.631,3.966
				c0.036,1.447,0.313,2.743,0.83,3.887c0.517,1.143,1.21,2.115,2.08,2.914c0.871,0.8,1.895,1.4,3.075,1.803
				c1.18,0.402,2.438,0.587,3.775,0.553c2.199-0.057,4.072-0.652,5.617-1.793c1.545-1.14,2.498-2.843,2.858-5.107l8.603-0.218
				l0.269,10.606L40.394,418.212z"/>
			<path d="M16.564,364.998l38.56,3.052l-0.178,2.249l-38.56-3.051L16.564,364.998z"/>
			<path d="M46.977,338.433l0.746-4.492l0.996,0.376l-2.087,12.57l-0.996-0.376l0.698-4.204l-22.877-9.136l-0.788,4.74l-0.996-0.377
				l0.444-2.679c0.63-3.793,0.561-4.651,0.402-5.989L46.977,338.433z"/>
			<path d="M27.374,301.047l37.483,9.571l-0.558,2.186l-37.483-9.571L27.374,301.047z"/>
			<path d="M61.864,280.033l1.496-4.301l0.918,0.541l-4.188,12.034l-0.917-0.541l1.4-4.024l-20.998-12.88l-1.579,4.539l-0.917-0.541
				l0.892-2.564c1.263-3.631,1.34-4.489,1.411-5.834L61.864,280.033z"/>
			<path d="M48.867,239.896l35.329,15.766l-0.919,2.06l-35.33-15.766L48.867,239.896z"/>
			<path d="M86.416,225.01l2.201-3.986l0.813,0.688l-6.16,11.153l-0.813-0.688l2.06-3.73l-18.52-16.24l-2.322,4.206l-0.813-0.688
				l1.312-2.376c1.857-3.365,2.079-4.198,2.375-5.513L86.416,225.01z"/>
			<path d="M80.394,183.232l32.156,21.511l-1.254,1.875l-32.157-21.51L80.394,183.232z"/>
			<path d="M100.816,165.145c-0.712-2.655-1.124-6.087,0.702-8.371c2.869-3.588,8.16-1.443,11.293,1.061
				c7.569,6.052,9.947,16.188,6.895,20.006c-1.539,1.925-5.55,3.53-11.456-1.19C105.738,174.642,102.457,171.323,100.816,165.145z
				 M118.938,177.332c2.712-3.393-1.288-8.089-8.669-16.718c-1.161-1.356-2.506-2.751-3.321-3.405
				c-1.272-1.017-3.301-1.623-4.736,0.172c-1.852,2.317,0.393,5.663,1.254,6.993c0.104,0.136,6.67,9.718,10.52,12.795
				C116.008,178.788,117.814,178.735,118.938,177.332z"/>
			<path d="M121.043,132.72l28.047,26.644l-1.554,1.636l-28.047-26.642L121.043,132.72z"/>
			<path d="M161.403,131.228l3.408-3.02l0.536,0.92l-9.534,8.451l-0.537-0.92l3.189-2.826l-12.021-21.498l-3.595,3.187l-0.536-0.92
				l2.032-1.8c2.876-2.549,3.362-3.26,4.082-4.401L161.403,131.228z"/>
			<path d="M169.695,89.848l23.092,31.043l-1.81,1.346l-23.092-31.041L169.695,89.848z"/>
			<path d="M209.724,95.27l3.873-2.394l0.372,0.998l-10.838,6.697l-0.371-0.998l3.624-2.239l-8.171-23.235l-4.086,2.525
				l-0.372-0.999l2.31-1.427c3.27-2.021,3.87-2.637,4.774-3.638L209.724,95.27z"/>
			<path d="M225.003,55.899l17.442,34.534l-2.014,1.017l-17.442-34.533L225.003,55.899z"/>
			<path d="M263.518,68.066l4.224-1.701l0.196,1.046L256.12,72.17l-0.196-1.046l3.952-1.592l-4.104-24.285l-4.456,1.794
				l-0.196-1.047l2.519-1.014c3.565-1.435,4.262-1.941,5.323-2.773L263.518,68.066z"/>
			<path d="M285.318,31.843l11.127,37.053l-2.161,0.648l-11.126-37.052L285.318,31.843z"/>
			<path d="M312.444,30.708c1.12-2.51,2.965-5.434,5.822-6.057c4.491-0.976,7.246,4.026,8.1,7.946
				c2.061,9.471-2.486,18.84-7.264,19.879c-2.408,0.524-6.535-0.758-8.144-8.148C310.276,41.185,309.821,36.538,312.444,30.708z
				 M318.826,51.596c4.246-0.923,4.102-7.091,3.812-18.445c-0.047-1.786-0.21-3.717-0.432-4.738
				c-0.346-1.592-1.54-3.342-3.785-2.854c-2.899,0.629-3.266,4.643-3.436,6.219c-0.007,0.173-0.95,11.752,0.098,16.569
				C315.633,50.879,317.071,51.978,318.826,51.596z"/>
		</g>
		<path fill="none" stroke="#000000" stroke-miterlimit="10" d="M403.99,54.569"/>
		<g>
			<path fill="none" stroke="#000000" stroke-width="0.75" stroke-miterlimit="10" d="M717.341,515.209
				c-56.538-127.394-182.07-209.412-320.529-209.412c-138.461,0-263.994,82.018-320.531,209.412"/>
			<path fill="none" stroke="#000000" stroke-width="0.75" stroke-miterlimit="10" d="M697.111,558.266
				c-31.983-141.22-156.595-241.383-300.301-241.383S127.676,417.57,95.692,558.788"/>
			<path fill="none" stroke="#000000" stroke-width="0.75" stroke-miterlimit="10" d="M669.057,600.971
				c-0.604-151.125-122.312-273.32-272.245-273.32c-149.934,0-271.645,122.195-272.247,273.319"/>
			<path fill="none" stroke="#000000" stroke-width="0.75" stroke-miterlimit="10" d="M630.884,643.053
				c5.135-19.972,7.735-40.52,7.735-61.15c0-134.611-108.262-243.737-241.809-243.737c-133.548,0-241.809,109.126-241.809,243.736
				c0,20.632,2.597,41.181,7.733,61.15"/>
			<path fill="none" stroke="#000000" stroke-width="0.75" stroke-miterlimit="10" d="M577.209,684.163
				c22.82-35.272,34.974-76.474,34.974-118.586c0-119.893-96.427-217.086-215.371-217.086
				c-118.947,0-215.371,97.194-215.371,217.086c0,45.348,12.15,83.312,34.971,118.586"/>
			<path fill="none" stroke="#000000" stroke-width="0.75" stroke-miterlimit="10" d="M485.258,725.167
				c63.621-33.283,103.553-100.733,103.553-172.986c0-106.886-85.964-193.534-191.999-193.534c-106.04,0-192,86.648-192,193.534
				c0,72.253,39.928,139.703,103.549,172.986"/>
			<path fill="none" stroke="#000000" stroke-width="0.75" stroke-miterlimit="10" d="M396.812,659.753
				c74.28,0.001,134.498-60.697,134.498-135.57c0-74.878-60.218-135.57-134.498-135.57c-74.283,0-134.501,60.692-134.501,135.57
				C262.311,599.055,322.528,659.753,396.812,659.753"/>
			<path fill="none" stroke="#000000" stroke-width="0.75" stroke-miterlimit="10" d="M396.812,636.896
				c65.296,0,118.231-53.354,118.231-119.175c0-65.815-52.936-119.176-118.231-119.176c-65.298,0-118.232,53.359-118.232,119.176
				C278.579,583.541,331.513,636.896,396.812,636.896"/>
			<path fill="none" stroke="#000000" stroke-width="0.75" stroke-miterlimit="10" d="M396.812,616.117
				c56.871,0,102.977-46.473,102.977-103.797s-46.104-103.798-102.977-103.798c-56.873,0-102.978,46.474-102.978,103.798
				C293.833,569.646,339.939,616.117,396.812,616.117"/>
			<path fill="none" stroke="#000000" stroke-width="0.75" stroke-miterlimit="10" d="M396.812,597.074
				c48.9,0,88.546-39.958,88.546-89.252c0-49.292-39.646-89.252-88.546-89.252c-48.903,0-88.546,39.96-88.546,89.252
				C308.264,557.115,347.908,597.074,396.812,597.074"/>
			<path fill="none" stroke="#000000" stroke-width="0.75" stroke-miterlimit="10" d="M396.812,579.514
				c41.309,0,74.796-33.753,74.796-75.392s-33.487-75.392-74.796-75.392c-41.309,0-74.795,33.753-74.795,75.392
				C322.016,545.76,355.502,579.514,396.812,579.514"/>
			<path fill="none" stroke="#000000" stroke-width="0.75" stroke-miterlimit="10" d="M396.812,563.172
				c34.007,0,61.577-27.788,61.577-62.066c0-34.277-27.57-62.066-61.577-62.066c-34.008,0-61.577,27.789-61.577,62.066
				C335.234,535.384,362.803,563.172,396.812,563.172"/>
			<path fill="none" stroke="#000000" stroke-width="0.75" stroke-miterlimit="10" d="M396.812,547.906
				c26.938,0,48.78-22.016,48.78-49.17c0-27.153-21.842-49.17-48.78-49.17c-26.94,0-48.78,22.017-48.78,49.17
				C348.031,525.892,369.871,547.906,396.812,547.906"/>
			<path fill="none" stroke="#000000" stroke-width="0.75" stroke-miterlimit="10" d="M396.812,533.545
				c20.053,0,36.314-16.389,36.314-36.605c0-20.215-16.263-36.601-36.314-36.601c-20.057,0-36.313,16.386-36.313,36.601
				C360.498,517.156,376.754,533.545,396.812,533.545"/>
			<path fill="none" stroke="#000000" stroke-width="0.75" stroke-miterlimit="10" d="M396.812,519.963
				c13.302,0,24.087-10.872,24.087-24.28c0-13.407-10.785-24.276-24.087-24.276c-13.304,0-24.088,10.869-24.088,24.276
				C372.723,509.091,383.506,519.963,396.812,519.963"/>
			<path fill="none" stroke="#000000" stroke-width="0.75" stroke-miterlimit="10" d="M396.812,507.045
				c6.63,0,12.007-5.416,12.007-12.104c0-6.685-5.377-12.101-12.007-12.101c-6.631,0-12.008,5.416-12.008,12.101
				C384.802,501.629,390.18,507.045,396.812,507.045"/>
			<path fill="none" stroke="#000000" stroke-width="0.75" stroke-miterlimit="10" d="M371.668,306.814
				c10.294,144.408,40.976,286.598,91.112,422.271"/>
			<path fill="none" stroke="#000000" stroke-width="0.75" stroke-miterlimit="10" d="M346.214,309.47
				c21.389,148.149,84.833,286.9,182.687,399.526"/>
			<path fill="none" stroke="#000000" stroke-width="0.75" stroke-miterlimit="10" d="M320.211,314.313
				C354.47,468.807,454.9,600.044,594.444,672.676"/>
			<path fill="none" stroke="#000000" stroke-width="0.75" stroke-miterlimit="10" d="M293.286,321.553
				c50.133,163.753,193.937,280.378,363.357,294.69"/>
			<path fill="none" stroke="#000000" stroke-width="0.75" stroke-miterlimit="10" d="M265.175,331.624
				c54.139,134.935,184.098,223.258,328.5,223.26c39.136,0,77.999-6.536,115.014-19.341"/>
			<path fill="none" stroke="#000000" stroke-width="0.75" stroke-miterlimit="10" d="M235.55,345.343
				c54.764,106.771,164.05,173.821,283.292,173.821c61.351,0,121.4-17.837,172.947-51.37"/>
			<path fill="none" stroke="#000000" stroke-width="0.75" stroke-miterlimit="10" d="M204.213,363.777
				c55.521,85.333,149.957,136.738,251.201,136.738c74.544,0,146.426-27.938,201.674-78.381"/>
			<path fill="none" stroke="#000000" stroke-width="0.75" stroke-miterlimit="10" d="M171.113,388.601
				c55.979,67.246,138.606,106.082,225.697,106.082c87.09,0,169.718-38.836,225.696-106.082"/>
			<path fill="none" stroke="#000000" stroke-width="0.75" stroke-miterlimit="10" d="M136.534,422.134
				c55.249,50.442,127.132,78.381,201.674,78.381c101.242,0,195.676-51.404,251.2-136.738"/>
			<path fill="none" stroke="#000000" stroke-width="0.75" stroke-miterlimit="10" d="M101.832,467.794
				c51.544,33.533,111.595,51.37,172.947,51.37c119.242,0,228.527-67.052,283.292-173.821"/>
			<path fill="none" stroke="#000000" stroke-width="0.75" stroke-miterlimit="10" d="M83.307,533.545
				c37.017,12.804,77.505,21.337,116.639,21.337c144.399,0,274.362-88.323,328.501-223.258"/>
			<path fill="none" stroke="#000000" stroke-width="0.75" stroke-miterlimit="10" d="M136.979,616.242
				c169.419-14.312,313.227-130.937,363.355-294.689"/>
			<path fill="none" stroke="#000000" stroke-width="0.75" stroke-miterlimit="10" d="M199.176,672.676
				c139.544-72.632,239.975-203.869,274.235-358.363"/>
			<path fill="none" stroke="#000000" stroke-width="0.75" stroke-miterlimit="10" d="M264.722,708.996
				c97.85-112.626,161.294-251.377,182.684-399.526"/>
			<path fill="none" stroke="#000000" stroke-width="0.75" stroke-miterlimit="10" d="M330.839,729.086
				c50.137-135.674,80.818-277.863,91.112-422.271"/>
		</g>
		<g>
			<path fill="none" stroke="#000000" stroke-width="0.75" stroke-miterlimit="10" d="M513.079,75.196
				C385.683,131.78,303.666,257.418,303.666,395.991c0,138.576,82.018,264.214,209.414,320.799"/>
			<path fill="none" stroke="#000000" stroke-width="0.75" stroke-miterlimit="10" d="M556.134,95.441
				c-141.22,32.01-241.382,156.726-241.382,300.55c0,143.826,100.164,268.544,241.382,300.553"/>
			<path fill="none" stroke="#000000" stroke-width="0.75" stroke-miterlimit="10" d="M601.926,123.521
				c-151.123,0.602-276.408,122.415-276.408,272.47c0,150.059,125.285,271.871,276.408,272.474"/>
			<path fill="none" stroke="#000000" stroke-width="0.75" stroke-miterlimit="10" d="M644.983,162.235
				c-19.971-5.14-44.583-8.252-65.216-8.252c-134.609,0-243.736,108.353-243.736,242.008c0,133.66,109.125,242.01,243.736,242.01
				c20.633,0,47.682-5.082,67.652-10.224"/>
			<path fill="none" stroke="#000000" stroke-width="0.75" stroke-miterlimit="10" d="M685.869,215.309
				c-35.273-22.84-80.312-34.867-122.422-34.867c-119.895,0-217.088,96.507-217.088,215.549
				c0,119.047,97.195,215.551,217.088,215.551c42.108,0,87.147-13.225,122.422-36.064"/>
			<path fill="none" stroke="#000000" stroke-width="0.75" stroke-miterlimit="10" d="M713.624,297.558
				c-33.282-63.674-91.322-93.725-163.574-93.725c-106.887,0-193.536,86.034-193.536,192.158
				c0,106.129,86.649,192.16,193.536,192.16c72.252,0,120.494-28.243,161.331-86.574"/>
			<path fill="none" stroke="#000000" stroke-width="0.75" stroke-miterlimit="10" d="M657.621,395.991
				c0-74.342-60.698-134.61-135.57-134.61c-74.876,0-135.571,60.268-135.571,134.61c0,74.346,60.695,134.611,135.571,134.611
				C596.923,530.604,657.621,470.337,657.621,395.991"/>
			<path fill="none" stroke="#000000" stroke-width="0.75" stroke-miterlimit="10" d="M634.768,395.991
				c0-65.349-53.357-118.33-119.176-118.33s-119.177,52.98-119.177,118.33c0,65.353,53.359,118.331,119.177,118.331
				S634.768,461.344,634.768,395.991"/>
			<path fill="none" stroke="#000000" stroke-width="0.75" stroke-miterlimit="10" d="M613.985,395.991
				c0-56.918-46.472-103.061-103.798-103.061c-57.323,0-103.797,46.143-103.797,103.061c0,56.922,46.474,103.062,103.797,103.062
				C567.515,499.055,613.985,452.913,613.985,395.991"/>
			<path fill="none" stroke="#000000" stroke-width="0.75" stroke-miterlimit="10" d="M594.943,395.991
				c0-48.941-39.961-88.619-89.252-88.619c-49.293,0-89.254,39.678-89.254,88.619c0,48.942,39.961,88.621,89.254,88.621
				C554.983,484.612,594.943,444.935,594.943,395.991"/>
			<path fill="none" stroke="#000000" stroke-width="0.75" stroke-miterlimit="10" d="M577.382,395.991
				c0-41.341-33.754-74.856-75.392-74.856c-41.639,0-75.392,33.515-75.392,74.856c0,41.344,33.753,74.856,75.392,74.856
				C543.628,470.848,577.382,437.335,577.382,395.991"/>
			<path fill="none" stroke="#000000" stroke-width="0.75" stroke-miterlimit="10" d="M561.04,395.991
				c0-34.034-27.787-61.627-62.067-61.627c-34.276,0-62.064,27.593-62.064,61.627c0,34.037,27.788,61.629,62.064,61.629
				C533.253,457.62,561.04,430.028,561.04,395.991"/>
			<path fill="none" stroke="#000000" stroke-width="0.75" stroke-miterlimit="10" d="M545.775,395.991
				c0-26.959-22.017-48.82-49.172-48.82c-27.152,0-49.169,21.86-49.169,48.82c0,26.963,22.017,48.821,49.169,48.821
				C523.76,444.812,545.775,422.954,545.775,395.991"/>
			<path fill="none" stroke="#000000" stroke-width="0.75" stroke-miterlimit="10" d="M531.413,395.991
				c0-20.068-16.388-36.343-36.604-36.343c-20.216,0-36.602,16.275-36.602,36.343c0,20.073,16.386,36.344,36.602,36.344
				C515.025,432.335,531.413,416.064,531.413,395.991"/>
			<path fill="none" stroke="#000000" stroke-width="0.75" stroke-miterlimit="10" d="M517.831,395.991
				c0-13.311-10.871-24.105-24.279-24.105c-13.409,0-24.278,10.795-24.278,24.105c0,13.315,10.869,24.108,24.278,24.108
				C506.96,420.101,517.831,409.308,517.831,395.991"/>
			<path fill="none" stroke="#000000" stroke-width="0.75" stroke-miterlimit="10" d="M504.913,395.991
				c0-6.634-5.416-12.017-12.104-12.017c-6.683,0-12.1,5.383-12.1,12.017c0,6.638,5.417,12.019,12.1,12.019
				C499.497,408.01,504.913,402.629,504.913,395.991"/>
			<path fill="none" stroke="#000000" stroke-width="0.75" stroke-miterlimit="10" d="M304.683,421.155
				c144.409-10.303,290.329-43.328,426.003-93.505"/>
			<path fill="none" stroke="#000000" stroke-width="0.75" stroke-miterlimit="10" d="M307.337,446.63
				c148.15-21.405,288.725-90.26,401.35-188.193"/>
			<path fill="none" stroke="#000000" stroke-width="0.75" stroke-miterlimit="10" d="M312.181,472.655
				c154.494-34.287,285.733-134.801,358.363-274.461"/>
			<path fill="none" stroke="#000000" stroke-width="0.75" stroke-miterlimit="10" d="M319.421,499.604
				c163.753-50.176,280.379-194.098,294.689-363.66"/>
			<path fill="none" stroke="#000000" stroke-width="0.75" stroke-miterlimit="10" d="M329.492,527.737
				c134.936-54.185,223.259-184.252,223.259-328.773c0-39.167-4.876-77.937-17.681-114.982"/>
			<path fill="none" stroke="#000000" stroke-width="0.75" stroke-miterlimit="10" d="M343.21,557.386
				c106.77-54.809,173.822-164.187,173.822-283.528c0-61.402-17.836-121.501-51.369-173.091"/>
			<path fill="none" stroke="#000000" stroke-width="0.75" stroke-miterlimit="10" d="M361.644,588.749
				c85.333-55.567,136.739-150.081,136.739-251.408c0-74.605-27.938-146.548-78.381-201.842"/>
			<path fill="none" stroke="#000000" stroke-width="0.75" stroke-miterlimit="10" d="M386.468,621.878
				c67.247-56.026,106.083-138.723,106.083-225.887c0-87.16-38.836-169.857-106.083-225.883"/>
			<path fill="none" stroke="#000000" stroke-width="0.75" stroke-miterlimit="10" d="M420.002,656.485
				c50.442-55.294,78.381-127.237,78.381-201.842c0-101.327-51.405-195.838-136.739-251.409"/>
			<path fill="none" stroke="#000000" stroke-width="0.75" stroke-miterlimit="10" d="M465.663,691.218
				c33.533-51.588,51.369-111.688,51.369-173.092c0-119.341-67.052-228.717-173.822-283.528"/>
			<path fill="none" stroke="#000000" stroke-width="0.75" stroke-miterlimit="10" d="M533.412,708.132
				c12.805-37.047,19.339-75.944,19.339-115.11c0-144.52-88.323-274.589-223.259-328.772"/>
			<path fill="none" stroke="#000000" stroke-width="0.75" stroke-miterlimit="10" d="M614.374,658.597
				c-14.31-169.562-131.199-316.042-294.953-366.213"/>
			<path fill="none" stroke="#000000" stroke-width="0.75" stroke-miterlimit="10" d="M670.544,593.792
				c-72.63-139.661-203.869-240.175-358.363-274.462"/>
			<path fill="none" stroke="#000000" stroke-width="0.75" stroke-miterlimit="10" d="M710.101,529.388
				c-112.625-97.932-254.612-162.625-402.762-184.031"/>
			<path fill="none" stroke="#000000" stroke-width="0.75" stroke-miterlimit="10" d="M726.955,462.019
				c-135.674-50.18-277.863-80.886-422.272-91.188"/>
		</g>
		<g>
			<path fill="none" stroke="#000000" stroke-width="0.75" stroke-miterlimit="10" d="M279.735,719.33
				c127.396-56.988,209.413-183.522,209.413-323.086c0-139.566-82.019-266.1-209.413-323.088"/>
			<path fill="none" stroke="#000000" stroke-width="0.75" stroke-miterlimit="10" d="M236.681,698.94
				c141.22-32.239,241.382-157.845,241.382-302.696c0-144.853-100.163-270.46-241.382-302.699"/>
			<path fill="none" stroke="#000000" stroke-width="0.75" stroke-miterlimit="10" d="M193.976,670.66
				c151.125-0.607,273.321-123.288,273.321-274.416c0-151.13-122.197-273.812-273.321-274.419"/>
			<path fill="none" stroke="#000000" stroke-width="0.75" stroke-miterlimit="10" d="M151.895,632.182
				c19.971,5.18,40.519,7.799,61.151,7.799c134.61,0,243.737-109.125,243.737-243.735c0-134.614-109.126-243.738-243.737-243.738
				c-20.632,0-43.608,2.617-63.579,7.795"/>
			<path fill="none" stroke="#000000" stroke-width="0.75" stroke-miterlimit="10" d="M105.713,576.009
				c35.273,23.003,81.544,37.324,123.655,37.324c119.892,0,217.087-97.197,217.087-217.089
				c0-119.896-97.196-217.089-217.087-217.089c-42.111,0-87.959,13.151-123.232,36.154"/>
			<path fill="none" stroke="#000000" stroke-width="0.75" stroke-miterlimit="10" d="M65.86,477.98
				c33.284,64.128,104.652,111.793,176.905,111.793c106.887,0,193.534-86.647,193.534-193.529
				c0-106.886-86.647-193.532-193.534-193.532c-72.252,0-131.755,28.324-165.04,92.453"/>
			<path fill="none" stroke="#000000" stroke-width="0.75" stroke-miterlimit="10" d="M135.192,396.244
				c0,74.872,60.698,135.571,135.57,135.571c74.877,0,135.571-60.699,135.571-135.571c0-74.876-60.694-135.574-135.571-135.574
				C195.892,260.67,135.192,321.368,135.192,396.244"/>
			<path fill="none" stroke="#000000" stroke-width="0.75" stroke-miterlimit="10" d="M158.047,396.244
				c0,65.815,53.357,119.176,119.176,119.176c65.816,0,119.175-53.359,119.175-119.176c0-65.819-53.359-119.176-119.175-119.176
				C211.404,277.068,158.047,330.425,158.047,396.244"/>
			<path fill="none" stroke="#000000" stroke-width="0.75" stroke-miterlimit="10" d="M178.83,396.244
				c0,57.324,46.471,103.798,103.797,103.798c57.325,0,103.797-46.474,103.797-103.798c0-57.328-46.473-103.8-103.797-103.8
				C225.3,292.444,178.83,338.917,178.83,396.244"/>
			<path fill="none" stroke="#000000" stroke-width="0.75" stroke-miterlimit="10" d="M197.872,396.244
				c0,49.291,39.959,89.251,89.252,89.251c49.292,0,89.253-39.96,89.253-89.251c0-49.293-39.96-89.253-89.253-89.253
				S197.872,346.951,197.872,396.244"/>
			<path fill="none" stroke="#000000" stroke-width="0.75" stroke-miterlimit="10" d="M215.433,396.244
				c0,41.637,33.753,75.39,75.391,75.39c41.638,0,75.392-33.753,75.392-75.39c0-41.639-33.754-75.393-75.392-75.393
				C249.187,320.852,215.433,354.605,215.433,396.244"/>
			<path fill="none" stroke="#000000" stroke-width="0.75" stroke-miterlimit="10" d="M231.773,396.244
				c0,34.277,27.788,62.065,62.067,62.065c34.277,0,62.067-27.788,62.067-62.065c0-34.28-27.79-62.069-62.067-62.069
				C259.562,334.175,231.773,361.964,231.773,396.244"/>
			<path fill="none" stroke="#000000" stroke-width="0.75" stroke-miterlimit="10" d="M247.04,396.244
				c0,27.15,22.015,49.168,49.17,49.168c27.154,0,49.17-22.018,49.17-49.168c0-27.156-22.017-49.17-49.17-49.17
				C269.055,347.074,247.04,369.088,247.04,396.244"/>
			<path fill="none" stroke="#000000" stroke-width="0.75" stroke-miterlimit="10" d="M261.401,396.244
				c0,20.213,16.389,36.603,36.605,36.603c20.215,0,36.602-16.39,36.602-36.603c0-20.217-16.387-36.604-36.602-36.604
				C277.791,359.641,261.401,376.027,261.401,396.244"/>
			<path fill="none" stroke="#000000" stroke-width="0.75" stroke-miterlimit="10" d="M274.982,396.244
				c0,13.406,10.872,24.277,24.28,24.277c13.408,0,24.278-10.871,24.278-24.277c0-13.411-10.869-24.281-24.278-24.281
				C285.854,371.963,274.982,382.833,274.982,396.244"/>
			<path fill="none" stroke="#000000" stroke-width="0.75" stroke-miterlimit="10" d="M287.9,396.244
				c0,6.681,5.417,12.103,12.104,12.103c6.683,0,12.1-5.422,12.1-12.103c0-6.685-5.417-12.105-12.1-12.105
				C293.317,384.139,287.9,389.56,287.9,396.244"/>
			<path fill="none" stroke="#000000" stroke-width="0.75" stroke-miterlimit="10" d="M488.132,370.9
				c-144.41,10.375-291.149,42.875-426.822,93.41"/>
			<path fill="none" stroke="#000000" stroke-width="0.75" stroke-miterlimit="10" d="M485.477,345.244
				c-148.15,21.558-289.544,89.666-402.17,188.301"/>
			<path fill="none" stroke="#000000" stroke-width="0.75" stroke-miterlimit="10" d="M480.634,319.032
				c-154.495,34.533-285.732,135.766-358.362,276.421"/>
			<path fill="none" stroke="#000000" stroke-width="0.75" stroke-miterlimit="10" d="M473.395,291.892
				c-163.754,50.533-280.38,195.482-294.69,366.257"/>
			<path fill="none" stroke="#000000" stroke-width="0.75" stroke-miterlimit="10" d="M463.322,263.558
				c-134.936,54.57-223.259,185.566-223.259,331.12c0,39.448,6.535,78.621,19.339,115.932"/>
			<path fill="none" stroke="#000000" stroke-width="0.75" stroke-miterlimit="10" d="M449.605,233.697
				c-106.771,55.201-173.824,165.358-173.824,285.551c0,61.842,17.837,122.369,51.371,174.327"/>
			<path fill="none" stroke="#000000" stroke-width="0.75" stroke-miterlimit="10" d="M431.17,202.11
				c-85.333,55.964-136.737,151.152-136.737,253.205c0,75.137,27.938,147.593,78.381,203.281"/>
			<path fill="none" stroke="#000000" stroke-width="0.75" stroke-miterlimit="10" d="M406.346,168.746
				C339.1,225.172,300.264,308.458,300.264,396.245c0,87.783,38.835,171.069,106.082,227.495"/>
			<path fill="none" stroke="#000000" stroke-width="0.75" stroke-miterlimit="10" d="M372.814,133.89
				c-50.443,55.689-78.381,128.146-78.381,203.283c0,102.049,51.405,197.235,136.737,253.203"/>
			<path fill="none" stroke="#000000" stroke-width="0.75" stroke-miterlimit="10" d="M327.152,98.911
				c-33.533,51.956-51.371,112.486-51.371,174.327c0,120.192,67.052,230.351,173.822,285.551"/>
			<path fill="none" stroke="#000000" stroke-width="0.75" stroke-miterlimit="10" d="M259.402,81.875
				c-12.804,37.312-19.339,76.487-19.339,115.932c0,145.552,88.323,276.55,223.259,331.121"/>
			<path fill="none" stroke="#000000" stroke-width="0.75" stroke-miterlimit="10" d="M178.705,134.338
				c14.31,170.771,130.936,315.725,294.69,366.253"/>
			<path fill="none" stroke="#000000" stroke-width="0.75" stroke-miterlimit="10" d="M122.271,197.032
				c72.63,140.657,203.868,241.889,358.362,276.423"/>
			<path fill="none" stroke="#000000" stroke-width="0.75" stroke-miterlimit="10" d="M85.951,263.101
				c112.626,98.63,251.376,162.58,399.526,184.139"/>
			<path fill="none" stroke="#000000" stroke-width="0.75" stroke-miterlimit="10" d="M61.224,328.127
				c135.673,50.538,282.5,83.081,426.908,93.457"/>
		</g>
		<path fill="none" stroke="#000000" stroke-width="2" stroke-linecap="round" stroke-linejoin="round" stroke-miterlimit="10" d="
			M224.922,741.666c13.69,7.712,28.405,13.071,43.045,18.56c15.406,5.776,31.357,9.889,47.336,13.549
			c6.645,1.518,13.86,2.014,20.578,3.319c11.321,2.205,22.765,2.641,34.097,4.224c8.898,1.247,18.053,0.336,27.068,0.359
			c3.438,0.008,7.132,0.17,10.634,0.082c17.32-0.441,34.456-2.177,51.527-5.018c38.357-6.371,74.869-18.03,109.538-35.933
			c15.96-8.236,31.396-17.061,46.138-27.263c19.836-13.733,38.489-28.716,55.41-46.074c12.071-12.377,23.248-25.381,33.775-38.991
			c12.654-16.367,23.686-33.842,33.461-52.06c10.152-18.918,18.645-38.663,25.356-59.005c5.996-18.175,10.793-36.846,13.709-55.766
			c1.452-9.446,3.198-18.937,3.714-28.629c0.733-13.812,2.106-27.602,1.842-41.447c-0.261-13.863-1.464-27.65-2.976-41.459
			c-2.513-22.972-7.485-45.365-14.05-67.426c-4.32-14.506-9.513-28.729-15.817-42.545c-10.983-24.075-23.925-47.027-39.412-68.469
			c-12.458-17.242-26.036-33.515-41.252-48.515c-14.028-13.83-28.937-26.454-44.729-38.152
			c-16.812-12.455-34.52-23.391-53.13-32.941c-21.172-10.862-43.113-19.74-65.904-26.485c-16.716-4.945-33.721-8.664-50.984-11.234
			c-22.029-3.28-44.147-4.695-66.412-4.24c-16.046,0.327-31.934,1.919-47.83,4.145c-18.391,2.575-36.409,6.593-54.154,11.871
			c-20.327,6.045-40.061,13.667-58.989,23.312c-19.685,10.031-38.57,21.154-56.522,34.247
			c-16.684,12.166-32.472,25.209-46.934,39.74c-18.624,18.71-35.177,39.177-49.679,61.402
			c-17.874,27.393-32.292,56.314-42.917,87.208c-6.63,19.278-11.705,39.001-15.187,59.012c-3.532,20.312-5.553,40.905-5.451,61.59
			c0.056,11.159,0.123,22.361,1.113,33.46c2.609,29.261,8.206,57.978,16.876,86.08c5.929,19.204,13.508,37.823,22.514,55.681
			c17.94,35.581,40.658,68.034,68.421,96.712c14.865,15.353,30.838,29.558,48.26,42.055c17.62,12.643,35.667,24.562,55.232,34.046
			c0.775,0.376,1.43,0.359,2.156,0.47"/>
		
			<circle fill="none" stroke="#000000" stroke-width="2" stroke-linecap="round" stroke-linejoin="round" stroke-miterlimit="10" cx="396.001" cy="396" r="341.527"/>
		<g>
			<path d="M381.463,96.483H366.84V95.23c1.421-1.838,3.008-3.468,4.721-4.972c0.501-0.501,3.218-2.966,3.761-3.426
				c3.467-2.924,6.183-7.019,6.183-12.074c0-2.173-1.128-3.969-3.468-3.969c-3.509,0-5.64,2.799-5.64,4.178
				c0,0.125,0.167,0.668,0.585,0.668l0.919-0.083c1.295,0,1.796,0.71,1.796,1.671c0,1.211-1.003,2.005-2.047,2.005
				c-1.672,0-2.591-1.629-2.591-3.05c0-2.465,2.257-6.434,7.688-6.434c4.763,0,6.852,3.092,6.852,5.724
				c0,3.718-2.966,6.309-8.146,10.821c-5.473,4.763-5.766,5.055-7.562,6.894h8.689c2.006,0,2.507,0,3.134-2.34
				c0.125-0.418,0.292-1.086,0.376-1.253h1.002L381.463,96.483z"/>
			<path d="M396.836,95.439h4.555l-0.209,1.044h-12.744l0.208-1.044h4.263l5.264-24.064h-4.804l0.208-1.044h2.716
				c3.844,0,4.68-0.209,5.975-0.585L396.836,95.439z"/>
			<path d="M426.664,70.079c-6.227,0.209-9.818,5.097-11.907,10.946l0.084,0.083c0.794-0.752,2.423-2.047,4.972-2.047
				c3.51,0,6.017,3.259,6.017,6.769c0,5.097-4.094,11.28-9.984,11.28c-4.889,0-6.936-4.178-6.936-8.188
				c0-8.773,7.688-19.761,17.756-19.803L426.664,70.079L426.664,70.079z M412.25,92.849c0,2.757,2.424,3.342,3.51,3.342
				c1.295,0,2.34-0.71,2.716-1.128c1.253-1.42,3.51-6.142,3.51-11.406c0-1.546-0.668-3.551-2.675-3.551
				c-2.423,0-4.178,1.838-5.097,2.757C413.796,84.284,412.25,89.841,412.25,92.849z"/>
		</g>
		<g>
			<path d="M690.651,393.064c0.668-0.292,2.256-0.919,4.512-0.919c3.51,0,7.437,1.922,7.437,6.81c0,4.555-3.718,9.484-9.984,9.484
				c-3.635,0-6.101-2.174-6.101-4.764c0-1.588,0.961-2.382,2.216-2.382c1.629,0,1.922,1.295,1.922,1.88
				c0,1.17-0.711,1.504-1.588,1.88c-0.376,0.168-0.461,0.418-0.461,0.585c0,1.045,2.299,1.797,3.678,1.797
				c1.254,0,2.465-0.418,3.217-1.003c1.88-1.462,3.05-5.222,3.05-8.354c0-2.298-0.585-3.175-1.337-3.76
				c-0.919-0.711-2.089-1.045-3.008-1.045c-0.585,0-1.964,0.084-3.886,1.17l-1.002-0.125l2.715-10.821
				c0.46-1.797,1.003-1.797,3.092-1.797h4.805c2.716,0,2.967-0.125,3.552-1.337h0.961c-0.626,2.34-1.463,3.551-2.382,4.136
				s-1.922,0.585-2.925,0.585h-6.434L690.651,393.064z"/>
			<path d="M718.432,394.443c2.298,0.877,4.848,2.59,4.848,5.808c0,4.721-4.513,8.188-9.525,8.188c-4.972,0-7.479-3.386-7.479-6.561
				c0-2.256,1.588-6.184,7.729-7.646v-0.083c-2.842-1.254-4.137-3.343-4.137-5.641c0-4.554,4.429-7.437,8.647-7.437
				c4.472,0,6.77,3.05,6.77,6.1c0,1.755-0.627,5.39-6.854,7.186L718.432,394.443L718.432,394.443z M713.795,407.521
				c1.337,0,2.507-0.586,3.092-1.213c1.295-1.421,2.465-4.638,2.465-7.896c0-1.128-0.168-2.423-1.212-3.008
				c-0.877-0.501-1.671-0.585-2.173-0.585c-2.799,0-4.261,2.173-4.972,4.429c-0.71,2.298-0.71,4.596-0.71,4.888
				C710.285,407.479,713.335,407.521,713.795,407.521z M716.51,393.9c0.92,0,1.797-0.376,2.382-1.003
				c1.253-1.337,2.55-4.178,2.55-7.353c0-0.71-0.167-3.551-2.968-3.551c-4.261,0-4.763,7.312-4.763,9.024
				C713.711,391.31,713.711,393.9,716.51,393.9z"/>
		</g>
		<g>
			<path d="M380.545,715.226h-14.623v-1.253c1.421-1.839,3.008-3.468,4.721-4.972c0.501-0.502,3.218-2.967,3.761-3.426
				c3.467-2.925,6.183-7.021,6.183-12.074c0-2.173-1.128-3.969-3.468-3.969c-3.509,0-5.641,2.799-5.641,4.178
				c0,0.125,0.168,0.668,0.586,0.668l0.919-0.083c1.295,0,1.796,0.71,1.796,1.671c0,1.212-1.003,2.005-2.047,2.005
				c-1.672,0-2.591-1.629-2.591-3.05c0-2.465,2.257-6.434,7.688-6.434c4.763,0,6.852,3.092,6.852,5.724
				c0,3.719-2.966,6.31-8.146,10.82c-5.474,4.763-5.766,5.056-7.562,6.894h8.689c2.006,0,2.507,0,3.134-2.339
				c0.125-0.418,0.292-1.087,0.376-1.254h1.002L380.545,715.226z"/>
			<path d="M395.917,714.181h4.555l-0.209,1.045H387.52l0.208-1.045h4.263l5.264-24.063h-4.804l0.208-1.044h2.716
				c3.844,0,4.68-0.209,5.975-0.585L395.917,714.181z"/>
			<path d="M419.145,701.856c2.299,0.877,4.848,2.59,4.848,5.808c0,4.721-4.513,8.188-9.525,8.188c-4.972,0-7.479-3.385-7.479-6.56
				c0-2.256,1.588-6.184,7.729-7.646v-0.084c-2.842-1.254-4.137-3.343-4.137-5.641c0-4.554,4.429-7.437,8.647-7.437
				c4.472,0,6.77,3.05,6.77,6.1c0,1.755-0.627,5.39-6.854,7.186L419.145,701.856L419.145,701.856z M414.508,714.934
				c1.337,0,2.507-0.585,3.092-1.212c1.295-1.421,2.466-4.638,2.466-7.896c0-1.128-0.169-2.423-1.213-3.008
				c-0.877-0.501-1.671-0.585-2.173-0.585c-2.799,0-4.261,2.173-4.972,4.429c-0.71,2.298-0.71,4.596-0.71,4.888
				C410.998,714.892,414.048,714.934,414.508,714.934z M417.223,701.312c0.92,0,1.797-0.375,2.382-1.003
				c1.254-1.337,2.55-4.178,2.55-7.353c0-0.711-0.167-3.552-2.968-3.552c-4.261,0-4.763,7.312-4.763,9.023
				C414.424,698.723,414.424,701.312,417.223,701.312z"/>
		</g>
		<g>
			<path d="M81.034,408.405l-14.611-0.591l0.051-1.253c1.494-1.778,3.146-3.344,4.918-4.775c0.521-0.481,3.333-2.834,3.895-3.271
				c3.583-2.782,6.462-6.763,6.667-11.813c0.088-2.171-0.967-4.012-3.305-4.106c-3.507-0.142-5.748,2.57-5.804,3.947
				c-0.005,0.125,0.139,0.674,0.557,0.691l0.921-0.046c1.294,0.052,1.767,0.782,1.728,1.743c-0.049,1.21-1.083,1.963-2.126,1.921
				c-1.67-0.067-2.522-1.732-2.465-3.152c0.1-2.463,2.514-6.337,7.94-6.118c4.759,0.192,6.721,3.366,6.614,5.995
				c-0.15,3.715-3.217,6.184-8.577,10.482c-5.661,4.538-5.965,4.818-7.833,6.583l8.682,0.352c2.005,0.081,2.505,0.102,3.227-2.211
				c0.141-0.413,0.335-1.073,0.425-1.237l1.002,0.041L81.034,408.405z"/>
			<path d="M98.389,394.849c1.369,0.265,6.01,1.33,5.809,6.298c-0.199,4.926-5.239,8.567-10.123,8.37
				c-3.966-0.159-6.371-2.724-6.273-5.145c0.062-1.545,1.147-2.547,2.483-2.493c1.002,0.041,1.893,0.788,1.845,1.956
				c-0.01,0.251-0.098,1.376-1.286,1.83c-0.382,0.151-0.851,0.342-0.868,0.759c-0.03,0.752,1.931,1.877,3.559,1.942
				c4.468,0.181,6.388-4.927,6.535-8.56c0.059-1.461-0.075-4.352-3.54-4.491c-0.584-0.023-1.255,0.033-1.383,0.069
				c-1.007,0.085-1.134,0.121-1.3,0.114c-0.376-0.015-0.743-0.238-0.725-0.698c0.027-0.668,0.742-0.764,1.075-0.75
				c0.209,0.008,0.625,0.066,1.248,0.175c0.917,0.079,1.623,0.191,2.814-0.304c1.617-0.688,3.574-3.619,3.713-7.042
				c0.074-1.837-0.569-3.494-2.865-3.586c-1.921-0.078-3.508,0.904-3.53,1.447c-0.005,0.125,0.03,0.293,0.152,0.382
				c0.123,0.088,0.566,0.482,0.649,0.528c0.202,0.175,0.427,0.77,0.407,1.271c-0.03,0.752-0.536,1.902-2.039,1.841
				c-1.336-0.054-1.876-1.163-1.842-1.998c0.091-2.254,2.858-4.525,6.866-4.363c3.924,0.158,6.246,2.719,6.128,5.642
				c-0.17,4.215-3.923,6.03-7.506,6.721L98.389,394.849z"/>
			<path d="M120.141,396.606c2.26,0.969,4.737,2.782,4.607,5.997c-0.191,4.718-4.838,7.999-9.848,7.798
				c-4.967-0.201-7.335-3.685-7.207-6.856c0.091-2.254,1.835-6.113,8.031-7.326l0.003-0.084c-2.788-1.367-3.998-3.506-3.905-5.802
				c0.184-4.55,4.725-7.252,8.941-7.082c4.468,0.181,6.64,3.321,6.517,6.368c-0.071,1.753-0.845,5.36-7.137,6.902L120.141,396.606z
				 M114.979,409.484c1.336,0.055,2.528-0.482,3.139-1.085c1.351-1.367,2.65-4.534,2.782-7.791c0.045-1.127-0.07-2.429-1.09-3.055
				c-0.855-0.537-1.646-0.651-2.147-0.673c-2.797-0.111-4.346,1.999-5.146,4.226c-0.803,2.268-0.896,4.562-0.908,4.854
				C111.474,409.302,114.521,409.466,114.979,409.484z M118.242,395.986c0.919,0.038,1.811-0.304,2.42-0.906
				c1.306-1.285,2.715-4.072,2.844-7.244c0.029-0.709-0.023-3.556-2.82-3.668c-4.258-0.172-5.055,7.113-5.125,8.825
				C115.549,393.284,115.444,395.873,118.242,395.986z"/>
		</g>
		<g>
			<path fill="none" stroke="#000000" stroke-width="0.75" stroke-miterlimit="10" d="M72.646,286.589
				c56.988,126.018,183.522,207.146,323.083,207.146c139.567,0,266.101-81.13,323.089-207.146"/>
			<path fill="none" stroke="#000000" stroke-width="0.75" stroke-miterlimit="10" d="M93.036,238.216
				C125.274,377.908,250.879,482.77,395.73,482.77c144.854,0,270.459-105.897,302.699-245.591"/>
			<path fill="none" stroke="#000000" stroke-width="0.75" stroke-miterlimit="10" d="M121.315,193.024
				c0.605,149.489,123.288,279.095,274.415,279.095c151.132,0,274.206-129.803,274.813-279.293"/>
			<path fill="none" stroke="#000000" stroke-width="0.75" stroke-miterlimit="10" d="M162.093,156.683
				c-5.177,19.755-10.098,43.529-10.098,63.938c0,133.154,109.125,241.098,243.734,241.098
				c134.615,0,243.739-107.944,243.739-241.098c0-20.409-2.617-40.735-7.795-60.489"/>
			<path fill="none" stroke="#000000" stroke-width="0.75" stroke-miterlimit="10" d="M217.511,106.56
				c-23.003,34.891-38.869,88.552-38.869,130.207c0,118.596,97.196,214.737,217.087,214.737c119.897,0,217.09-96.142,217.09-214.737
				c0-41.655-8.283-76.163-31.286-111.054"/>
			<path fill="none" stroke="#000000" stroke-width="0.75" stroke-miterlimit="10" d="M300.26,83.905
				c-64.129,32.925-98.059,94.643-98.059,166.113c0,105.729,86.648,191.44,193.53,191.44c106.886,0,193.531-85.71,193.531-191.44
				c0-71.47-32.321-130.761-96.451-163.686"/>
			<path fill="none" stroke="#000000" stroke-width="0.75" stroke-miterlimit="10" d="M395.73,118.551
				c-84.61,0-153.207,67.851-153.207,151.548c0,83.697,68.595,151.549,153.207,151.549c84.617,0,153.209-67.854,153.209-151.549
				C548.939,186.401,480.348,118.551,395.73,118.551"/>
			<path fill="none" stroke="#000000" stroke-width="0.75" stroke-miterlimit="10" d="M395.73,143.61
				c-74.872,0-135.569,60.042-135.569,134.104c0,74.066,60.698,134.104,135.569,134.104c74.878,0,135.575-60.038,135.575-134.104
				C531.306,203.652,470.607,143.61,395.73,143.61"/>
			<path fill="none" stroke="#000000" stroke-width="0.75" stroke-miterlimit="10" d="M395.73,166.219
				c-65.815,0-119.174,52.779-119.174,117.884S329.916,401.99,395.73,401.99c65.82,0,119.177-52.782,119.177-117.887
				S461.551,166.219,395.73,166.219"/>
			<path fill="none" stroke="#000000" stroke-width="0.75" stroke-miterlimit="10" d="M395.73,186.774
				c-57.323,0-103.796,45.969-103.796,102.674c0,56.703,46.473,102.673,103.796,102.673c57.328,0,103.802-45.97,103.802-102.673
				C499.532,232.743,453.059,186.774,395.73,186.774"/>
			<path fill="none" stroke="#000000" stroke-width="0.75" stroke-miterlimit="10" d="M395.73,205.611
				c-49.291,0-89.251,39.527-89.251,88.285c0,48.76,39.962,88.287,89.251,88.287c49.295,0,89.255-39.527,89.255-88.287
				C484.985,245.138,445.025,205.611,395.73,205.611"/>
			<path fill="none" stroke="#000000" stroke-width="0.75" stroke-miterlimit="10" d="M395.73,222.982
				c-41.637,0-75.39,33.388-75.39,74.575c0,41.186,33.753,74.576,75.39,74.576c41.64,0,75.394-33.39,75.394-74.576
				C471.124,256.37,437.37,222.982,395.73,222.982"/>
			<path fill="none" stroke="#000000" stroke-width="0.75" stroke-miterlimit="10" d="M395.73,239.146
				c-34.276,0-62.066,27.487-62.066,61.397c0,33.905,27.79,61.393,62.066,61.393c34.28,0,62.07-27.487,62.07-61.393
				C457.801,266.633,430.011,239.146,395.73,239.146"/>
			<path fill="none" stroke="#000000" stroke-width="0.75" stroke-miterlimit="10" d="M395.73,254.246
				c-27.151,0-49.168,21.777-49.168,48.638c0,26.861,22.017,48.639,49.168,48.639c27.157,0,49.172-21.777,49.172-48.639
				C444.902,276.023,422.888,254.246,395.73,254.246"/>
			<path fill="none" stroke="#000000" stroke-width="0.75" stroke-miterlimit="10" d="M395.73,268.453
				c-20.213,0-36.603,16.212-36.603,36.209s16.39,36.206,36.603,36.206c20.219,0,36.605-16.209,36.605-36.206
				S415.949,268.453,395.73,268.453"/>
			<path fill="none" stroke="#000000" stroke-width="0.75" stroke-miterlimit="10" d="M395.73,281.889
				c-13.405,0-24.277,10.753-24.277,24.018c0,13.263,10.872,24.013,24.277,24.013c13.412,0,24.282-10.75,24.282-24.013
				C420.013,292.642,409.143,281.889,395.73,281.889"/>
			<path fill="none" stroke="#000000" stroke-width="0.75" stroke-miterlimit="10" d="M395.73,294.665
				c-6.682,0-12.102,5.359-12.102,11.974c0,6.61,5.42,11.97,12.102,11.97c6.686,0,12.106-5.359,12.106-11.97
				C407.837,300.024,402.416,294.665,395.73,294.665"/>
			<path fill="none" stroke="#000000" stroke-width="0.75" stroke-miterlimit="10" d="M421.075,492.729
				c-10.375-142.844-35.306-254.292-85.841-388.496"/>
			<path fill="none" stroke="#000000" stroke-width="0.75" stroke-miterlimit="10" d="M446.732,490.104
				c-21.56-146.546-88.697-296.821-187.33-408.229"/>
			<path fill="none" stroke="#000000" stroke-width="0.75" stroke-miterlimit="10" d="M472.943,485.312
				c-34.532-152.821-135.765-282.641-276.422-354.484"/>
			<path fill="none" stroke="#000000" stroke-width="0.75" stroke-miterlimit="10" d="M500.083,478.15
				c-50.532-161.981-203.256-277.22-374.03-291.376"/>
			<path fill="none" stroke="#000000" stroke-width="0.75" stroke-miterlimit="10" d="M528.418,468.189
				c-54.57-133.476-185.567-220.843-331.121-220.843c-39.447,0-78.621,6.463-115.931,19.129"/>
			<path fill="none" stroke="#000000" stroke-width="0.75" stroke-miterlimit="10" d="M558.278,454.619
				c-55.2-105.616-165.358-171.941-285.553-171.941c-61.84,0-122.368,17.644-174.326,50.815"/>
			<path fill="none" stroke="#000000" stroke-width="0.75" stroke-miterlimit="10" d="M589.866,436.383
				C533.9,351.975,438.713,301.127,336.662,301.127c-75.138,0-147.595,27.635-203.283,77.533"/>
			<path fill="none" stroke="#000000" stroke-width="0.75" stroke-miterlimit="10" d="M623.23,411.829
				c-56.427-66.518-139.713-104.936-227.499-104.936c-87.782,0-171.07,38.417-227.497,104.936"/>
			<path fill="none" stroke="#000000" stroke-width="0.75" stroke-miterlimit="10" d="M658.086,378.659
				c-55.689-49.898-128.146-77.533-203.283-77.533c-102.049,0-197.236,50.848-253.203,135.256"/>
			<path fill="none" stroke="#000000" stroke-width="0.75" stroke-miterlimit="10" d="M693.064,333.493
				c-51.955-33.171-112.485-50.815-174.326-50.815c-120.192,0-230.351,66.326-285.553,171.941"/>
			<path fill="none" stroke="#000000" stroke-width="0.75" stroke-miterlimit="10" d="M710.101,266.476
				c-37.312-12.666-76.485-19.129-115.933-19.129c-145.552,0-276.549,87.368-331.121,220.843"/>
			<path fill="none" stroke="#000000" stroke-width="0.75" stroke-miterlimit="10" d="M665.952,186.774
				C495.181,200.93,341.915,316.169,291.383,478.15"/>
			<path fill="none" stroke="#000000" stroke-width="0.75" stroke-miterlimit="10" d="M606.822,127.29
				c-140.656,71.845-253.769,205.201-288.301,358.022"/>
			<path fill="none" stroke="#000000" stroke-width="0.75" stroke-miterlimit="10" d="M535.07,83.982
				c-98.633,111.407-168.777,259.574-190.335,406.122"/>
			<path fill="none" stroke="#000000" stroke-width="0.75" stroke-miterlimit="10" d="M448.841,112.059
				c-50.537,134.204-68.074,237.826-78.45,380.669"/>
		</g>
		
			<line fill="none" stroke="#000000" stroke-width="5" stroke-miterlimit="10" x1="396.002" y1="567.816" x2="396.002" y2="684.163"/>
		
			<line fill="none" stroke="#000000" stroke-width="5" stroke-miterlimit="10" x1="280.973" y1="215.309" x2="191.951" y2="120.979"/>
		
			<line fill="none" stroke="#000000" stroke-width="5" stroke-miterlimit="10" x1="511.031" y1="215.309" x2="588.999" y2="114.583"/>
		
			<line fill="none" stroke="#000000" stroke-width="5" stroke-miterlimit="10" x1="210.468" y1="432.999" x2="69.258" y2="495.685"/>
		
			<line fill="none" stroke="#000000" stroke-width="5" stroke-miterlimit="10" x1="581.534" y1="432.999" x2="726.955" y2="478.15"/>
		<path fill="#FFFFFF" stroke="#010101" stroke-width="5" stroke-miterlimit="10" d="M511.031,215.309L396.002,567.816
			l-115.03-352.507l300.562,217.69H210.468L511.031,215.309z"/>
	</g>
</g>
</svg>
